<svg width="300" height="250" viewBox="0 0 300 250" fill="none" xmlns="http://www.w3.org/2000/svg">
<rect width="300" height="250" fill="url(#paint0_linear_5_2)"/>
<path d="M29.5625 152.774V145.636H60.2976V152.774H49.2713V182H40.6065V152.774H29.5625ZM73.3658 182.515C70.5012 182.515 68.0391 181.929 65.9794 180.757C63.9316 179.573 62.3513 177.928 61.2386 175.821C60.1378 173.702 59.5874 171.246 59.5874 168.452C59.5874 165.647 60.1378 163.191 61.2386 161.084C62.3513 158.965 63.9316 157.32 65.9794 156.148C68.0391 154.964 70.5012 154.372 73.3658 154.372C76.2304 154.372 78.6866 154.964 80.7344 156.148C82.794 157.32 84.3743 158.965 85.4751 161.084C86.5878 163.191 87.1442 165.647 87.1442 168.452C87.1442 171.246 86.5878 173.702 85.4751 175.821C84.3743 177.928 82.794 179.573 80.7344 180.757C78.6866 181.929 76.2304 182.515 73.3658 182.515ZM73.419 175.963C74.4607 175.963 75.3426 175.643 76.0646 175.004C76.7867 174.365 77.3371 173.477 77.7159 172.341C78.1065 171.205 78.3018 169.891 78.3018 168.399C78.3018 166.884 78.1065 165.558 77.7159 164.422C77.3371 163.286 76.7867 162.398 76.0646 161.759C75.3426 161.119 74.4607 160.8 73.419 160.8C72.3419 160.8 71.4304 161.119 70.6847 161.759C69.9508 162.398 69.3885 163.286 68.9979 164.422C68.6191 165.558 68.4297 166.884 68.4297 168.399C68.4297 169.891 68.6191 171.205 68.9979 172.341C69.3885 173.477 69.9508 174.365 70.6847 175.004C71.4304 175.643 72.3419 175.963 73.419 175.963ZM106.986 154.727V161.119H89.7809V154.727H106.986ZM93.3853 148.193H102.068V173.424C102.068 173.957 102.151 174.389 102.316 174.72C102.494 175.04 102.748 175.271 103.08 175.413C103.411 175.543 103.808 175.608 104.27 175.608C104.601 175.608 104.95 175.578 105.317 175.519C105.696 175.448 105.98 175.389 106.169 175.342L107.483 181.609C107.069 181.728 106.483 181.876 105.725 182.053C104.98 182.231 104.086 182.343 103.044 182.391C101.008 182.485 99.2624 182.249 97.8065 181.68C96.3623 181.1 95.2556 180.201 94.4862 178.982C93.7286 177.762 93.3616 176.229 93.3853 174.383V148.193ZM123.854 182.515C120.989 182.515 118.527 181.929 116.468 180.757C114.42 179.573 112.84 177.928 111.727 175.821C110.626 173.702 110.076 171.246 110.076 168.452C110.076 165.647 110.626 163.191 111.727 161.084C112.84 158.965 114.42 157.32 116.468 156.148C118.527 154.964 120.989 154.372 123.854 154.372C126.719 154.372 129.175 154.964 131.223 156.148C133.282 157.32 134.863 158.965 135.963 161.084C137.076 163.191 137.632 165.647 137.632 168.452C137.632 171.246 137.076 173.702 135.963 175.821C134.863 177.928 133.282 179.573 131.223 180.757C129.175 181.929 126.719 182.515 123.854 182.515ZM123.907 175.963C124.949 175.963 125.831 175.643 126.553 175.004C127.275 174.365 127.825 173.477 128.204 172.341C128.595 171.205 128.79 169.891 128.79 168.399C128.79 166.884 128.595 165.558 128.204 164.422C127.825 163.286 127.275 162.398 126.553 161.759C125.831 161.119 124.949 160.8 123.907 160.8C122.83 160.8 121.919 161.119 121.173 161.759C120.439 162.398 119.877 163.286 119.486 164.422C119.107 165.558 118.918 166.884 118.918 168.399C118.918 169.891 119.107 171.205 119.486 172.341C119.877 173.477 120.439 174.365 121.173 175.004C121.919 175.643 122.83 175.963 123.907 175.963ZM157.474 154.727V161.119H140.269V154.727H157.474ZM143.874 148.193H152.556V173.424C152.556 173.957 152.639 174.389 152.805 174.72C152.982 175.04 153.237 175.271 153.568 175.413C153.9 175.543 154.296 175.608 154.758 175.608C155.089 175.608 155.438 175.578 155.805 175.519C156.184 175.448 156.468 175.389 156.658 175.342L157.972 181.609C157.557 181.728 156.971 181.876 156.214 182.053C155.468 182.231 154.574 182.343 153.533 182.391C151.497 182.485 149.751 182.249 148.295 181.68C146.851 181.1 145.744 180.201 144.974 178.982C144.217 177.762 143.85 176.229 143.874 174.383V148.193ZM161.904 182V154.727H170.587V182H161.904ZM166.255 151.549C165.035 151.549 163.988 151.147 163.112 150.342C162.236 149.525 161.798 148.542 161.798 147.394C161.798 146.258 162.236 145.287 163.112 144.482C163.988 143.665 165.035 143.257 166.255 143.257C167.486 143.257 168.533 143.665 169.397 144.482C170.273 145.287 170.711 146.258 170.711 147.394C170.711 148.542 170.273 149.525 169.397 150.342C168.533 151.147 167.486 151.549 166.255 151.549ZM176.113 182V154.727H184.37V159.734H184.672C185.24 158.077 186.199 156.769 187.548 155.81C188.898 154.852 190.507 154.372 192.378 154.372C194.272 154.372 195.893 154.857 197.243 155.828C198.592 156.799 199.45 158.101 199.817 159.734H200.101C200.61 158.113 201.605 156.817 203.084 155.846C204.564 154.863 206.31 154.372 208.322 154.372C210.903 154.372 212.998 155.201 214.608 156.858C216.218 158.503 217.023 160.764 217.023 163.641V182H208.34V165.629C208.34 164.268 207.991 163.232 207.292 162.522C206.594 161.8 205.689 161.439 204.576 161.439C203.38 161.439 202.439 161.83 201.753 162.611C201.078 163.38 200.741 164.416 200.741 165.718V182H192.395V165.54C192.395 164.274 192.052 163.274 191.366 162.54C190.679 161.806 189.773 161.439 188.649 161.439C187.891 161.439 187.223 161.622 186.643 161.989C186.063 162.344 185.607 162.853 185.275 163.516C184.956 164.179 184.796 164.96 184.796 165.86V182H176.113ZM235.151 182.515C232.298 182.515 229.836 181.953 227.765 180.828C225.705 179.692 224.119 178.076 223.006 175.981C221.905 173.874 221.355 171.37 221.355 168.47C221.355 165.653 221.911 163.191 223.024 161.084C224.137 158.965 225.705 157.32 227.729 156.148C229.753 154.964 232.139 154.372 234.885 154.372C236.826 154.372 238.602 154.674 240.211 155.278C241.821 155.881 243.212 156.775 244.384 157.959C245.556 159.143 246.467 160.604 247.118 162.344C247.769 164.073 248.095 166.055 248.095 168.293V170.459H224.391V165.416H240.016C240.004 164.493 239.785 163.67 239.359 162.948C238.933 162.226 238.347 161.664 237.601 161.261C236.867 160.847 236.021 160.64 235.062 160.64C234.092 160.64 233.222 160.859 232.452 161.297C231.683 161.723 231.073 162.309 230.623 163.055C230.174 163.789 229.937 164.623 229.913 165.558V170.69C229.913 171.802 230.132 172.779 230.57 173.619C231.008 174.448 231.63 175.093 232.434 175.555C233.239 176.016 234.198 176.247 235.311 176.247C236.08 176.247 236.779 176.141 237.406 175.928C238.033 175.714 238.572 175.401 239.022 174.987C239.472 174.572 239.809 174.063 240.034 173.46L248.006 173.69C247.675 175.478 246.947 177.034 245.822 178.36C244.71 179.674 243.248 180.698 241.437 181.432C239.626 182.154 237.53 182.515 235.151 182.515ZM252.529 182V154.727H260.963V159.699H261.248C261.745 157.9 262.556 156.562 263.68 155.686C264.805 154.798 266.113 154.354 267.604 154.354C268.007 154.354 268.421 154.384 268.847 154.443C269.273 154.491 269.67 154.567 270.037 154.674V162.22C269.622 162.078 269.078 161.966 268.403 161.883C267.74 161.8 267.148 161.759 266.627 161.759C265.598 161.759 264.668 161.989 263.84 162.451C263.023 162.901 262.378 163.534 261.904 164.351C261.443 165.156 261.212 166.103 261.212 167.192V182H252.529Z" fill="#374151"/>
<g clip-path="url(#clip0_5_2)">
<path d="M142.625 93.2083L149.5 100.083L167.833 81.75" stroke="white" stroke-width="5" stroke-linecap="round" stroke-linejoin="round"/>
<path d="M167.833 95.5V109.25C167.833 110.466 167.35 111.631 166.491 112.491C165.631 113.35 164.466 113.833 163.25 113.833H135.75C134.534 113.833 133.369 113.35 132.509 112.491C131.65 111.631 131.167 110.466 131.167 109.25V81.75C131.167 80.5344 131.65 79.3686 132.509 78.5091C133.369 77.6496 134.534 77.1667 135.75 77.1667H156.375" stroke="#F5F5F5" stroke-width="5" stroke-linecap="round" stroke-linejoin="round"/>
</g>
<defs>
<linearGradient id="paint0_linear_5_2" x1="2.23517e-06" y1="125" x2="300" y2="125" gradientUnits="userSpaceOnUse">
<stop stop-color="#63A4FF"/>
<stop offset="1" stop-color="#83EAF1"/>
</linearGradient>
<clipPath id="clip0_5_2">
<rect width="55" height="55" fill="white" transform="translate(122 68)"/>
</clipPath>
</defs>
</svg>
