<svg width="700" height="440" viewBox="0 0 700 440" fill="none" xmlns="http://www.w3.org/2000/svg">
<rect width="700" height="440" fill="#F7F7F9"/>
<path d="M196.255 222.218H106.981C102.572 222.218 99 218.644 99 214.237V147.843C99 143.434 102.572 139.862 106.981 139.862H196.255C200.664 139.862 204.236 143.436 204.236 147.843V214.237C204.236 218.644 200.664 222.218 196.255 222.218Z" fill="#FFB600"/>
<path d="M174.456 176.229H171.151C170.645 174.423 169.896 172.712 168.922 171.145L171.472 168.595C172.444 167.623 172.444 166.048 171.472 165.075L167.883 161.487C166.91 160.514 165.335 160.514 164.363 161.487L161.653 164.196C160.156 163.354 158.551 162.691 156.856 162.263V158.2C156.856 156.825 155.741 155.713 154.368 155.713H149.294C147.919 155.713 146.807 156.827 146.807 158.2V162.309C145.162 162.733 143.603 163.356 142.15 164.158L139.175 161.184C138.203 160.212 136.628 160.212 135.655 161.184L132.067 164.773C131.094 165.746 131.094 167.321 132.067 168.293L134.82 171.047C133.9 172.512 133.175 174.111 132.655 175.8H128.78C127.405 175.8 126.293 176.915 126.293 178.288V183.362C126.293 184.736 127.407 185.849 128.78 185.849H132.175C132.557 187.725 133.201 189.512 134.082 191.163L131.764 193.48C130.792 194.453 130.792 196.028 131.764 196.999L135.353 200.587C136.326 201.56 137.901 201.56 138.873 200.587L140.889 198.572C142.568 199.667 144.417 200.509 146.38 201.056V203.872C146.38 205.247 147.495 206.359 148.868 206.359H153.942C155.317 206.359 156.429 205.245 156.429 203.872V201.244C158.463 200.765 160.378 199.991 162.121 198.948L164.06 200.888C165.033 201.86 166.608 201.86 167.581 200.888L171.169 197.299C172.142 196.326 172.142 194.751 171.169 193.781L169.178 191.789C170.165 190.092 170.909 188.241 171.365 186.274H174.456C175.831 186.274 176.943 185.159 176.943 183.786V178.712C176.943 177.343 175.831 176.229 174.456 176.229ZM154.33 194.273C145.318 195.978 137.574 188.235 139.28 179.223C140.232 174.187 144.291 170.129 149.326 169.176C158.339 167.471 166.082 175.214 164.377 184.226C163.424 189.262 159.365 193.322 154.33 194.273Z" fill="white"/>
<path d="M330.659 176.723H241.386C236.979 176.723 233.404 173.151 233.404 168.742V102.35C233.404 97.9434 236.979 94.3689 241.386 94.3689H330.659C335.068 94.3689 338.64 97.9434 338.64 102.35V168.742C338.64 173.151 335.066 176.723 330.659 176.723Z" fill="#FF8904"/>
<path d="M268.252 149.388C267.623 149.388 266.995 149.132 266.515 148.618L255.423 136.748C254.462 135.721 254.462 134.056 255.423 133.029L266.703 120.959C267.663 119.932 269.218 119.932 270.177 120.959C271.138 121.985 271.138 123.651 270.177 124.677L260.635 134.888L269.989 144.901C270.95 145.928 270.95 147.593 269.989 148.62C269.509 149.13 268.88 149.388 268.252 149.388Z" fill="white"/>
<path d="M303.788 149.388C303.16 149.388 302.531 149.132 302.051 148.618C301.09 147.591 301.09 145.926 302.051 144.899L311.407 134.887L301.863 124.676C300.902 123.649 300.902 121.984 301.863 120.957C302.821 119.93 304.376 119.93 305.337 120.957L316.619 133.027C317.079 133.52 317.339 134.188 317.339 134.887C317.339 135.585 317.081 136.254 316.619 136.746L305.525 148.616C305.045 149.13 304.416 149.388 303.788 149.388Z" fill="white"/>
<path d="M280.514 152.648C280.208 152.648 279.894 152.586 279.59 152.452C278.333 151.906 277.728 150.371 278.239 149.026L289.248 120.08C289.761 118.737 291.186 118.085 292.45 118.635C293.707 119.182 294.312 120.717 293.801 122.062L282.792 151.007C282.404 152.03 281.485 152.648 280.514 152.648Z" fill="white"/>
<path d="M411.246 192.548H189.738V185.749C189.738 183.914 191.225 182.427 193.058 182.427H407.921C409.757 182.427 411.244 183.914 411.244 185.749L411.246 192.548Z" fill="white"/>
<path d="M405.059 310.641H195.924C192.508 310.641 189.74 307.871 189.74 304.457V192.55H411.246V304.457C411.246 307.871 408.476 310.641 405.059 310.641Z" fill="#FFEDD4"/>
<path d="M400.612 187.488C400.612 188.349 399.916 189.046 399.055 189.046C398.195 189.046 397.498 188.349 397.498 187.488C397.498 186.628 398.195 185.931 399.055 185.931C399.916 185.931 400.612 186.628 400.612 187.488Z" fill="#FF8904"/>
<path d="M389.909 187.488C389.909 188.349 389.213 189.046 388.352 189.046C387.491 189.046 386.795 188.349 386.795 187.488C386.795 186.628 387.491 185.931 388.352 185.931C389.213 185.931 389.909 186.628 389.909 187.488Z" fill="#FF8904"/>
<path d="M379.204 187.488C379.204 188.349 378.507 189.046 377.647 189.046C376.786 189.046 376.089 188.349 376.089 187.488C376.089 186.628 376.786 185.931 377.647 185.931C378.507 185.931 379.204 186.628 379.204 187.488Z" fill="#FF8904"/>
<path d="M324.224 208.507H201.222C200.039 208.507 199.081 207.548 199.081 206.366C199.081 205.183 200.039 204.224 201.222 204.224H324.224C325.407 204.224 326.366 205.183 326.366 206.366C326.364 207.548 325.405 208.507 324.224 208.507Z" fill="#FFB600"/>
<path d="M324.224 222.132H201.222C200.039 222.132 199.081 221.173 199.081 219.991C199.081 218.808 200.039 217.849 201.222 217.849H324.224C325.407 217.849 326.366 218.808 326.366 219.991C326.364 221.173 325.405 222.132 324.224 222.132Z" fill="#FFB600"/>
<path d="M265.544 235.755H201.222C200.039 235.755 199.081 234.797 199.081 233.614C199.081 232.431 200.039 231.472 201.222 231.472H265.544C266.727 231.472 267.685 232.431 267.685 233.614C267.685 234.797 266.727 235.755 265.544 235.755Z" fill="#FFB600"/>
<path d="M324.224 263.002H201.222C200.039 263.002 199.081 262.043 199.081 260.86C199.081 259.678 200.039 258.719 201.222 258.719H324.224C325.407 258.719 326.366 259.678 326.366 260.86C326.364 262.043 325.405 263.002 324.224 263.002Z" fill="#FF8904"/>
<path d="M265.544 276.625H201.222C200.039 276.625 199.081 275.667 199.081 274.484C199.081 273.301 200.039 272.343 201.222 272.343H265.544C266.727 272.343 267.685 273.301 267.685 274.484C267.685 275.667 266.727 276.625 265.544 276.625Z" fill="#FF8904"/>
<path d="M265.544 290.249H201.222C200.039 290.249 199.081 289.29 199.081 288.107C199.081 286.924 200.039 285.966 201.222 285.966H265.544C266.727 285.966 267.685 286.924 267.685 288.107C267.685 289.29 266.727 290.249 265.544 290.249Z" fill="#FFB600"/>
<path d="M324.224 235.755H278C276.818 235.755 275.859 234.797 275.859 233.614C275.859 232.431 276.818 231.472 278 231.472H324.224C325.407 231.472 326.365 232.431 326.365 233.614C326.363 234.797 325.405 235.755 324.224 235.755Z" fill="white"/>
<path d="M385.28 205.163L352.595 237.847C351.759 238.683 350.404 238.683 349.567 237.847C348.731 237.01 348.731 235.655 349.567 234.819L382.252 202.135C383.088 201.298 384.443 201.298 385.28 202.135C386.116 202.971 386.116 204.326 385.28 205.163Z" fill="#FF8904"/>
<path d="M386.162 271.45C388.618 261.093 382.213 250.707 371.856 248.251C361.499 245.795 351.112 252.201 348.657 262.558C346.201 272.914 352.606 283.301 362.963 285.757C373.32 288.212 383.707 281.807 386.162 271.45Z" fill="#FF8904"/>
<path d="M364.902 280.424C364.902 286.45 360.016 291.335 353.99 291.335C347.964 291.335 343.079 286.45 343.079 280.424C343.079 274.398 347.964 269.512 353.99 269.512C360.018 269.512 364.902 274.398 364.902 280.424Z" fill="#FFB600"/>
<path d="M189.738 298.69V337.657L225.553 301.843" fill="#FFEDD4"/>
<path d="M151.618 348.192H230.196L258.611 402.881H180.033L151.618 348.192Z" fill="#FFB86A"/>
<path d="M181.622 398.837L158.094 353.554C157.6 352.605 158.291 351.47 159.359 351.47H227.338C227.87 351.47 228.358 351.766 228.603 352.239L252.131 397.522C252.625 398.47 251.935 399.605 250.866 399.605H182.887C182.357 399.605 181.869 399.309 181.622 398.837Z" fill="white"/>
<path d="M243.675 402.882H180.033V410.183H243.675V402.882Z" fill="#FFEDD4"/>
<path d="M298.35 402.882H235.549C233.534 402.882 231.899 404.515 231.899 406.532C231.899 408.547 233.534 410.183 235.549 410.183H298.35C300.366 410.183 302.001 408.549 302.001 406.532C302.001 404.517 300.366 402.882 298.35 402.882Z" fill="#FFEDD4"/>
<path d="M180.033 402.881L151.618 348.192L150.195 349.261C149.274 349.951 148.992 351.206 149.529 352.225L180.035 410.182V402.881H180.033Z" fill="#FFEDD4"/>
<path d="M208.643 406.288H201.636V407.502H208.643V406.288Z" fill="#FF8503"/>
<path d="M217.449 406.288H210.442V407.502H217.449V406.288Z" fill="#FF8503"/>
<path d="M226.255 406.288H219.248V407.502H226.255V406.288Z" fill="#FF8503"/>
<path d="M280.13 51.5329C283.47 51.5329 284.259 49.2853 284.259 47.282C284.259 45.5208 284.077 43.8196 283.894 42.1204C283.712 40.2992 283.53 38.6581 283.53 36.7748C283.53 31.309 286.871 29.0015 291.183 29.0015H291.912V32.1596H291.001C288.45 32.1596 287.417 33.9829 287.417 36.7147C287.417 38.3559 287.601 39.8729 287.781 41.3319C287.903 42.911 288.083 44.368 288.083 45.827C288.143 50.5642 286.504 52.2033 283.892 52.9338V53.0559C286.504 53.8464 288.143 55.4856 288.083 60.2828C288.083 61.8019 287.901 63.3189 287.781 64.838C287.599 66.357 287.417 67.8761 287.417 69.5152C287.417 72.249 288.328 74.1303 291.061 74.1303H291.912V77.2885H291.121C287.113 77.2885 283.53 75.2851 283.53 69.5152C283.53 67.6939 283.714 65.8707 283.894 64.1095C284.077 62.3483 284.259 60.5871 284.259 58.8859C284.259 56.9426 283.468 54.573 280.13 54.573V51.5329Z" fill="#FFEDD4"/>
<path d="M342.046 54.5715C338.706 54.5715 337.917 56.9411 337.917 58.8844C337.917 60.5856 338.099 62.3468 338.282 64.108C338.464 65.8692 338.646 67.6904 338.646 69.5137C338.646 75.2836 335.061 77.287 331.055 77.287H330.264V74.1289H331.115C333.849 73.8247 334.759 72.2456 334.759 69.5137C334.759 67.8746 334.577 66.3555 334.455 64.8365C334.273 63.3175 334.091 61.8004 334.091 60.2814C334.031 55.4841 335.67 53.843 338.282 53.0544V52.9324C335.67 52.2039 334.031 50.5647 334.091 45.8255C334.091 44.3685 334.273 42.9095 334.455 41.3304C334.577 39.8734 334.759 38.3544 334.759 36.7133C334.759 33.9814 333.724 32.4624 331.175 32.1582H330.264V29H330.993C335.304 29 338.646 31.3076 338.646 36.7733C338.646 38.6546 338.464 40.2957 338.282 42.119C338.099 43.8201 337.917 45.5193 337.917 47.2805C337.917 49.2839 338.708 51.5314 342.046 51.5314V54.5715Z" fill="#FFEDD4"/>
<path d="M321.206 58.9864V47.3024L311.087 41.4604L300.97 47.3024V58.9864L311.087 64.8264L321.206 58.9864Z" fill="#FF8904"/>
<path d="M397.33 117.198C387.822 112.463 376.382 114.332 368.865 121.85C359.586 131.128 359.278 146 367.884 155.685L364.175 155.244C363.727 155.19 363.319 155.511 363.265 155.961C363.211 156.411 363.533 156.817 363.981 156.872L369.631 157.542C369.855 157.57 370.069 157.502 370.235 157.372C370.4 157.242 370.516 157.05 370.542 156.825L371.192 151.36C371.246 150.909 370.926 150.503 370.476 150.449C370.025 150.395 369.619 150.717 369.565 151.166L369.151 154.646C361.069 145.606 361.343 131.686 370.021 123.006C377.038 115.99 387.719 114.242 396.598 118.661C397.002 118.865 397.494 118.697 397.696 118.293C397.9 117.891 397.734 117.4 397.33 117.198Z" fill="#FF8904"/>
<path d="M376.065 162.527C385.574 167.263 397.014 165.393 404.531 157.876C413.809 148.598 414.119 133.726 405.511 124.041L409.22 124.481C409.67 124.535 410.077 124.213 410.131 123.765C410.185 123.315 409.862 122.908 409.414 122.854L403.764 122.182C403.54 122.156 403.326 122.222 403.162 122.352C402.998 122.482 402.882 122.674 402.856 122.898L402.205 128.364C402.151 128.812 402.471 129.221 402.922 129.275C403.372 129.329 403.778 129.009 403.832 128.558L404.247 125.078C412.328 134.12 412.054 148.038 403.376 156.717C396.359 163.734 385.678 165.481 376.8 161.062C376.396 160.858 375.903 161.026 375.701 161.431C375.495 161.835 375.661 162.325 376.065 162.527Z" fill="#FF8904"/>
<path d="M595.137 208.507H446.89C444.188 208.507 441.996 206.315 441.996 203.614C441.996 200.912 444.186 198.72 446.89 198.72H595.137C597.839 198.72 600.03 200.91 600.03 203.614C600.028 206.317 597.839 208.507 595.137 208.507Z" fill="#FF8904"/>
<path d="M542.199 229.775H446.888C444.186 229.775 441.995 227.584 441.995 224.882C441.995 222.18 444.184 219.989 446.888 219.989H542.199C544.901 219.989 547.092 222.178 547.092 224.882C547.092 227.586 544.901 229.775 542.199 229.775Z" fill="#FFB600"/>
<path d="M542.199 252.611H446.888C444.186 252.611 441.995 250.421 441.995 247.718C441.995 245.016 444.184 242.824 446.888 242.824H542.199C544.901 242.824 547.092 245.014 547.092 247.718C547.092 250.419 544.901 252.611 542.199 252.611Z" fill="#FFB600"/>
<path d="M225.958 77.6011H148.952C146.25 77.6011 144.058 75.4097 144.058 72.7078C144.058 70.006 146.248 67.8145 148.952 67.8145H225.958C228.66 67.8145 230.852 70.004 230.852 72.7078C230.85 75.4117 228.66 77.6011 225.958 77.6011Z" fill="#FFB600"/>
<path d="M196.885 98.8695H148.952C146.25 98.8695 144.058 96.678 144.058 93.9761C144.058 91.2743 146.248 89.0828 148.952 89.0828H196.885C199.586 89.0828 201.778 91.2723 201.778 93.9761C201.778 96.68 199.586 98.8695 196.885 98.8695Z" fill="#FF8904"/>
<path d="M196.885 121.705H148.952C146.25 121.705 144.058 119.514 144.058 116.812C144.058 114.11 146.248 111.919 148.952 111.919H196.885C199.586 111.919 201.778 114.108 201.778 116.812C201.778 119.514 199.586 121.705 196.885 121.705Z" fill="#FF8904"/>
</svg>
