<svg width="700" height="440" viewBox="0 0 700 440" fill="none" xmlns="http://www.w3.org/2000/svg">
<rect width="700" height="440" fill="#F7F7F9"/>
<path d="M548.061 382.094H234.844C230.646 382.094 227.211 378.659 227.211 374.461V164.334C227.211 160.136 230.646 156.701 234.844 156.701H548.061C552.259 156.701 555.694 160.136 555.694 164.334V374.461C555.694 378.659 552.259 382.094 548.061 382.094Z" fill="#FF8904"/>
<path d="M536.936 374.461H245.968C241.77 374.461 238.335 371.026 238.335 366.828V171.967C238.335 167.769 241.77 164.334 245.968 164.334H536.936C541.134 164.334 544.569 167.769 544.569 171.967V366.828C544.57 371.026 541.135 374.461 536.936 374.461Z" fill="#FFF7ED"/>
<path d="M326.368 185.579H286.124V190.043H326.368V185.579Z" fill="#101828"/>
<path d="M311.766 195.579H286.124V200.043H311.766V195.579Z" fill="#101828"/>
<path d="M429.24 195.579H326.124V200.043H429.24V195.579Z" fill="#101828"/>
<path d="M493.24 195.579H439.24V200.043H493.24V195.579Z" fill="#FC6454"/>
<path d="M361.24 205.579H296.124V210.043H361.24V205.579Z" fill="#58D05B"/>
<path d="M478.258 205.579H381.24V210.043H478.258V205.579Z" fill="#101828"/>
<path d="M377.682 215.579H286.124V220.043H377.682V215.579Z" fill="#FC6454"/>
<path d="M451.24 215.579H386.124V220.043H451.24V215.579Z" fill="#FF8904"/>
<path d="M361.24 225.579H296.124V230.043H361.24V225.579Z" fill="#101828"/>
<path d="M381.24 235.579H286.124V240.043H381.24V235.579Z" fill="#101828"/>
<path d="M351.24 245.579H286.124V250.043H351.24V245.579Z" fill="#101828"/>
<path d="M414.742 255.579H306.124V260.043H414.742V255.579Z" fill="#FC6454"/>
<path d="M461.24 255.579H426.124V260.043H461.24V255.579Z" fill="#101828"/>
<path d="M511.24 255.579H476.124V260.043H511.24V255.579Z" fill="#101828"/>
<path d="M360.433 265.579H316.124V270.043H360.433V265.579Z" fill="#101828"/>
<path d="M375.233 275.579H316.124V280.043H375.233V275.579Z" fill="#FC6454"/>
<path d="M461.24 275.579H396.124V280.043H461.24V275.579Z" fill="#101828"/>
<path d="M503.24 275.579H476.124V280.043H503.24V275.579Z" fill="#FC6454"/>
<path d="M326.124 285.579H286.124V290.043H326.124V285.579Z" fill="#101828"/>
<path d="M351.24 295.579H286.124V300.043H351.24V295.579Z" fill="#101828"/>
<path d="M434.24 305.579H316.124V310.043H434.24V305.579Z" fill="#101828"/>
<path d="M519.24 305.579H446.124V310.043H519.24V305.579Z" fill="#FF8904"/>
<path d="M356.24 315.579H316.124V320.043H356.24V315.579Z" fill="#101828"/>
<path d="M406.24 315.579H366.124V320.043H406.24V315.579Z" fill="#58D05B"/>
<path d="M456.24 315.579H416.124V320.043H456.24V315.579Z" fill="#101828"/>
<path d="M351.24 325.579H286.124V330.043H351.24V325.579Z" fill="#101828"/>
<path d="M371.24 335.579H306.124V340.043H371.24V335.579Z" fill="#58D05B"/>
<path d="M448.682 335.579H383.566V340.043H448.682V335.579Z" fill="#58D05B"/>
<path d="M418.682 355.579H382.184V360.043H418.682V355.579Z" fill="#101828"/>
<path d="M402.709 345.579H306.124V350.043H402.709V345.579Z" fill="#101828"/>
<path d="M260.941 185.579H256.477V190.043H260.941V185.579Z" fill="#7194BF"/>
<path d="M260.941 195.579H256.477V200.043H260.941V195.579Z" fill="#7194BF"/>
<path d="M260.941 205.579H256.477V210.043H260.941V205.579Z" fill="#7194BF"/>
<path d="M260.941 215.579H256.477V220.043H260.941V215.579Z" fill="#7194BF"/>
<path d="M260.941 225.579H256.477V230.043H260.941V225.579Z" fill="#7194BF"/>
<path d="M260.941 235.579H256.477V240.043H260.941V235.579Z" fill="#7194BF"/>
<path d="M260.941 245.579H256.477V250.043H260.941V245.579Z" fill="#7194BF"/>
<path d="M260.941 255.579H256.477V260.043H260.941V255.579Z" fill="#7194BF"/>
<path d="M260.941 265.579H256.477V270.043H260.941V265.579Z" fill="#7194BF"/>
<path d="M260.941 275.579H256.477V280.043H260.941V275.579Z" fill="#7194BF"/>
<path d="M260.941 285.579H256.477V290.043H260.941V285.579Z" fill="#7194BF"/>
<path d="M260.941 295.579H256.477V300.043H260.941V295.579Z" fill="#7194BF"/>
<path d="M260.941 305.579H256.477V310.043H260.941V305.579Z" fill="#7194BF"/>
<path d="M260.941 315.579H256.477V320.043H260.941V315.579Z" fill="#7194BF"/>
<path d="M260.941 325.579H256.477V330.043H260.941V325.579Z" fill="#7194BF"/>
<path d="M260.941 335.579H256.477V340.043H260.941V335.579Z" fill="#7194BF"/>
<path d="M260.941 345.579H256.477V350.043H260.941V345.579Z" fill="#7194BF"/>
<path d="M260.941 355.579H256.477V360.043H260.941V355.579Z" fill="#7194BF"/>
<path d="M354.416 355.579H306.124V360.043H354.416V355.579Z" fill="#101828"/>
<path d="M495.456 359.952L476.46 351.884V348.594L495.456 340.526V344.031L480.377 350.238L495.456 356.446V359.952Z" fill="#101828"/>
<path d="M508.812 335.688L500.508 364.398H497.668L505.972 335.688H508.812Z" fill="#101828"/>
<path d="M530.02 351.884L511.024 359.952V356.446L526.103 350.238L511.024 344.031V340.526L530.02 348.594V351.884Z" fill="#101828"/>
<path d="M547.697 390.43H230.708C219.664 390.43 210.712 381.477 210.712 370.434H567.694C567.694 381.477 558.741 390.43 547.697 390.43Z" fill="#FF6900"/>
<g opacity="0.1">
<path d="M340.116 374.461L414.742 164.334H386.392L311.767 374.461H340.116Z" fill="white"/>
<path d="M245.968 374.461H259.287L333.913 164.334H245.968C241.77 164.334 238.335 167.769 238.335 171.967V366.828C238.335 371.026 241.77 374.461 245.968 374.461Z" fill="white"/>
<path d="M498.267 374.461H536.936C541.134 374.461 544.569 371.026 544.569 366.828V244.084L498.267 374.461Z" fill="white"/>
</g>
<g opacity="0.1">
<path d="M394.996 374.461H446.896L521.521 164.334H469.621L394.996 374.461Z" fill="white"/>
</g>
<path d="M564.997 380.431C566.702 377.487 567.694 374.079 567.694 370.433H210.711C210.711 374.079 211.703 377.488 213.408 380.431H564.997Z" fill="#FF8904"/>
<path d="M205.571 278.861H144.424V296.762H205.571V278.861Z" fill="#FFB600"/>
<path d="M205.571 282.884H144.424V296.761H205.571V282.884Z" fill="#FFEDD4"/>
<path d="M196.099 270.571H177.156V282.884H196.099V270.571Z" fill="#FFB600"/>
<path d="M200.571 390.917H149.424L139.424 295.579H210.571L200.571 390.917Z" fill="#FFF7ED"/>
<path d="M200.571 390.917H149.424L139.424 295.579L149.981 339.512C156.031 364.689 175.493 384.465 200.571 390.917Z" fill="#F4EDCB"/>
<path d="M216.996 293.53H133V299.514H216.996V293.53Z" fill="#FFEDD4"/>
<path d="M216.996 285.579H133V296.522H216.996V285.579Z" fill="#FFB600"/>
<path d="M202.929 368.433L208.473 315.579H141.522L147.066 368.433H202.929Z" fill="#FFD6A8"/>
<path d="M194.343 354.621C202.041 347.288 202.337 335.104 195.005 327.406C187.673 319.709 175.488 319.412 167.791 326.744C160.093 334.076 159.796 346.261 167.128 353.958C174.461 361.656 186.645 361.953 194.343 354.621Z" fill="#FF8904"/>
<path d="M141.522 315.579L147.066 368.433H202.93L171.99 362.923C162.038 361.151 153.879 354.024 150.786 344.4L141.522 315.579Z" fill="#FF8904"/>
<path d="M262.342 132.902H186.997C180.397 132.902 174.997 127.502 174.997 120.902V62C174.997 55.4 180.397 50 186.997 50H262.342C268.942 50 274.342 55.4 274.342 62V120.902C274.342 127.503 268.942 132.902 262.342 132.902Z" fill="#FFD6A8"/>
<path d="M266.61 114.778L270.644 151.027L242.31 126.3L266.61 114.778Z" fill="#FFD6A8"/>
</svg>
