<svg width="700" height="440" viewBox="0 0 700 440" fill="none" xmlns="http://www.w3.org/2000/svg">
<path opacity="0.3" d="M377.666 219.519H271.867C268.435 219.519 265.652 222.302 265.652 225.734V269.814C265.652 273.247 268.435 276.03 271.867 276.03H282.854C282.216 280.882 281.382 287.843 281.839 287.843C282.327 287.843 287.659 280.52 290.882 276.03H377.666C381.099 276.03 383.881 273.247 383.881 269.814V225.734C383.882 222.302 381.099 219.519 377.666 219.519Z" fill="#DAEEF7"/>
<path d="M382.723 207.802H276.925C273.492 207.802 270.709 210.584 270.709 214.017V258.097C270.709 261.53 273.492 264.313 276.925 264.313H287.911C287.274 269.165 286.439 276.126 286.897 276.126C287.384 276.126 292.716 268.803 295.939 264.313H382.723C386.156 264.313 388.939 261.53 388.939 258.097V214.017C388.939 210.584 386.156 207.802 382.723 207.802Z" fill="#FEB546"/>
<path d="M302.208 247.231C308.293 241.146 308.293 231.28 302.208 225.195C296.123 219.11 286.257 219.11 280.172 225.195C274.087 231.28 274.087 241.146 280.172 247.231C286.257 253.316 296.123 253.316 302.208 247.231Z" fill="white"/>
<path d="M293.659 244.065H289.083V248.634H293.659V244.065Z" fill="#FFC0BB"/>
<path d="M293.659 246.804V244.065H289.083V246.395C290.069 246.924 291.527 247.228 293.659 246.804Z" fill="#F99893"/>
<path d="M300.873 235.889C300.396 235.654 299.841 235.696 299.34 235.949C299.512 231.442 295.83 227.65 291.193 227.811C286.556 227.65 282.874 231.442 283.046 235.949C282.545 235.695 281.991 235.654 281.513 235.889C280.597 236.34 280.313 237.632 280.877 238.775C281.442 239.918 282.642 240.479 283.558 240.028C283.686 239.966 283.799 239.885 283.902 239.793C284.426 243.519 287.54 246.313 291.193 246.261C294.846 246.313 297.96 243.519 298.485 239.793C298.587 239.885 298.701 239.966 298.828 240.028C299.744 240.479 300.944 239.918 301.509 238.775C302.074 237.632 301.789 236.34 300.873 235.889Z" fill="#FFC0BB"/>
<path d="M285.621 226.025C285.621 226.025 287.917 224.081 293.137 224.395C298.356 224.709 299.349 227.433 299.645 231.322L299.34 235.95C299.34 235.95 297.985 234.556 296.22 230.693C296.22 230.693 293.298 233.973 292.025 233.584C290.752 233.196 292.506 230.835 292.506 230.835C292.506 230.835 286.553 235.957 283.046 235.95C283.046 235.95 281.19 229.954 283.795 227.755C283.795 227.755 281.833 227.848 281.729 227.462C281.625 227.077 282.665 226.499 284.551 226.717C284.551 226.717 283.207 224.089 283.958 223.815C284.708 223.542 285.621 226.025 285.621 226.025Z" fill="#FF8C3E"/>
<path d="M294.187 241.213C293.986 242.117 292.951 242.827 291.683 242.866C290.415 242.905 289.339 242.259 289.083 241.369L294.187 241.213Z" fill="white"/>
<path d="M373.542 223.212H312.751C312.413 223.212 312.138 222.937 312.138 222.598V221.118C312.138 220.779 312.413 220.504 312.751 220.504H373.542C373.88 220.504 374.155 220.779 374.155 221.118V222.598C374.155 222.937 373.881 223.212 373.542 223.212Z" fill="white"/>
<path d="M326.17 230.357H312.751C312.413 230.357 312.138 230.082 312.138 229.743V228.263C312.138 227.924 312.413 227.649 312.751 227.649H326.17C326.509 227.649 326.784 227.924 326.784 228.263V229.743C326.784 230.082 326.509 230.357 326.17 230.357Z" fill="white"/>
<path d="M373.542 230.357H332.925C332.586 230.357 332.312 230.082 332.312 229.743V228.263C332.312 227.924 332.586 227.649 332.925 227.649H373.542C373.881 227.649 374.156 227.924 374.156 228.263V229.743C374.156 230.082 373.881 230.357 373.542 230.357Z" fill="white"/>
<path d="M343.562 237.502H312.751C312.413 237.502 312.138 237.227 312.138 236.888V235.408C312.138 235.069 312.413 234.794 312.751 234.794H343.563C343.901 234.794 344.176 235.069 344.176 235.408V236.888C344.176 237.227 343.901 237.502 343.562 237.502Z" fill="white"/>
<path d="M373.542 237.502H349.476C349.137 237.502 348.863 237.227 348.863 236.888V235.408C348.863 235.069 349.137 234.794 349.476 234.794H373.542C373.881 234.794 374.156 235.069 374.156 235.408V236.888C374.156 237.227 373.881 237.502 373.542 237.502Z" fill="white"/>
<path d="M373.542 244.647H312.751C312.413 244.647 312.138 244.372 312.138 244.033V242.553C312.138 242.214 312.413 241.939 312.751 241.939H373.542C373.88 241.939 374.155 242.214 374.155 242.553V244.033C374.155 244.372 373.881 244.647 373.542 244.647Z" fill="white"/>
<path d="M262.232 300.486H380.314C383.936 300.486 387.2 302.676 388.573 306.028L424.73 394.282H490.015C491.841 394.282 493.321 395.762 493.321 397.588C493.321 399.414 491.841 400.894 490.015 400.894H301.533C298.052 400.894 294.895 398.85 293.471 395.673L255.463 310.941C253.261 306.033 256.852 300.486 262.232 300.486Z" fill="#FF8C3E"/>
<path opacity="0.3" d="M301.336 119.454H180.162C175.976 119.454 172.583 122.847 172.583 127.032V177.038C172.583 181.224 175.976 184.617 180.162 184.617H275.562C279.423 190.005 286.424 199.653 287.041 199.653C287.62 199.653 286.506 190.54 285.721 184.617H301.336C305.522 184.617 308.915 181.224 308.915 177.038V127.032C308.915 122.847 305.522 119.454 301.336 119.454Z" fill="#DAEEF7"/>
<path d="M296.334 106.482H175.159C170.974 106.482 167.581 109.875 167.581 114.061V164.067C167.581 168.252 170.974 171.646 175.159 171.646H270.559C274.42 177.033 281.421 186.682 282.039 186.682C282.617 186.682 281.504 177.569 280.718 171.646H296.333C300.519 171.646 303.912 168.253 303.912 164.067V114.061C303.912 109.875 300.519 106.482 296.334 106.482Z" fill="#FF8904"/>
<path d="M200.925 156.599C210.605 152.548 215.168 141.417 211.116 131.737C207.065 122.057 195.934 117.494 186.254 121.546C176.574 125.597 172.012 136.728 176.063 146.408C180.114 156.088 191.245 160.651 200.925 156.599Z" fill="white"/>
<path d="M183.698 139.563C183.698 139.563 181.814 131.832 186.302 128.937C190.79 126.041 195.583 125.379 198.857 127.047C203.397 129.359 205.262 135.608 203.81 139.063L191.76 136.037L183.698 139.563Z" fill="#FF8904"/>
<path d="M196.594 148.637H191.015V154.207H196.594V148.637Z" fill="#FFC0BB"/>
<path d="M196.594 151.976V148.637H191.015V151.478C192.216 152.122 193.995 152.493 196.594 151.976Z" fill="#F99893"/>
<path d="M205.39 138.668C204.808 138.381 204.133 138.432 203.521 138.742C203.731 133.246 199.242 128.623 193.588 128.818C187.934 128.623 183.444 133.246 183.654 138.742C183.043 138.432 182.367 138.381 181.785 138.668C180.669 139.218 180.321 140.793 181.01 142.187C181.699 143.581 183.162 144.265 184.279 143.715C184.434 143.638 184.573 143.541 184.697 143.428C185.337 147.972 189.134 151.378 193.588 151.314C198.042 151.378 201.839 147.972 202.479 143.428C202.603 143.541 202.742 143.638 202.897 143.715C204.014 144.265 205.477 143.581 206.166 142.187C206.854 140.793 206.507 139.218 205.39 138.668Z" fill="#FFC0BB"/>
<path d="M197.238 145.16C196.993 146.261 195.731 147.127 194.185 147.175C192.639 147.222 191.328 146.434 191.015 145.35L197.238 145.16Z" fill="white"/>
<path d="M183.654 138.741C183.654 138.741 190.955 136.529 194.151 132.836C194.151 132.836 193.246 137.286 192.572 137.996C192.785 138.138 199.863 134.696 200.825 131.52C201.787 128.344 193.587 127.202 193.587 127.202C193.587 127.202 190.778 128.398 190.635 128.469C190.494 128.54 187.858 128.847 187.556 129.52C187.162 130.395 185.302 130.472 185.302 130.472L184.127 132.916L183.305 135.488L183.654 138.741Z" fill="#FF8904"/>
<path d="M177.673 128.684C179.286 129.333 181.148 129.634 183.079 129.04C187.34 127.731 189.028 128.239 189.594 128.56C189.935 128.754 190.341 128.83 190.712 128.706C191.133 128.566 191.523 128.186 191.402 127.226C191.402 127.226 191.57 123.177 188.1 120.871C183.771 122.175 180.093 124.981 177.673 128.684Z" fill="#FF8904"/>
<path d="M186.841 128.418L186.84 128.417C186.714 128.251 186.753 128.012 186.927 127.898C187.639 127.43 189.47 126.376 191.668 126.264C191.874 126.253 192.047 126.419 192.047 126.626C192.047 126.818 191.896 126.976 191.704 126.986C189.695 127.09 187.973 128.081 187.324 128.503C187.166 128.606 186.955 128.569 186.841 128.418Z" fill="#FEB546"/>
<path d="M240.996 125.998H217.04C216.627 125.998 216.292 125.663 216.292 125.249V123.445C216.292 123.031 216.627 122.696 217.04 122.696H240.996C241.409 122.696 241.744 123.031 241.744 123.445V125.249C241.744 125.663 241.409 125.998 240.996 125.998Z" fill="white"/>
<path d="M232.736 134.709H217.04C216.627 134.709 216.292 134.374 216.292 133.961V132.155C216.292 131.742 216.627 131.407 217.04 131.407H232.736C233.149 131.407 233.484 131.742 233.484 132.155V133.961C233.484 134.374 233.149 134.709 232.736 134.709Z" fill="white"/>
<path d="M256.857 134.709H237.197C236.783 134.709 236.448 134.374 236.448 133.961V132.155C236.448 131.742 236.784 131.407 237.197 131.407H256.857C257.271 131.407 257.605 131.742 257.605 132.155V133.961C257.605 134.374 257.271 134.709 256.857 134.709Z" fill="white"/>
<path d="M288.343 125.998H246.71C246.296 125.998 245.961 125.663 245.961 125.249V123.445C245.961 123.031 246.296 122.696 246.71 122.696H288.343C288.756 122.696 289.091 123.031 289.091 123.445V125.249C289.091 125.663 288.756 125.998 288.343 125.998Z" fill="white"/>
<path d="M288.343 151.785H217.04C216.627 151.785 216.292 151.45 216.292 151.037V149.232C216.292 148.819 216.627 148.484 217.04 148.484H288.343C288.756 148.484 289.091 148.819 289.091 149.232V151.037C289.091 151.45 288.756 151.785 288.343 151.785Z" fill="white"/>
<path d="M253.152 143.421H217.04C216.627 143.421 216.292 143.086 216.292 142.673V140.868C216.292 140.455 216.627 140.119 217.04 140.119H253.152C253.565 140.119 253.9 140.454 253.9 140.868V142.673C253.9 143.086 253.565 143.421 253.152 143.421Z" fill="white"/>
<path d="M288.343 143.421H260.149C259.736 143.421 259.401 143.086 259.401 142.673V140.868C259.401 140.455 259.736 140.119 260.149 140.119H288.343C288.756 140.119 289.091 140.454 289.091 140.868V142.673C289.091 143.086 288.756 143.421 288.343 143.421Z" fill="white"/>
<path d="M330.248 360.901C334.281 360.051 336.607 354.891 335.444 349.375C334.281 343.859 330.069 340.077 326.037 340.927C322.004 341.777 319.678 346.938 320.841 352.454C322.004 357.969 326.216 361.752 330.248 360.901Z" fill="white"/>
<path d="M288.622 51.9802L291.148 71.0143L277.628 61.1408L236.246 40.0005L268.254 42.9308C268.254 42.9308 284.56 46.8921 285.443 47.6909C286.326 48.4897 288.622 51.9802 288.622 51.9802Z" fill="#FEB546"/>
<path d="M302.795 40.4859L236.246 40L288.622 51.98L302.795 40.4859Z" fill="#FF8904"/>
<path d="M267.229 71.1288L284.666 57.1222L236.246 40L267.229 71.1288Z" fill="#FF8904"/>
<path d="M370.928 154.855L370.05 153.556C371.395 152.647 372.627 151.531 373.713 150.241L374.912 151.25C373.734 152.651 372.393 153.864 370.928 154.855Z" fill="#FEB546"/>
<path d="M379.734 142.082L378.239 141.612C379.146 138.721 379.746 135.439 380.022 131.856L381.584 131.976C381.3 135.677 380.677 139.077 379.734 142.082ZM381.532 121.733L379.972 121.891C379.929 121.461 379.879 121.032 379.822 120.603C379.628 119.145 379.349 117.671 378.992 116.223C378.663 114.889 378.26 113.545 377.794 112.229L379.272 111.706C379.755 113.071 380.173 114.464 380.514 115.848C380.884 117.351 381.175 118.882 381.376 120.396C381.433 120.83 381.486 121.28 381.532 121.733ZM373.493 103.277C371.818 100.54 369.819 97.8477 367.552 95.2733L368.728 94.2377C371.055 96.8793 373.108 99.6453 374.83 102.459L373.493 103.277ZM324.528 99.5697C323.461 99.8328 320.742 99.8928 318.997 98.8525C317.693 98.0751 316.606 96.8535 315.857 95.3205L317.264 94.6317C317.889 95.9089 318.742 96.8762 319.8 97.5065C321.058 98.2566 323.302 98.2579 324.153 98.0479C324.266 98.02 324.31 97.9984 324.31 97.9984C324.376 97.9561 324.455 97.9048 324.533 97.8526L325.403 99.1561C325.314 99.2158 325.224 99.2747 325.132 99.3321C324.979 99.4294 324.78 99.5074 324.528 99.5697ZM360.41 88.2787C357.916 86.1558 355.216 84.1404 352.385 82.2879L353.243 80.9764C356.129 82.8648 358.882 84.9202 361.426 87.085L360.41 88.2787ZM331.05 90.3497L329.516 90.0281C329.718 89.0627 329.822 88.0779 329.825 87.1012C329.828 85.7255 329.652 84.3047 329.3 82.8786C329.109 82.1046 328.863 81.3151 328.569 80.5322L330.036 79.9809C330.352 80.8212 330.616 81.6698 330.822 82.5033C331.204 84.0535 331.396 85.6016 331.392 87.1054C331.389 88.1885 331.274 89.2799 331.05 90.3497ZM317.273 85.527L315.859 84.851C317.279 81.8813 319.947 79.2796 323.18 77.7135L323.396 77.6105L324.063 79.029L323.864 79.1237C320.945 80.5382 318.542 82.8721 317.273 85.527ZM343.273 78.4996C340.431 77.6316 338.175 77.1043 337.082 77.0521C335.829 76.9924 334.683 76.9796 333.58 77.013L333.532 75.4467C334.677 75.412 335.863 75.4253 337.157 75.4868C338.823 75.5661 341.99 76.4695 343.731 77.001L343.273 78.4996ZM323.488 72.1562C321.351 69.6533 318.851 67.478 316.057 65.6913L316.902 64.3708C319.826 66.241 322.443 68.5181 324.68 71.1388L323.488 72.1562Z" fill="#FEB546"/>
<path d="M307.068 61.6768C305.419 61.2235 303.755 60.9095 302.12 60.7436L302.278 59.1843C303.999 59.3588 305.751 59.6892 307.483 60.1657L307.068 61.6768Z" fill="#FEB546"/>
<path d="M235.165 283.276C235.165 283.276 234.588 288.963 230.1 289.356C234.588 289.75 235.165 295.437 235.165 295.437C235.165 295.437 235.742 289.75 240.23 289.356C235.742 288.963 235.165 283.276 235.165 283.276Z" fill="#FF8904"/>
<path d="M404.109 202.208C404.109 202.208 403.191 211.264 396.045 211.89C403.19 212.517 404.109 221.572 404.109 221.572C404.109 221.572 405.027 212.517 412.173 211.89C405.027 211.264 404.109 202.208 404.109 202.208Z" fill="#E29C79"/>
<path d="M157.064 92.8269C157.064 92.8269 156.146 101.882 149 102.509C156.146 103.135 157.064 112.191 157.064 112.191C157.064 112.191 157.983 103.135 165.129 102.509C157.983 101.882 157.064 92.8269 157.064 92.8269Z" fill="#E29C79"/>
<path d="M329.837 168.574C329.837 168.574 329.137 176.597 323.687 177.152C329.137 177.707 329.837 185.73 329.837 185.73C329.837 185.73 330.538 177.707 335.988 177.152C330.538 176.597 329.837 168.574 329.837 168.574Z" fill="#FEB546"/>
<path d="M188.447 51.2793C188.447 51.2793 187.746 59.3025 182.297 59.8575C187.746 60.4124 188.447 68.4356 188.447 68.4356C188.447 68.4356 189.147 60.4124 194.597 59.8575C189.147 59.3025 188.447 51.2793 188.447 51.2793Z" fill="#FEB546"/>
<path d="M483.907 213.798C512.56 213.798 535.788 192.864 535.788 167.042C535.788 141.219 512.56 120.285 483.907 120.285C455.253 120.285 432.025 141.219 432.025 167.042C432.025 192.864 455.253 213.798 483.907 213.798Z" fill="#FFEDD4"/>
<path d="M550 127.179C550 130.553 546.965 133.289 543.221 133.289C539.477 133.289 536.441 130.554 536.441 127.179C536.441 123.805 539.477 121.069 543.221 121.069C546.965 121.069 550 123.805 550 127.179Z" fill="#E6F7FF"/>
<path d="M507.198 159.999C506.099 153.917 501.91 148.976 495.533 148.515C487.532 147.937 484.386 155.16 483.813 155.828C483.444 155.392 481.787 151.106 477.284 149.116C469.914 145.86 460.981 150.907 459.974 161.661C459.451 167.233 461.087 171.467 464.253 175.908C468.799 182.284 476.719 189.165 483.02 193.817C483.254 193.991 483.414 193.99 483.64 193.818C487.025 191.261 498.517 183.357 504.404 174.166C507.194 169.809 508.116 165.082 507.198 159.999Z" fill="#E94235"/>
</svg>
