<svg width="700" height="440" viewBox="0 0 700 440" fill="none" xmlns="http://www.w3.org/2000/svg">
<rect width="700" height="440" fill="#F7F7F9"/>
<path d="M395.235 364.661H259.785V371H395.235V364.661Z" fill="#FF8904"/>
<path d="M494.127 302.441H163.05V131.227C163.05 123.387 169.406 117.03 177.247 117.03H479.929C487.77 117.03 494.127 123.387 494.127 131.227V302.441Z" fill="#FF8904"/>
<path d="M479.989 334.175H177.188C169.38 334.175 163.05 327.845 163.05 320.037V302.441H494.127V320.037C494.127 327.845 487.797 334.175 479.989 334.175Z" fill="#FFB86A"/>
<path d="M481.912 127.733H175.266V290.957V290.958H481.912V127.733Z" fill="#FFF7ED"/>
<path d="M359.52 314.44H298.287V322.11H359.52V314.44Z" fill="#FF8904"/>
<path d="M369.701 364.661H287.476L291.801 334.175H365.376L369.701 364.661Z" fill="#FFD6A8"/>
<path opacity="0.63" d="M356.789 291.062H320.559L221.94 127.051H258.171L356.789 291.062Z" fill="white"/>
<path opacity="0.63" d="M435.262 291.062H399.033L300.414 127.051H336.644L435.262 291.062Z" fill="white"/>
<path d="M434.367 178.045H294.264C289.672 178.045 285.914 181.802 285.914 186.395V256.91C285.914 261.503 289.672 265.26 294.264 265.26H434.367C438.96 265.26 442.717 261.503 442.717 256.91V186.395C442.717 181.802 438.96 178.045 434.367 178.045Z" fill="#FF8503"/>
<path d="M437.382 192.426H291.249V259.694H437.382V192.426Z" fill="#FFD6A8"/>
<path d="M356.53 202.632H297.28V204.951H356.53V202.632Z" fill="white"/>
<path d="M356.53 208.199H297.28V210.518H356.53V208.199Z" fill="white"/>
<path d="M356.53 213.766H297.28V216.086H356.53V213.766Z" fill="white"/>
<path d="M356.53 219.333H297.28V221.652H356.53V219.333Z" fill="white"/>
<path d="M356.53 224.9H297.28V227.219H356.53V224.9Z" fill="white"/>
<path d="M326.206 234.874H297.28V237.193H326.206V234.874Z" fill="white"/>
<path d="M326.206 238.746H297.28V241.065H326.206V238.746Z" fill="white"/>
<path d="M326.206 242.617H297.28V244.937H326.206V242.617Z" fill="white"/>
<path d="M326.206 246.489H297.28V248.808H326.206V246.489Z" fill="white"/>
<path d="M356.531 234.874H327.605V237.193H356.531V234.874Z" fill="white"/>
<path d="M356.531 238.746H327.605V241.065H356.531V238.746Z" fill="white"/>
<path d="M356.531 242.617H327.605V244.937H356.531V242.617Z" fill="white"/>
<path d="M356.531 246.489H327.605V248.808H356.531V246.489Z" fill="white"/>
<path d="M297.28 188.25C298.497 188.25 299.484 187.264 299.484 186.046C299.484 184.829 298.497 183.843 297.28 183.843C296.062 183.843 295.076 184.829 295.076 186.046C295.076 187.264 296.062 188.25 297.28 188.25Z" fill="#FFB600"/>
<path d="M308.878 186.046C308.878 187.263 307.892 188.25 306.674 188.25C305.457 188.25 304.47 187.263 304.47 186.046C304.47 184.83 305.456 183.843 306.674 183.843C307.891 183.844 308.878 184.83 308.878 186.046Z" fill="#FFB600"/>
<path d="M316.069 188.25C317.286 188.25 318.272 187.264 318.272 186.046C318.272 184.829 317.286 183.843 316.069 183.843C314.851 183.843 313.865 184.829 313.865 186.046C313.865 187.264 314.851 188.25 316.069 188.25Z" fill="#FFB600"/>
<path d="M390.527 199.384H369.186V251.343H390.527V199.384Z" fill="#FFB600"/>
<path d="M421.609 200.776H400.27V226.755H421.609V200.776Z" fill="#FFD6A8"/>
<path d="M421.609 230.466H400.27V249.343H421.609V230.466Z" fill="#FFD6A8"/>
<path d="M595.077 215.137H552.457C546.515 215.137 541.697 219.955 541.697 225.897V329.901C541.697 335.844 546.515 340.661 552.457 340.661H595.077C601.02 340.661 605.837 335.844 605.837 329.901V225.897C605.837 219.955 601.02 215.137 595.077 215.137Z" fill="#FF8503"/>
<path d="M603.206 225.66H544.328V328.57H603.206V225.66Z" fill="#FFEDD4"/>
<path d="M581.033 220.399H566.501V221.652H581.033V220.399Z" fill="#FFB86A"/>
<path d="M573.767 338.156C575.952 338.156 577.723 336.384 577.723 334.199C577.723 332.014 575.952 330.242 573.767 330.242C571.581 330.242 569.81 332.014 569.81 334.199C569.81 336.384 571.581 338.156 573.767 338.156Z" fill="#FFB600"/>
<path d="M566.501 245.753H552.688V308.479H566.501V245.753Z" fill="#FFD6A8"/>
<path d="M595.72 251.087H575.857V270.95H595.72V251.087Z" fill="white"/>
<path d="M595.72 282.081H575.857V301.944H595.72V282.081Z" fill="white"/>
<path d="M508.533 256.64H460.785C456.084 256.64 452.238 260.486 452.238 265.187V312.936C452.238 317.637 456.084 321.483 460.785 321.483H508.533C513.235 321.483 517.08 317.637 517.08 312.936V265.187C517.082 260.486 513.235 256.64 508.533 256.64Z" fill="#FF8503"/>
<path d="M511.963 269.516H457.356V314.594H511.963V269.516Z" fill="#FFD6A8"/>
<path d="M491.753 282.344C491.753 286.364 488.493 289.624 484.473 289.624C480.452 289.624 477.193 286.364 477.193 282.344C477.193 278.323 480.452 275.064 484.473 275.064C488.493 275.064 491.753 278.323 491.753 282.344Z" fill="white"/>
<path d="M498.429 309.768H470.889V303.142C470.889 296.413 476.344 290.957 483.074 290.957H486.246C492.975 290.957 498.431 296.413 498.431 303.142V309.768H498.429Z" fill="white"/>
<path d="M460.604 263.384C460.604 264.281 459.876 265.008 458.979 265.008C458.083 265.008 457.355 264.281 457.355 263.384C457.355 262.488 458.082 261.76 458.979 261.76C459.877 261.761 460.604 262.488 460.604 263.384Z" fill="#FFC154"/>
<path d="M466.63 263.384C466.63 264.281 465.902 265.008 465.006 265.008C464.109 265.008 463.382 264.281 463.382 263.384C463.382 262.488 464.109 261.76 465.006 261.76C465.903 261.761 466.63 262.488 466.63 263.384Z" fill="#FFC154"/>
<path d="M472.656 263.384C472.656 264.281 471.929 265.008 471.032 265.008C470.135 265.008 469.408 264.281 469.408 263.384C469.408 262.488 470.135 261.76 471.032 261.76C471.93 261.761 472.656 262.488 472.656 263.384Z" fill="#FFC154"/>
<path d="M137.282 113.608H111.494V307.344H163.05" stroke="#FF8503" stroke-width="2" stroke-miterlimit="10" stroke-dasharray="4 4"/>
<path d="M96.7545 177.807H57V227.413H96.7545" stroke="#FF8503" stroke-width="2" stroke-miterlimit="10" stroke-dasharray="4 4"/>
<path d="M93.1582 248.632L250.271 248.632V206.195L93.1582 206.195V248.632Z" fill="#FFD6A8"/>
<path d="M139.823 219.846H238.461V215.182H139.823V219.846Z" fill="white"/>
<path d="M139.823 229.175H238.461V224.511H139.823V229.175Z" fill="white"/>
<path d="M139.907 238.503H191.32V233.648H139.907V238.503Z" fill="white"/>
<path d="M102.614 239.822H128.611V213.825H102.614V239.822Z" fill="white"/>
<path d="M93.1582 199.616L250.271 199.616V157.178L93.1582 157.178V199.616Z" fill="#FFB600"/>
<path d="M139.823 170.83H238.461V166.166H139.823V170.83Z" fill="white"/>
<path d="M139.823 180.158H238.461V175.494H139.823V180.158Z" fill="white"/>
<path d="M139.907 189.487H191.32V184.632H139.907V189.487Z" fill="white"/>
<path d="M102.614 190.805H128.611V164.808H102.614V190.805Z" fill="white"/>
<path d="M163.05 90.0233V72.7166H308.807V104.181" stroke="#FF8503" stroke-width="2" stroke-miterlimit="10" stroke-dasharray="4 4"/>
<path d="M332.868 104.182H285.119C280.418 104.182 276.572 108.028 276.572 112.729V160.477C276.572 165.178 280.418 169.024 285.119 169.024H332.868C337.569 169.024 341.415 165.178 341.415 160.477V112.729C341.415 108.028 337.569 104.182 332.868 104.182Z" fill="#FF8503"/>
<path d="M336.297 117.057H281.69V162.134H336.297V117.057Z" fill="#FFB600"/>
<path d="M316.087 129.885C316.087 133.906 312.828 137.165 308.807 137.165C304.787 137.165 301.527 133.906 301.527 129.885C301.527 125.865 304.787 122.605 308.807 122.605C312.828 122.605 316.087 125.865 316.087 129.885Z" fill="white"/>
<path d="M322.764 157.309H295.223V150.683C295.223 143.954 300.679 138.498 307.408 138.498H310.58C317.31 138.498 322.765 143.954 322.765 150.683V157.309H322.764Z" fill="white"/>
<path d="M284.938 110.925C284.938 111.822 284.211 112.549 283.314 112.549C282.418 112.549 281.69 111.823 281.69 110.925C281.69 110.028 282.418 109.301 283.314 109.301C284.211 109.302 284.938 110.029 284.938 110.925Z" fill="#FFC154"/>
<path d="M290.965 110.925C290.965 111.822 290.237 112.549 289.34 112.549C288.444 112.549 287.716 111.823 287.716 110.925C287.716 110.028 288.444 109.301 289.34 109.301C290.237 109.302 290.965 110.029 290.965 110.925Z" fill="#FFC154"/>
<path d="M295.367 112.549C296.264 112.549 296.991 111.822 296.991 110.925C296.991 110.028 296.264 109.301 295.367 109.301C294.47 109.301 293.743 110.028 293.743 110.925C293.743 111.822 294.47 112.549 295.367 112.549Z" fill="#FFC154"/>
<path d="M185.46 87.7722H144.597C140.574 87.7722 137.282 91.0641 137.282 95.0869V135.949C137.282 139.972 140.574 143.264 144.597 143.264H185.46C189.482 143.264 192.774 139.972 192.774 135.949V95.0869C192.774 91.063 189.482 87.7722 185.46 87.7722Z" fill="#FF8503"/>
<path d="M188.394 98.7908H141.662V137.368H188.394V98.7908Z" fill="#FFEDD4"/>
<path d="M143.051 94.9337C143.819 94.9337 144.441 94.3113 144.441 93.5435C144.441 92.7757 143.819 92.1533 143.051 92.1533C142.283 92.1533 141.661 92.7757 141.661 93.5435C141.661 94.3113 142.283 94.9337 143.051 94.9337Z" fill="#FFC154"/>
<path d="M149.599 93.5435C149.599 94.3114 148.977 94.9337 148.209 94.9337C147.441 94.9337 146.819 94.3114 146.819 93.5435C146.819 92.7757 147.441 92.1533 148.209 92.1533C148.977 92.1533 149.599 92.7757 149.599 93.5435Z" fill="#FFC154"/>
<path d="M153.366 94.9337C154.133 94.9337 154.756 94.3113 154.756 93.5435C154.756 92.7757 154.133 92.1533 153.366 92.1533C152.598 92.1533 151.976 92.7757 151.976 93.5435C151.976 94.3113 152.598 94.9337 153.366 94.9337Z" fill="#FFC154"/>
<path d="M156.54 128.839L146.73 119.029L156.674 109.085L158.342 110.752L150.065 119.029L158.207 127.172L156.54 128.839Z" fill="#FF8503"/>
<path d="M173.381 128.839L171.714 127.172L179.992 118.895L171.849 110.752L173.517 109.085L183.325 118.895L173.381 128.839Z" fill="#FF8503"/>
<path d="M167.52 110.223L160.339 127.554L162.516 128.457L169.698 111.125L167.52 110.223Z" fill="#FF8503"/>
<path d="M192.774 95.0859H374.879" stroke="#FF8503" stroke-width="2" stroke-miterlimit="10" stroke-dasharray="4 4"/>
<path d="M522.29 70H382.187C377.594 70 373.837 73.7575 373.837 78.35V148.865C373.837 153.458 377.594 157.215 382.187 157.215H522.29C526.882 157.215 530.64 153.458 530.64 148.865V78.35C530.64 73.7586 526.882 70 522.29 70Z" fill="#FF8503"/>
<path d="M525.305 84.3821H379.172V151.65H525.305V84.3821Z" fill="#FFD6A8"/>
<path d="M385.202 80.2069C386.42 80.2069 387.406 79.2202 387.406 78.003C387.406 76.7858 386.42 75.7991 385.202 75.7991C383.985 75.7991 382.999 76.7858 382.999 78.003C382.999 79.2202 383.985 80.2069 385.202 80.2069Z" fill="#FFB600"/>
<path d="M396.8 78.003C396.8 79.2197 395.813 80.2069 394.596 80.2069C393.379 80.2069 392.392 79.2208 392.392 78.003C392.392 76.7852 393.378 75.7991 394.596 75.7991C395.813 75.7991 396.8 76.7863 396.8 78.003Z" fill="#FFB600"/>
<path d="M403.991 80.2069C405.208 80.2069 406.195 79.2202 406.195 78.003C406.195 76.7858 405.208 75.7991 403.991 75.7991C402.774 75.7991 401.787 76.7858 401.787 78.003C401.787 79.2202 402.774 80.2069 403.991 80.2069Z" fill="#FFB600"/>
<path d="M414.611 155.099C414.386 155.773 414.611 185.026 414.611 185.026" stroke="#FF8503" stroke-width="2" stroke-miterlimit="10" stroke-dasharray="4 4"/>
<path d="M440.426 226.06H469.408V256.64" stroke="#FF8503" stroke-width="2" stroke-miterlimit="10" stroke-dasharray="4 4"/>
<path d="M485.994 318.308V354.023H642.902V283.441H605.837" stroke="#FF8503" stroke-width="2" stroke-miterlimit="10" stroke-dasharray="4 4"/>
<path d="M542.787 242.618H501.932V155.997" stroke="#FF8503" stroke-width="2" stroke-miterlimit="10" stroke-dasharray="4 4"/>
<path d="M291.801 334.175H365.376L367.839 351.53H289.365L291.801 334.175Z" fill="#FF8904"/>
</svg>
