<svg width="700" height="440" viewBox="0 0 700 440" fill="none" xmlns="http://www.w3.org/2000/svg">
<path d="M390.717 139.381H328.654C327.864 139.381 327.223 138.74 327.223 137.95V83.4239C327.223 82.6339 327.864 81.9929 328.654 81.9929H390.717C391.507 81.9929 392.148 82.6339 392.148 83.4239V137.95C392.148 138.74 391.508 139.381 390.717 139.381Z" fill="#FF8904"/>
<path d="M337.335 91.3979C337.207 91.3979 337.079 91.3489 336.981 91.2519L332.481 86.7519C332.286 86.5569 332.286 86.2399 332.481 86.0449C332.676 85.8499 332.993 85.8499 333.188 86.0449L337.688 90.5459C337.883 90.7409 337.883 91.0579 337.688 91.2529C337.59 91.3489 337.463 91.3979 337.335 91.3979Z" fill="white"/>
<path d="M332.835 91.398C332.707 91.398 332.579 91.349 332.481 91.252C332.286 91.057 332.286 90.74 332.481 90.545L336.981 86.044C337.176 85.849 337.493 85.849 337.688 86.044C337.883 86.239 337.883 86.556 337.688 86.751L333.188 91.251C333.09 91.349 332.963 91.398 332.835 91.398Z" fill="white"/>
<path d="M363.133 102.125H342.756C342.48 102.125 342.256 101.901 342.256 101.625C342.256 101.349 342.48 101.125 342.756 101.125H363.133C363.409 101.125 363.633 101.349 363.633 101.625C363.633 101.901 363.41 102.125 363.133 102.125Z" fill="white"/>
<path d="M386.593 102.125H368.43C368.154 102.125 367.93 101.901 367.93 101.625C367.93 101.349 368.154 101.125 368.43 101.125H386.593C386.869 101.125 387.093 101.349 387.093 101.625C387.093 101.901 386.87 102.125 386.593 102.125Z" fill="white"/>
<path d="M360.919 120.249H342.757C342.481 120.249 342.257 120.025 342.257 119.749C342.257 119.473 342.481 119.249 342.757 119.249H360.919C361.195 119.249 361.419 119.473 361.419 119.749C361.419 120.026 361.195 120.249 360.919 120.249Z" fill="white"/>
<path d="M378.108 110.677H359.946C359.67 110.677 359.446 110.453 359.446 110.177C359.446 109.901 359.67 109.677 359.946 109.677H378.108C378.384 109.677 378.608 109.901 378.608 110.177C378.608 110.453 378.384 110.677 378.108 110.677Z" fill="white"/>
<path d="M354.679 110.677H342.756C342.48 110.677 342.256 110.453 342.256 110.177C342.256 109.901 342.48 109.677 342.756 109.677H354.679C354.955 109.677 355.179 109.901 355.179 110.177C355.179 110.453 354.956 110.677 354.679 110.677Z" fill="white"/>
<path d="M373.833 120.249H366.504C366.228 120.249 366.004 120.025 366.004 119.749C366.004 119.473 366.228 119.249 366.504 119.249H373.833C374.109 119.249 374.333 119.473 374.333 119.749C374.333 120.026 374.109 120.249 373.833 120.249Z" fill="white"/>
<path opacity="0.43" d="M421.287 126.124L417.959 124.259C417.352 123.918 416.678 123.8 416.032 123.92L396.8 127.502L388.311 121.545L385.718 122.028L388.694 129.011L387.975 129.145C387.037 129.32 386.979 130.28 387.879 130.723C388.213 130.887 388.622 131.031 389.062 131.164L388.232 131.771L390.075 131.428C392.545 131.976 395.958 132.179 399.035 132.148L397.279 133.579C397.171 133.667 397.26 133.842 397.394 133.805L402.116 132.926C403.542 132.661 404.928 132.237 406.268 131.695C406.402 132.308 406.992 132.709 407.607 132.595L409.209 132.297C409.482 132.246 409.662 131.981 409.611 131.705L409.458 130.882L420.082 128.903C421.027 128.727 421.665 127.785 421.633 126.705C421.625 126.457 421.483 126.234 421.287 126.124Z" fill="white"/>
<path d="M412.94 116.001C418.697 116.001 423.364 111.334 423.364 105.577C423.364 99.8198 418.697 95.1528 412.94 95.1528C407.183 95.1528 402.516 99.8198 402.516 105.577C402.516 111.334 407.183 116.001 412.94 116.001Z" fill="#FF8904"/>
<path d="M418.235 106.077H407.645C407.369 106.077 407.145 105.853 407.145 105.577C407.145 105.301 407.369 105.077 407.645 105.077H418.235C418.511 105.077 418.735 105.301 418.735 105.577C418.735 105.854 418.511 106.077 418.235 106.077Z" fill="white"/>
<path d="M412.94 111.372C412.664 111.372 412.44 111.148 412.44 110.872V100.283C412.44 100.007 412.664 99.7827 412.94 99.7827C413.216 99.7827 413.44 100.007 413.44 100.283V110.872C413.44 111.148 413.216 111.372 412.94 111.372Z" fill="white"/>
<path opacity="0.69" d="M307.349 138.163L279.475 112.014L247.178 137.059C246.959 137.227 246.646 137.189 246.476 136.97C246.307 136.752 246.347 136.438 246.565 136.269L279.538 110.701L307.316 136.761L332.279 111.01C332.472 110.813 332.789 110.806 332.986 110.999C333.184 111.191 333.189 111.508 332.998 111.706L307.349 138.163Z" fill="#FF8904"/>
<path d="M325.709 111.357C325.709 115.184 328.811 118.286 332.638 118.286C336.465 118.286 339.567 115.184 339.567 111.357C339.567 107.53 336.465 104.428 332.638 104.428C328.811 104.428 325.709 107.53 325.709 111.357Z" fill="#FFB86A"/>
<path d="M272.577 111.357C272.577 115.184 275.679 118.286 279.506 118.286C283.333 118.286 286.435 115.184 286.435 111.357C286.435 107.53 283.333 104.428 279.506 104.428C275.68 104.428 272.577 107.53 272.577 111.357Z" fill="#FF8904"/>
<path d="M279.507 114.842C277.586 114.842 276.023 113.279 276.023 111.357C276.023 109.436 277.587 107.872 279.507 107.872C281.429 107.872 282.992 109.435 282.992 111.357C282.992 113.279 281.428 114.842 279.507 114.842ZM279.507 108.873C278.137 108.873 277.023 109.988 277.023 111.358C277.023 112.728 278.137 113.843 279.507 113.843C280.877 113.843 281.992 112.728 281.992 111.358C281.992 109.987 280.877 108.873 279.507 108.873Z" fill="white"/>
<path d="M307.332 143.593C311.159 143.593 314.261 140.491 314.261 136.664C314.261 132.837 311.159 129.735 307.332 129.735C303.505 129.735 300.403 132.837 300.403 136.664C300.403 140.491 303.505 143.593 307.332 143.593Z" fill="#FF8904"/>
<path d="M246.872 143.593C250.699 143.593 253.801 140.491 253.801 136.664C253.801 132.837 250.699 129.735 246.872 129.735C243.045 129.735 239.943 132.837 239.943 136.664C239.943 140.491 243.045 143.593 246.872 143.593Z" fill="#F7AB48"/>
<path d="M246.872 140.279C244.951 140.279 243.388 138.715 243.388 136.794C243.388 134.873 244.952 133.309 246.872 133.309C248.794 133.309 250.357 134.872 250.357 136.794C250.357 138.716 248.794 140.279 246.872 140.279ZM246.872 134.309C245.502 134.309 244.388 135.424 244.388 136.794C244.388 138.164 245.502 139.279 246.872 139.279C248.242 139.279 249.357 138.164 249.357 136.794C249.357 135.424 248.242 134.309 246.872 134.309Z" fill="white"/>
<path d="M583.805 295.085L511.648 294.974C509.807 294.971 508.316 293.823 508.318 292.409L508.384 249.342L508.391 244.496C508.393 243.082 509.888 241.938 511.729 241.941L583.886 242.053C585.727 242.056 587.218 243.204 587.216 244.618L587.142 292.531C587.14 293.944 585.646 295.088 583.805 295.085Z" fill="white"/>
<path d="M508.38 252.028L508.392 244.496C508.394 243.082 509.889 241.938 511.73 241.941L583.887 242.053C585.728 242.056 587.219 243.204 587.217 244.618L587.206 251.822" fill="#FFB86A"/>
<path d="M514.077 249C514.076 249 514.074 249 514.073 249C513.114 248.999 512.336 248.217 512.337 247.259C512.34 246.301 513.12 245.522 514.076 245.522C514.077 245.522 514.078 245.522 514.079 245.522C515.038 245.523 515.816 246.305 515.815 247.264C515.814 247.729 515.632 248.165 515.303 248.493C514.976 248.82 514.54 249 514.077 249ZM514.076 246.522C513.67 246.522 513.338 246.853 513.337 247.261C513.336 247.668 513.667 248 514.075 248C514.272 248 514.459 247.923 514.598 247.785C514.738 247.645 514.815 247.46 514.815 247.263C514.815 247.065 514.739 246.879 514.599 246.74C514.46 246.6 514.275 246.523 514.076 246.522C514.077 246.522 514.077 246.522 514.076 246.522Z" fill="white"/>
<path d="M518.726 249.008C518.232 248.984 517.824 248.826 517.495 248.497C517.167 248.168 516.986 247.731 516.987 247.267C516.988 246.802 517.17 246.366 517.499 246.037C517.828 245.709 518.285 245.546 518.729 245.53C519.193 245.53 519.629 245.712 519.958 246.041C520.286 246.37 520.467 246.807 520.466 247.271C520.464 248.229 519.684 249.008 518.726 249.008ZM518.726 246.53C518.529 246.53 518.343 246.607 518.204 246.746C518.064 246.885 517.987 247.071 517.987 247.268C517.987 247.466 518.063 247.651 518.203 247.791C518.343 247.931 518.528 248.008 518.725 248.008C518.922 248.008 519.109 247.931 519.249 247.792C519.389 247.653 519.466 247.467 519.466 247.27C519.466 247.072 519.39 246.887 519.25 246.747C519.11 246.607 518.925 246.53 518.728 246.53C518.727 246.53 518.727 246.53 518.726 246.53Z" fill="white"/>
<path d="M523.287 249.015C523.286 249.015 523.285 249.015 523.284 249.015C522.325 249.013 521.547 248.231 521.548 247.273C521.549 246.315 522.329 245.536 523.287 245.536C523.288 245.536 523.289 245.536 523.29 245.536C524.249 245.538 525.027 246.319 525.026 247.278C525.026 248.237 524.245 249.015 523.287 249.015ZM523.287 246.536C523.09 246.536 522.904 246.613 522.765 246.752C522.625 246.891 522.548 247.077 522.548 247.274C522.547 247.682 522.879 248.014 523.286 248.015C523.693 248.015 524.025 247.684 524.026 247.277C524.026 247.079 523.95 246.893 523.81 246.754C523.671 246.614 523.486 246.537 523.287 246.536C523.288 246.536 523.288 246.536 523.287 246.536Z" fill="white"/>
<path opacity="0.69" d="M576.543 265.54L544.938 265.491C544.662 265.49 544.439 265.266 544.439 264.99C544.439 264.714 544.664 264.491 544.939 264.491H544.94L576.544 264.54C576.82 264.541 577.043 264.765 577.043 265.041C577.043 265.317 576.819 265.54 576.543 265.54Z" fill="#FF8904"/>
<path opacity="0.69" d="M554.112 270.653L544.926 270.635C544.65 270.634 544.426 270.41 544.427 270.134C544.428 269.858 544.652 269.635 544.927 269.635H544.928L554.114 269.653C554.39 269.654 554.614 269.878 554.613 270.154C554.611 270.43 554.388 270.653 554.112 270.653Z" fill="#FF8904"/>
<path opacity="0.69" d="M576.531 270.684L556.325 270.665C556.049 270.664 555.825 270.441 555.825 270.164C555.825 269.888 556.049 269.665 556.325 269.665L576.531 269.684C576.807 269.685 577.031 269.908 577.031 270.185C577.031 270.46 576.808 270.684 576.531 270.684Z" fill="#FF8904"/>
<path opacity="0.69" d="M565.145 277.137L544.939 277.119C544.663 277.119 544.439 276.895 544.439 276.619C544.439 276.343 544.663 276.119 544.939 276.119L565.145 276.137C565.421 276.137 565.645 276.361 565.645 276.638C565.645 276.913 565.421 277.137 565.145 277.137Z" fill="#FF8904"/>
<path d="M528.385 271.495V259.431C521.723 259.431 516.322 264.832 516.322 271.495C516.322 278.158 521.723 283.559 528.385 283.559C535.048 283.559 540.448 278.158 540.448 271.495H528.385Z" fill="#F7AB48"/>
<path d="M540.021 270.166C540.021 264.473 535.406 259.858 529.713 259.858V270.166H540.021Z" fill="#FF8904"/>
<path d="M204.764 166.256L133.462 165.879C128.356 165.852 124.204 162 124.189 157.276L124.026 105.72L213.82 106.195L213.983 157.751C213.998 162.475 209.87 166.283 204.764 166.256Z" fill="white"/>
<path d="M213.82 106.116L124.022 106.049L124.028 97.193C124.031 92.877 127.532 89.381 131.848 89.385L206.018 89.44C210.333 89.443 213.829 92.944 213.826 97.259L213.82 106.116Z" fill="#FF8904"/>
<path d="M204.637 95.831C204.636 97.606 203.233 99.044 201.505 99.043C199.776 99.042 198.376 97.602 198.377 95.827C198.378 94.052 199.781 92.614 201.509 92.615C203.237 92.616 204.638 94.056 204.637 95.831Z" fill="#F7AB48"/>
<path d="M201.641 96.359H201.372C200.612 96.359 199.996 95.742 199.996 94.982L200.001 87.229C200.002 86.469 200.618 85.853 201.378 85.854H201.647C202.407 85.855 203.023 86.471 203.022 87.231L203.017 94.983C203.018 95.744 202.401 96.36 201.641 96.359Z" fill="#FF8904"/>
<path d="M139.085 95.7819C139.084 97.5569 137.681 98.9949 135.953 98.9939C134.224 98.9929 132.824 97.5529 132.825 95.7779C132.826 94.0029 134.229 92.5649 135.957 92.5659C137.686 92.5669 139.087 94.0069 139.085 95.7819Z" fill="#F7AB48"/>
<path d="M136.09 96.3109H135.82C135.06 96.3099 134.444 95.6939 134.445 94.9339L134.451 87.1819C134.451 86.4219 135.068 85.8059 135.828 85.8059H136.097C136.857 85.8059 137.473 86.4229 137.472 87.1829L137.467 94.9359C137.467 95.6959 136.85 96.3109 136.09 96.3109Z" fill="#FF8904"/>
<path d="M155.719 95.7939C155.718 97.5689 154.315 99.0069 152.587 99.0059C150.858 99.0049 149.458 97.5649 149.459 95.7899C149.46 94.0149 150.863 92.5769 152.591 92.5779C154.32 92.5789 155.721 94.0189 155.719 95.7939Z" fill="#F7AB48"/>
<path d="M152.724 96.3229H152.455C151.695 96.3229 151.079 95.7059 151.08 94.9459L151.085 87.1929C151.086 86.4329 151.702 85.8169 152.462 85.8179H152.731C153.491 85.8189 154.107 86.4349 154.106 87.1959L154.101 94.9479C154.1 95.7079 153.484 96.3229 152.724 96.3229Z" fill="#FF8904"/>
<path d="M188.502 95.8188C188.501 97.5938 187.098 99.0318 185.37 99.0308C183.641 99.0298 182.241 97.5898 182.242 95.8148C182.243 94.0398 183.646 92.6018 185.374 92.6028C187.103 92.6038 188.503 94.0438 188.502 95.8188Z" fill="#F7AB48"/>
<path d="M185.506 96.3468H185.237C184.477 96.3458 183.861 95.7298 183.862 94.9698L183.867 87.2178C183.868 86.4578 184.484 85.8418 185.244 85.8418H185.513C186.273 85.8418 186.889 86.4588 186.888 87.2188L186.882 94.9718C186.883 95.7318 186.266 96.3478 185.506 96.3468Z" fill="#FF8904"/>
<path d="M144.842 113.884H133.76V125.263H144.842V113.884Z" fill="#FF8904"/>
<path opacity="0.54" d="M174.212 113.884H163.13V125.263H174.212V113.884Z" fill="#FFB86A"/>
<path opacity="0.43" d="M159.732 113.884H148.65V125.263H159.732V113.884Z" fill="#FF8904"/>
<path d="M189.233 113.884H178.151V125.263H189.233V113.884Z" fill="#FF8904"/>
<path opacity="0.43" d="M204.123 113.884H193.041V125.263H204.123V113.884Z" fill="#FF8904"/>
<path d="M144.842 143.304H133.76V154.683H144.842V143.304Z" fill="#FF8904"/>
<path opacity="0.54" d="M174.212 143.304H163.13V154.683H174.212V143.304Z" fill="#FFB86A"/>
<path opacity="0.43" d="M159.732 143.304H148.65V154.683H159.732V143.304Z" fill="#FF8904"/>
<path d="M189.233 143.304H178.151V154.683H189.233V143.304Z" fill="#FF8904"/>
<path opacity="0.43" d="M204.123 143.304H193.041V154.683H204.123V143.304Z" fill="#FF8904"/>
<path opacity="0.54" d="M193.042 140.156H204.124V128.777H193.042V140.156Z" fill="#FFB86A"/>
<path d="M163.672 140.156H174.754V128.777H163.672V140.156Z" fill="#FF8904"/>
<path opacity="0.43" d="M178.15 140.156H189.232V128.777H178.15V140.156Z" fill="#FF8904"/>
<path opacity="0.54" d="M148.651 140.156H159.733V128.777H148.651V140.156Z" fill="#FFB86A"/>
<path d="M156.614 134.702C156.614 136.279 155.369 137.557 153.833 137.557C152.297 137.557 151.052 136.279 151.052 134.702C151.052 133.125 152.297 131.847 153.833 131.847C155.369 131.847 156.614 133.125 156.614 134.702Z" fill="white"/>
<path opacity="0.43" d="M133.76 140.156H144.842V128.777H133.76V140.156Z" fill="#FF8904"/>
<path d="M237.717 186.347C247.178 174.555 245.288 157.327 233.496 147.866C221.704 138.405 204.476 140.295 195.015 152.087C185.555 163.879 187.444 181.107 199.236 190.568C211.028 200.028 228.257 198.139 237.717 186.347Z" fill="#FFB86A"/>
<path d="M238.477 172.346C240.206 160.131 231.706 148.826 219.491 147.097C207.275 145.367 195.971 153.867 194.241 166.083C192.511 178.298 201.012 189.603 213.227 191.332C225.442 193.062 236.747 184.562 238.477 172.346Z" fill="white"/>
<path d="M216.184 151.914C215.851 151.917 215.579 151.649 215.577 151.316L215.554 148.453C215.551 148.12 215.819 147.848 216.152 147.845C216.485 147.842 216.757 148.11 216.76 148.443L216.783 151.306C216.785 151.639 216.517 151.911 216.184 151.914Z" fill="#FF8904"/>
<path d="M216.566 190.567C216.233 190.57 215.961 190.302 215.958 189.969L215.935 187.106C215.932 186.773 216.2 186.501 216.533 186.498C216.866 186.495 217.138 186.763 217.14 187.096L217.163 189.959C217.167 190.292 216.899 190.564 216.566 190.567Z" fill="#FF8904"/>
<path d="M233.651 169.031C233.648 168.698 233.916 168.426 234.249 168.423L237.112 168.4C237.445 168.397 237.717 168.665 237.72 168.998C237.723 169.331 237.455 169.603 237.122 169.605L234.259 169.628C233.926 169.632 233.654 169.364 233.651 169.031Z" fill="#FF8904"/>
<path d="M194.998 169.413C194.995 169.08 195.263 168.808 195.596 168.806L198.459 168.783C198.792 168.78 199.064 169.048 199.067 169.381C199.07 169.714 198.802 169.986 198.469 169.989L195.606 170.012C195.273 170.013 195.001 169.746 194.998 169.413Z" fill="#FF8904"/>
<path d="M229.002 156.307C228.765 156.073 228.762 155.692 228.995 155.455L230.018 154.415C230.252 154.178 230.633 154.175 230.871 154.408C231.108 154.641 231.111 155.023 230.878 155.26L229.855 156.299C229.621 156.537 229.239 156.54 229.002 156.307Z" fill="#FF8904"/>
<path d="M201.829 184.022C201.592 183.789 201.589 183.407 201.822 183.17L203.087 181.885C203.321 181.648 203.702 181.645 203.94 181.878C204.177 182.112 204.18 182.493 203.947 182.73L202.682 184.015C202.448 184.252 202.066 184.255 201.829 184.022Z" fill="#FF8904"/>
<path d="M229.258 181.867C229.491 181.63 229.873 181.627 230.11 181.86L231.149 182.883C231.386 183.117 231.389 183.498 231.156 183.736C230.923 183.973 230.541 183.976 230.304 183.743L229.265 182.72C229.028 182.486 229.025 182.104 229.258 181.867Z" fill="#FF8904"/>
<path d="M201.543 154.694C201.776 154.457 202.158 154.454 202.395 154.687L203.68 155.952C203.917 156.186 203.92 156.567 203.687 156.804C203.453 157.041 203.072 157.044 202.834 156.811L201.549 155.546C201.313 155.313 201.31 154.931 201.543 154.694Z" fill="#FF8904"/>
<path d="M216.451 169.066C216.193 169.327 215.771 169.33 215.51 169.072L207.294 160.953C207.032 160.695 207.03 160.273 207.288 160.012C207.546 159.751 207.968 159.748 208.229 160.006L216.445 168.125C216.707 168.383 216.71 168.804 216.451 169.066Z" fill="#FF8904"/>
<path d="M216.338 169.89C216.077 169.632 216.074 169.21 216.332 168.949L223.116 162.084C223.374 161.822 223.796 161.82 224.057 162.078C224.319 162.336 224.321 162.758 224.063 163.019L217.279 169.884C217.021 170.146 216.6 170.149 216.338 169.89Z" fill="#FF8904"/>
<path d="M218.772 169.187C218.782 170.519 217.711 171.608 216.378 171.619C215.045 171.629 213.957 170.558 213.946 169.225C213.936 167.892 215.007 166.804 216.34 166.793C217.672 166.782 218.761 167.854 218.772 169.187Z" fill="#FFB86A"/>
<path d="M167.773 189.322H165.272C164.533 181.724 158.085 175.733 150.301 175.733C142.518 175.733 136.069 181.724 135.331 189.322H132.83C126.958 189.322 122.153 194.127 122.153 199.999C122.153 205.871 126.958 210.676 132.83 210.676H167.772C173.644 210.676 178.449 205.871 178.449 199.999C178.45 194.126 173.645 189.322 167.773 189.322Z" fill="#FF8904"/>
<path d="M167.773 187.456H165.272C164.533 179.858 158.085 173.867 150.301 173.867C142.518 173.867 136.069 179.858 135.331 187.456H132.83C126.958 187.456 122.153 192.261 122.153 198.133C122.153 204.005 126.958 208.81 132.83 208.81H167.772C173.644 208.81 178.449 204.005 178.449 198.133C178.45 192.26 173.645 187.456 167.773 187.456Z" fill="#FFB86A"/>
<path d="M150.301 220.79C149.473 220.79 148.801 220.119 148.801 219.29V196.966C148.801 196.137 149.473 195.466 150.301 195.466C151.129 195.466 151.801 196.137 151.801 196.966V219.29C151.801 220.119 151.129 220.79 150.301 220.79Z" fill="white"/>
<path d="M146.419 201.863C146.091 201.863 145.76 201.756 145.483 201.534C144.836 201.016 144.731 200.072 145.249 199.426L150.302 193.109L155.356 199.426C155.874 200.073 155.769 201.017 155.123 201.534C154.475 202.052 153.532 201.947 153.015 201.3L150.303 197.911L147.592 201.3C147.295 201.671 146.859 201.863 146.419 201.863Z" fill="white"/>
<path d="M233.85 244.595C243.736 244.595 251.75 236.581 251.75 226.695C251.75 216.809 243.736 208.795 233.85 208.795C223.964 208.795 215.95 216.809 215.95 226.695C215.95 236.581 223.964 244.595 233.85 244.595Z" fill="#FFB86A"/>
<path d="M242.942 227.695H224.758C224.205 227.695 223.758 227.247 223.758 226.695C223.758 226.143 224.205 225.695 224.758 225.695H242.942C243.495 225.695 243.942 226.143 243.942 226.695C243.942 227.247 243.495 227.695 242.942 227.695Z" fill="white"/>
<path d="M233.85 236.787C233.297 236.787 232.85 236.339 232.85 235.787V217.602C232.85 217.05 233.297 216.602 233.85 216.602C234.403 216.602 234.85 217.05 234.85 217.602V235.787C234.85 236.339 234.403 236.787 233.85 236.787Z" fill="white"/>
<path d="M526.971 202.073H455.593C453.353 202.073 451.521 200.24 451.521 198.001V96.5571C451.521 94.3171 453.354 92.4851 455.593 92.4851H526.971C529.211 92.4851 531.043 94.3181 531.043 96.5571V198.001C531.043 200.241 529.211 202.073 526.971 202.073Z" fill="white"/>
<path opacity="0.43" d="M462.089 179.764H522.212C523.041 179.764 523.719 180.442 523.719 181.271V189.781C523.719 190.61 523.041 191.288 522.212 191.288H462.089C461.26 191.288 460.582 190.61 460.582 189.781V181.271C460.582 180.442 461.26 179.764 462.089 179.764Z" fill="#FFB86A"/>
<path d="M516.933 187.448H498.186C497.91 187.448 497.686 187.224 497.686 186.948C497.686 186.672 497.91 186.448 498.186 186.448H516.933C517.209 186.448 517.433 186.672 517.433 186.948C517.433 187.225 517.21 187.448 516.933 187.448Z" fill="white"/>
<path d="M495.496 187.448H487.685C487.409 187.448 487.185 187.224 487.185 186.948C487.185 186.672 487.409 186.448 487.685 186.448H495.496C495.772 186.448 495.996 186.672 495.996 186.948C495.996 187.225 495.772 187.448 495.496 187.448Z" fill="white"/>
<path d="M495.496 183.694H487.685C487.409 183.694 487.185 183.47 487.185 183.194C487.185 182.918 487.409 182.694 487.685 182.694H495.496C495.772 182.694 495.996 182.918 495.996 183.194C495.996 183.47 495.772 183.694 495.496 183.694Z" fill="white"/>
<path d="M464.783 185.279C464.783 183.788 465.991 182.58 467.481 182.58C468.971 182.58 470.18 183.788 470.18 185.279C470.18 186.769 468.972 187.977 467.481 187.977C465.991 187.977 464.783 186.769 464.783 185.279Z" fill="#FFB86A"/>
<path opacity="0.43" d="M462.089 161.364H522.212C523.041 161.364 523.719 162.042 523.719 162.871V171.381C523.719 172.21 523.041 172.888 522.212 172.888H462.089C461.26 172.888 460.582 172.21 460.582 171.381V162.871C460.582 162.043 461.26 161.364 462.089 161.364Z" fill="#FF8904"/>
<path opacity="0.43" d="M514.235 167.127C514.235 165.637 515.443 164.428 516.933 164.428C518.423 164.428 519.632 165.636 519.632 167.127C519.632 168.617 518.424 169.826 516.933 169.826C515.443 169.825 514.235 168.617 514.235 167.127Z" fill="#FF8904"/>
<path opacity="0.43" d="M522.212 153.1H462.089C461.26 153.1 460.582 152.422 460.582 151.593V143.083C460.582 142.254 461.26 141.576 462.089 141.576H522.212C523.041 141.576 523.719 142.254 523.719 143.083V151.593C523.719 152.421 523.041 153.1 522.212 153.1Z" fill="#FFB86A"/>
<path d="M486.114 146.416H467.367C467.091 146.416 466.867 146.192 466.867 145.916C466.867 145.64 467.091 145.416 467.367 145.416H486.114C486.39 145.416 486.614 145.64 486.614 145.916C486.614 146.192 486.39 146.416 486.114 146.416Z" fill="white"/>
<path d="M496.616 146.416H488.804C488.528 146.416 488.304 146.192 488.304 145.916C488.304 145.64 488.528 145.416 488.804 145.416H496.616C496.892 145.416 497.116 145.64 497.116 145.916C497.116 146.192 496.892 146.416 496.616 146.416Z" fill="white"/>
<path d="M496.616 150.17H488.804C488.528 150.17 488.304 149.946 488.304 149.67C488.304 149.394 488.528 149.17 488.804 149.17H496.616C496.892 149.17 497.116 149.394 497.116 149.67C497.116 149.946 496.892 150.17 496.616 150.17Z" fill="white"/>
<path d="M519.518 147.585C519.518 149.075 518.31 150.284 516.82 150.284C515.33 150.284 514.121 149.076 514.121 147.585C514.121 146.094 515.329 144.886 516.82 144.886C518.311 144.886 519.518 146.095 519.518 147.585Z" fill="#FFB86A"/>
<path opacity="0.43" d="M462.089 104.222H522.212C523.041 104.222 523.719 104.9 523.719 105.729V114.239C523.719 115.068 523.041 115.746 522.212 115.746H462.089C461.26 115.746 460.582 115.068 460.582 114.239V105.729C460.582 104.9 461.26 104.222 462.089 104.222Z" fill="#FFB86A"/>
<path d="M516.933 111.906H498.186C497.91 111.906 497.686 111.682 497.686 111.406C497.686 111.13 497.91 110.906 498.186 110.906H516.933C517.209 110.906 517.433 111.13 517.433 111.406C517.433 111.682 517.21 111.906 516.933 111.906Z" fill="white"/>
<path d="M495.496 111.906H487.685C487.409 111.906 487.185 111.682 487.185 111.406C487.185 111.13 487.409 110.906 487.685 110.906H495.496C495.772 110.906 495.996 111.13 495.996 111.406C495.996 111.682 495.772 111.906 495.496 111.906Z" fill="white"/>
<path d="M495.496 108.151H487.685C487.409 108.151 487.185 107.927 487.185 107.651C487.185 107.375 487.409 107.151 487.685 107.151H495.496C495.772 107.151 495.996 107.375 495.996 107.651C495.996 107.928 495.772 108.151 495.496 108.151Z" fill="white"/>
<path d="M463.524 109.984C463.524 107.798 465.296 106.027 467.481 106.027C469.666 106.027 471.438 107.798 471.438 109.984C471.438 112.169 469.666 113.941 467.481 113.941C465.296 113.941 463.524 112.169 463.524 109.984Z" fill="#FFB86A"/>
<path opacity="0.43" d="M462.089 124.01H522.212C523.041 124.01 523.719 124.688 523.719 125.517V134.027C523.719 134.856 523.041 135.534 522.212 135.534H462.089C461.26 135.534 460.582 134.856 460.582 134.027V125.517C460.582 124.688 461.26 124.01 462.089 124.01Z" fill="#FF8904"/>
<path d="M512.976 129.388C512.976 127.202 514.748 125.431 516.933 125.431C519.118 125.431 520.89 127.202 520.89 129.388C520.89 131.573 519.118 133.345 516.933 133.345C514.748 133.345 512.976 131.573 512.976 129.388Z" fill="#FF8904"/>
<path d="M517.016 130.872L515.171 129.812C514.932 129.674 514.849 129.369 514.986 129.129C515.124 128.889 515.43 128.807 515.669 128.944L516.85 129.623L520.537 125.936C520.732 125.741 521.049 125.741 521.244 125.936C521.439 126.131 521.439 126.448 521.244 126.643L517.016 130.872Z" fill="white"/>
<path d="M531.013 92.816L531.043 99.466L451.545 99.83L451.514 93.011C451.506 91.196 452.971 89.717 454.786 89.709L527.541 89.376C529.449 89.367 531.004 90.907 531.013 92.816Z" fill="#FFB86A"/>
<path d="M521.199 93.2831C521.061 93.2831 520.95 93.1721 520.949 93.0341C520.948 92.8961 521.059 92.7841 521.198 92.7831L527.161 92.7561C527.299 92.7561 527.411 92.8671 527.412 93.0051C527.413 93.1431 527.302 93.2561 527.163 93.2561L521.199 93.2831Z" fill="white"/>
<path d="M521.206 94.8061C521.068 94.8061 520.957 94.6951 520.956 94.5571C520.955 94.4191 521.066 94.3061 521.205 94.3061L527.168 94.2791H527.169C527.307 94.2791 527.418 94.3901 527.419 94.5281C527.42 94.6661 527.309 94.7791 527.17 94.7791L521.206 94.8061Z" fill="white"/>
<path d="M521.212 96.3302C521.074 96.3302 520.963 96.2192 520.962 96.0812C520.961 95.9432 521.072 95.8312 521.211 95.8302L527.174 95.8032C527.312 95.8032 527.424 95.9142 527.425 96.0522C527.426 96.1902 527.315 96.3022 527.176 96.3032L521.213 96.3302H521.212Z" fill="white"/>
<path d="M458.639 97.8099C458.512 97.8099 458.384 97.7619 458.287 97.6649L456.111 95.5089C455.981 95.3809 455.909 95.2089 455.908 95.0259C455.907 94.8419 455.977 94.6699 456.107 94.5389L458.178 92.4479C458.371 92.2519 458.69 92.2499 458.885 92.4449C459.081 92.6389 459.083 92.9559 458.889 93.1519L457.037 95.0209L458.989 96.9559C459.185 97.1499 459.187 97.4669 458.993 97.6629C458.897 97.7609 458.768 97.8099 458.639 97.8099ZM456.815 94.7979C456.815 94.7989 456.815 94.7989 456.815 94.7979Z" fill="white"/>
<path d="M581.558 184.031H509.935C509.145 184.031 508.504 183.39 508.504 182.6V145.31C508.504 144.52 509.145 143.879 509.935 143.879H581.558C582.348 143.879 582.989 144.52 582.989 145.31V182.6C582.989 183.391 582.349 184.031 581.558 184.031Z" fill="#FF8904"/>
<path d="M533.628 158.115H519.371C519.095 158.115 518.871 157.891 518.871 157.615C518.871 157.339 519.095 157.115 519.371 157.115H533.628C533.904 157.115 534.128 157.339 534.128 157.615C534.128 157.891 533.905 158.115 533.628 158.115Z" fill="white"/>
<path d="M544.105 158.115H537.334C537.058 158.115 536.834 157.891 536.834 157.615C536.834 157.339 537.058 157.115 537.334 157.115H544.105C544.381 157.115 544.605 157.339 544.605 157.615C544.605 157.891 544.381 158.115 544.105 158.115Z" fill="white"/>
<path d="M532.08 170.796H519.372C519.096 170.796 518.872 170.572 518.872 170.296C518.872 170.02 519.096 169.796 519.372 169.796H532.08C532.356 169.796 532.58 170.02 532.58 170.296C532.58 170.572 532.356 170.796 532.08 170.796Z" fill="white"/>
<path d="M544.105 164.099H531.398C531.122 164.099 530.898 163.875 530.898 163.599C530.898 163.323 531.122 163.099 531.398 163.099H544.105C544.381 163.099 544.605 163.323 544.605 163.599C544.605 163.875 544.381 164.099 544.105 164.099Z" fill="white"/>
<path d="M527.714 164.099H519.372C519.096 164.099 518.872 163.875 518.872 163.599C518.872 163.323 519.096 163.099 519.372 163.099H527.714C527.99 163.099 528.214 163.323 528.214 163.599C528.214 163.875 527.99 164.099 527.714 164.099Z" fill="white"/>
<path d="M541.115 170.796H535.986C535.71 170.796 535.486 170.572 535.486 170.296C535.486 170.02 535.71 169.796 535.986 169.796H541.115C541.391 169.796 541.615 170.02 541.615 170.296C541.615 170.572 541.391 170.796 541.115 170.796Z" fill="white"/>
<path opacity="0.54" d="M575.276 176.557H552.117C551.355 176.557 550.738 175.94 550.738 175.178V152.019C550.738 151.257 551.356 150.64 552.117 150.64H575.276C576.038 150.64 576.655 151.258 576.655 152.019V175.177C576.655 175.94 576.038 176.557 575.276 176.557Z" fill="white"/>
<path d="M561.649 162.869L563.512 163.849C563.623 163.907 563.755 163.906 563.865 163.844L572.145 158.98L572.768 158.614C572.813 158.587 572.862 158.571 572.911 158.564L572.912 157.41C572.912 157.017 572.594 156.699 572.202 156.698L555.204 156.683C554.811 156.683 554.493 157.001 554.492 157.393L554.49 159.22L554.939 159.449L561.649 162.869Z" fill="white"/>
<path d="M554.49 160.115L554.482 168.908L561.073 163.47L554.49 160.115Z" fill="white"/>
<path d="M572.902 168.972L572.911 159.455L566.245 163.37L572.902 168.972Z" fill="white"/>
<path d="M572.439 169.624L565.517 163.798L564.263 164.535C564.081 164.638 563.881 164.689 563.682 164.688C563.496 164.688 563.312 164.643 563.142 164.554L561.829 163.864C561.811 163.888 561.79 163.911 561.766 163.931L554.883 169.61C554.809 169.671 554.719 169.701 554.629 169.701C554.578 169.701 554.528 169.69 554.481 169.671V169.787C554.481 170.18 554.799 170.498 555.191 170.499L572.189 170.515C572.582 170.515 572.9 170.197 572.901 169.804V169.658C572.838 169.696 572.767 169.718 572.694 169.718C572.604 169.718 572.513 169.687 572.439 169.624Z" fill="white"/>
<path d="M562.971 116.635H514.443C513.033 116.635 511.89 115.492 511.89 114.082V65.553C511.89 64.143 513.033 63 514.443 63H562.971C564.381 63 565.524 64.143 565.524 65.553V114.081C565.525 115.492 564.381 116.635 562.971 116.635Z" fill="#FFB86A"/>
<path d="M558.791 76.6211H544.105C543.829 76.6211 543.605 76.3971 543.605 76.1211C543.605 75.8451 543.829 75.6211 544.105 75.6211H558.791C559.067 75.6211 559.291 75.8451 559.291 76.1211C559.291 76.3971 559.067 76.6211 558.791 76.6211Z" fill="white"/>
<path d="M558.791 82.688H544.105C543.829 82.688 543.605 82.464 543.605 82.188C543.605 81.912 543.829 81.688 544.105 81.688H558.791C559.067 81.688 559.291 81.912 559.291 82.188C559.291 82.464 559.067 82.688 558.791 82.688Z" fill="white"/>
<path d="M558.791 88.7542H544.105C543.829 88.7542 543.605 88.5302 543.605 88.2542C543.605 87.9782 543.829 87.7542 544.105 87.7542H558.791C559.067 87.7542 559.291 87.9782 559.291 88.2542C559.291 88.5312 559.067 88.7542 558.791 88.7542Z" fill="white"/>
<path opacity="0.54" d="M539.312 84.222C540.691 78.3785 537.073 72.5228 531.229 71.143C525.386 69.7632 519.53 73.3817 518.15 79.2253C516.77 85.0688 520.389 90.9245 526.232 92.3043C532.076 93.6841 537.932 90.0656 539.312 84.222Z" fill="white"/>
<path d="M531.455 79.5059C531.455 81.0319 530.218 82.2689 528.692 82.2689C527.166 82.2689 525.929 81.0319 525.929 79.5059C525.929 77.9799 527.166 76.7429 528.692 76.7429C530.218 76.7439 531.455 77.9809 531.455 79.5059Z" fill="white"/>
<path d="M532.435 87.4298H524.949C524.371 87.4298 523.902 86.9608 523.902 86.3828C523.902 84.2368 525.642 82.4968 527.788 82.4968H530.085C531.962 82.4968 533.483 84.0178 533.483 85.8948V86.3838C533.482 86.9608 533.013 87.4298 532.435 87.4298Z" fill="white"/>
<path opacity="0.54" d="M550.307 105.577H531.759C530.081 105.577 528.709 104.204 528.709 102.527C528.709 100.849 530.082 99.4771 531.759 99.4771H550.307C551.985 99.4771 553.357 100.85 553.357 102.527C553.358 104.204 551.985 105.577 550.307 105.577Z" fill="white"/>
<path d="M467.564 111.468L465.719 110.407C465.48 110.269 465.397 109.964 465.534 109.724C465.672 109.484 465.979 109.402 466.217 109.539L467.398 110.218L471.084 106.532C471.279 106.337 471.596 106.337 471.791 106.532C471.986 106.727 471.986 107.044 471.791 107.239L467.564 111.468Z" fill="white"/>
<path opacity="0.39" d="M188.294 263.848H89.253C88.363 263.848 87.641 263.126 87.641 262.236V232.615C87.641 231.725 88.363 231.003 89.253 231.003H188.294C189.184 231.003 189.906 231.725 189.906 232.615V262.236C189.907 263.126 189.185 263.848 188.294 263.848Z" fill="#FFB86A"/>
<path opacity="0.69" d="M175.719 242.502H123.394C123.118 242.502 122.894 242.278 122.894 242.002C122.894 241.726 123.118 241.502 123.394 241.502H175.719C175.995 241.502 176.219 241.726 176.219 242.002C176.219 242.278 175.996 242.502 175.719 242.502Z" fill="white"/>
<path opacity="0.69" d="M146.774 248.71H123.394C123.118 248.71 122.894 248.486 122.894 248.21C122.894 247.934 123.118 247.71 123.394 247.71H146.774C147.05 247.71 147.274 247.934 147.274 248.21C147.274 248.486 147.05 248.71 146.774 248.71Z" fill="white"/>
<path opacity="0.69" d="M146.774 255.769H123.394C123.118 255.769 122.894 255.545 122.894 255.269C122.894 254.993 123.118 254.769 123.394 254.769H146.774C147.05 254.769 147.274 254.993 147.274 255.269C147.274 255.545 147.05 255.769 146.774 255.769Z" fill="white"/>
<path opacity="0.69" d="M175.719 248.71H152.339C152.063 248.71 151.839 248.486 151.839 248.21C151.839 247.934 152.063 247.71 152.339 247.71H175.719C175.995 247.71 176.219 247.934 176.219 248.21C176.219 248.486 175.996 248.71 175.719 248.71Z" fill="white"/>
<path d="M116.344 240.884L97.498 240.867C97.063 240.867 96.709 241.219 96.709 241.655L96.707 243.68L96.706 244.671L96.697 254.42L96.696 255.266V255.395C96.696 255.83 97.048 256.184 97.484 256.184L116.33 256.201C116.765 256.201 117.119 255.849 117.119 255.413V255.251L117.12 254.492L117.13 243.94L117.131 242.952L117.132 241.673C117.132 241.237 116.78 240.884 116.344 240.884Z" fill="white"/>
<path d="M104.644 247.724L106.71 248.811C106.833 248.875 106.979 248.874 107.101 248.806L116.281 243.414L116.972 243.008C117.022 242.978 117.076 242.961 117.131 242.952L117.132 241.673C117.132 241.238 116.78 240.884 116.344 240.884L97.498 240.867C97.063 240.867 96.709 241.219 96.709 241.655L96.707 243.68L97.205 243.934L104.644 247.724Z" fill="#F7AB48"/>
<path d="M96.707 244.671L96.698 254.419L104.006 248.39L96.707 244.671Z" fill="#F7AB48"/>
<path d="M117.12 254.491L117.13 243.939L109.74 248.28L117.12 254.491Z" fill="#F7AB48"/>
<path d="M116.607 255.213L108.932 248.754L107.541 249.571C107.339 249.685 107.118 249.741 106.897 249.741C106.691 249.741 106.486 249.691 106.298 249.592L104.843 248.827C104.823 248.854 104.8 248.879 104.773 248.901L97.142 255.197C97.06 255.265 96.96 255.298 96.861 255.298C96.805 255.298 96.75 255.285 96.697 255.265V255.394C96.697 255.829 97.049 256.183 97.485 256.183L116.331 256.2C116.766 256.2 117.12 255.848 117.12 255.412V255.25C117.05 255.293 116.971 255.317 116.891 255.317C116.79 255.317 116.689 255.283 116.607 255.213Z" fill="#F7AB48"/>
<path d="M158.652 296.653H59.612C58.722 296.653 58 295.931 58 295.041V265.42C58 264.53 58.722 263.808 59.612 263.808H158.653C159.543 263.808 160.265 264.53 160.265 265.42V295.041C160.264 295.931 159.543 296.653 158.652 296.653Z" fill="#FF8904"/>
<path d="M74.346 280.152L76.545 281.309C76.676 281.378 76.832 281.376 76.961 281.303L86.736 275.561L87.472 275.129C87.525 275.098 87.583 275.078 87.641 275.07L87.642 273.708C87.642 273.244 87.267 272.868 86.803 272.868L66.737 272.85C66.273 272.85 65.897 273.225 65.897 273.689L65.895 275.845L66.425 276.115L74.346 280.152Z" fill="white"/>
<path d="M65.894 276.901L65.885 287.281L73.665 280.861L65.894 276.901Z" fill="white"/>
<path d="M87.629 287.357L87.639 276.122L79.771 280.744L87.629 287.357Z" fill="white"/>
<path d="M87.082 288.127L78.91 281.25L77.429 282.12C77.214 282.241 76.978 282.301 76.744 282.301C76.525 282.301 76.307 282.248 76.107 282.142L74.558 281.327C74.537 281.356 74.512 281.383 74.484 281.406L66.359 288.11C66.271 288.182 66.165 288.218 66.06 288.218C66 288.218 65.941 288.205 65.886 288.182V288.319C65.886 288.783 66.261 289.159 66.725 289.159L86.791 289.177C87.255 289.177 87.631 288.802 87.631 288.338V288.165C87.556 288.21 87.472 288.236 87.387 288.236C87.277 288.237 87.17 288.201 87.082 288.127Z" fill="white"/>
<path opacity="0.69" d="M146.077 275.307H93.7531C93.4771 275.307 93.2531 275.083 93.2531 274.807C93.2531 274.531 93.4771 274.307 93.7531 274.307H146.077C146.353 274.307 146.577 274.531 146.577 274.807C146.577 275.083 146.353 275.307 146.077 275.307Z" fill="white"/>
<path opacity="0.69" d="M117.132 281.514H93.752C93.476 281.514 93.252 281.29 93.252 281.014C93.252 280.738 93.476 280.514 93.752 280.514H117.132C117.408 280.514 117.632 280.738 117.632 281.014C117.632 281.291 117.409 281.514 117.132 281.514Z" fill="white"/>
<path opacity="0.69" d="M117.132 288.575H93.752C93.476 288.575 93.252 288.351 93.252 288.075C93.252 287.799 93.476 287.575 93.752 287.575H117.132C117.408 287.575 117.632 287.799 117.632 288.075C117.632 288.351 117.409 288.575 117.132 288.575Z" fill="white"/>
<path opacity="0.69" d="M146.077 281.514H122.697C122.421 281.514 122.197 281.29 122.197 281.014C122.197 280.738 122.421 280.514 122.697 280.514H146.077C146.353 280.514 146.577 280.738 146.577 281.014C146.577 281.291 146.353 281.514 146.077 281.514Z" fill="white"/>
<path d="M129.204 317.715H149.045C149.678 317.715 150.285 317.973 150.724 318.429L155.66 323.553C156.235 324.15 157.243 323.743 157.243 322.914V315.141V295.648C157.243 292.9 155.015 290.672 152.267 290.672H128.415C126.179 290.672 124.365 292.485 124.365 294.722V312.877C124.365 315.548 126.532 317.715 129.204 317.715Z" fill="#FFB86A"/>
<path d="M148.474 306.493C149.412 306.493 150.173 305.732 150.173 304.794C150.173 303.856 149.412 303.095 148.474 303.095C147.536 303.095 146.775 303.856 146.775 304.794C146.775 305.732 147.536 306.493 148.474 306.493Z" fill="white"/>
<path d="M140.512 306.493C141.45 306.493 142.211 305.732 142.211 304.794C142.211 303.856 141.45 303.095 140.512 303.095C139.574 303.095 138.813 303.856 138.813 304.794C138.813 305.732 139.574 306.493 140.512 306.493Z" fill="white"/>
<path d="M132.364 306.493C133.302 306.493 134.063 305.732 134.063 304.794C134.063 303.856 133.302 303.095 132.364 303.095C131.426 303.095 130.665 303.856 130.665 304.794C130.665 305.732 131.426 306.493 132.364 306.493Z" fill="white"/>
<path d="M527.727 343.231H580.756C583.574 343.231 585.859 345.541 585.859 348.39V368.599V376.658C585.859 377.517 584.825 377.939 584.235 377.32L579.174 372.008C578.723 371.535 578.102 371.268 577.453 371.268L527.727 371.209C525.292 371.209 523.318 369.213 523.318 366.752V347.689C523.318 345.227 525.292 343.231 527.727 343.231Z" fill="#FFB86A"/>
<path d="M568.311 352.124H555.748C555.472 352.124 555.248 351.9 555.248 351.624C555.248 351.348 555.472 351.124 555.748 351.124H568.311C568.587 351.124 568.811 351.348 568.811 351.624C568.811 351.9 568.587 352.124 568.311 352.124Z" fill="white"/>
<path d="M567.283 356.714H553.788C553.512 356.714 553.288 356.49 553.288 356.214C553.288 355.938 553.512 355.714 553.788 355.714H567.283C567.559 355.714 567.783 355.938 567.783 356.214C567.783 356.49 567.56 356.714 567.283 356.714Z" fill="white"/>
<path d="M550.565 356.714H530.24C529.964 356.714 529.74 356.49 529.74 356.214C529.74 355.938 529.964 355.714 530.24 355.714H550.565C550.841 355.714 551.065 355.938 551.065 356.214C551.065 356.49 550.841 356.714 550.565 356.714Z" fill="white"/>
<path d="M567.283 361.304H545.786C545.51 361.304 545.286 361.08 545.286 360.804C545.286 360.528 545.51 360.304 545.786 360.304H567.283C567.559 360.304 567.783 360.528 567.783 360.804C567.783 361.08 567.56 361.304 567.283 361.304Z" fill="white"/>
<path d="M595.251 344.302H580.313C579.836 344.302 579.38 344.496 579.049 344.839L575.333 348.697C574.9 349.146 574.141 348.84 574.141 348.216V342.364V327.688C574.141 325.619 575.818 323.941 577.888 323.941H595.846C597.53 323.941 598.895 325.306 598.895 326.99V340.658C598.894 342.671 597.263 344.302 595.251 344.302Z" fill="#FF8904"/>
<path d="M582.022 334.574C582.022 335.28 581.449 335.853 580.743 335.853C580.037 335.853 579.464 335.28 579.464 334.574C579.464 333.868 580.037 333.295 580.743 333.295C581.449 333.295 582.022 333.867 582.022 334.574Z" fill="white"/>
<path d="M588.016 334.574C588.016 335.28 587.443 335.853 586.737 335.853C586.031 335.853 585.458 335.28 585.458 334.574C585.458 333.868 586.031 333.295 586.737 333.295C587.444 333.295 588.016 333.867 588.016 334.574Z" fill="white"/>
<path d="M594.151 334.574C594.151 335.28 593.578 335.853 592.872 335.853C592.166 335.853 591.593 335.28 591.593 334.574C591.593 333.868 592.166 333.295 592.872 333.295C593.579 333.295 594.151 333.867 594.151 334.574Z" fill="white"/>
<path d="M569.872 131.417C568.753 131.417 567.842 130.506 567.842 129.387C567.842 128.268 568.753 127.358 569.872 127.358C570.991 127.358 571.901 128.268 571.901 129.387C571.901 130.506 570.991 131.417 569.872 131.417ZM569.872 128.358C569.304 128.358 568.842 128.82 568.842 129.387C568.842 129.955 569.304 130.417 569.872 130.417C570.439 130.417 570.901 129.955 570.901 129.387C570.901 128.82 570.439 128.358 569.872 128.358Z" fill="#FF8904"/>
<path d="M576.236 131.417C575.117 131.417 574.207 130.506 574.207 129.387C574.207 128.268 575.117 127.358 576.236 127.358C577.355 127.358 578.266 128.268 578.266 129.387C578.266 130.506 577.355 131.417 576.236 131.417ZM576.236 128.358C575.669 128.358 575.207 128.82 575.207 129.387C575.207 129.955 575.669 130.417 576.236 130.417C576.804 130.417 577.266 129.955 577.266 129.387C577.266 128.82 576.804 128.358 576.236 128.358Z" fill="#FF8904"/>
<path d="M582.113 131.417C580.994 131.417 580.084 130.506 580.084 129.387C580.084 128.268 580.994 127.358 582.113 127.358C583.232 127.358 584.143 128.268 584.143 129.387C584.143 130.506 583.232 131.417 582.113 131.417ZM582.113 128.358C581.546 128.358 581.084 128.82 581.084 129.387C581.084 129.955 581.546 130.417 582.113 130.417C582.681 130.417 583.143 129.955 583.143 129.387C583.143 128.82 582.681 128.358 582.113 128.358Z" fill="#FF8904"/>
<path d="M592.402 135.634H559.469C556.374 135.634 553.857 133.116 553.857 130.022V129.523C553.857 126.429 556.374 123.911 559.469 123.911H592.402C595.497 123.911 598.014 126.429 598.014 129.523V130.023C598.014 133.116 595.497 135.634 592.402 135.634ZM559.469 124.661C556.788 124.661 554.607 126.842 554.607 129.523V130.022C554.607 132.703 556.789 134.884 559.469 134.884H592.402C595.083 134.884 597.264 132.703 597.264 130.022V129.522C597.264 126.841 595.082 124.66 592.402 124.66L559.469 124.661Z" fill="#FF8904"/>
<path d="M500.866 240.527C502.888 231.964 497.585 223.383 489.022 221.361C480.459 219.339 471.878 224.642 469.856 233.205C467.834 241.768 473.136 250.349 481.699 252.371C490.263 254.393 498.844 249.09 500.866 240.527Z" fill="#FF8904"/>
<path d="M490.611 237.956V233.994C490.611 231.088 488.255 228.731 485.348 228.731C482.442 228.731 480.086 231.087 480.086 233.994V237.956C478.81 238.037 477.797 239.087 477.797 240.384C477.797 241.733 478.891 242.827 480.24 242.827H483.084C483.178 244.001 484.15 244.928 485.348 244.928C486.546 244.928 487.518 244.001 487.612 242.827H490.456C491.805 242.827 492.899 241.733 492.899 240.384C492.899 239.087 491.887 238.037 490.611 237.956Z" fill="white"/>
<path d="M630.946 231.963H518.934C512.777 231.963 507.786 226.972 507.786 220.815C507.786 214.658 512.777 209.667 518.934 209.667H630.947C637.104 209.667 642.095 214.658 642.095 220.815C642.095 226.972 637.103 231.963 630.946 231.963Z" fill="#FFB86A"/>
<path d="M620.592 226.334H544.153C541.105 226.334 538.634 223.863 538.634 220.815C538.634 217.767 541.105 215.296 544.153 215.296H620.592C623.64 215.296 626.111 217.767 626.111 220.815C626.111 223.863 623.64 226.334 620.592 226.334Z" fill="white"/>
<path d="M523.124 223.704C520.78 223.704 518.874 221.798 518.874 219.455C518.874 217.112 520.78 215.206 523.124 215.206C525.467 215.206 527.373 217.112 527.373 219.455C527.373 220.472 527.008 221.457 526.344 222.228C525.535 223.166 524.361 223.704 523.124 223.704ZM523.124 216.205C521.332 216.205 519.874 217.662 519.874 219.454C519.874 221.246 521.332 222.703 523.124 222.703C524.07 222.703 524.968 222.291 525.586 221.574C526.094 220.984 526.373 220.231 526.373 219.453C526.373 217.663 524.916 216.205 523.124 216.205Z" fill="white"/>
<path d="M530.125 226.424C529.997 226.424 529.869 226.375 529.772 226.278L525.68 222.186C525.485 221.991 525.485 221.674 525.68 221.479C525.875 221.284 526.192 221.284 526.387 221.479L530.479 225.571C530.674 225.766 530.674 226.083 530.479 226.278C530.381 226.376 530.253 226.424 530.125 226.424Z" fill="white"/>
<path d="M591.232 185.666C591.232 180.098 595.745 175.585 601.312 175.585C606.879 175.585 611.393 180.098 611.393 185.666C611.393 191.233 606.879 195.747 601.312 195.747C595.745 195.746 591.232 191.233 591.232 185.666Z" fill="#F7AB48"/>
<path d="M601.479 189.106L596.962 186.51C596.483 186.235 596.317 185.623 596.593 185.144C596.868 184.664 597.478 184.501 597.958 184.775L601.148 186.608L610.688 177.069C611.079 176.678 611.711 176.678 612.102 177.069C612.493 177.46 612.493 178.092 612.102 178.483L601.479 189.106Z" fill="white"/>
</svg>
