<svg width="700" height="438" viewBox="0 0 700 438" fill="none" xmlns="http://www.w3.org/2000/svg">
<rect width="700" height="440" transform="translate(0 -2)" fill="#F7F7F9"/>
<path d="M516.346 361.798H226.563C225.265 361.798 224.212 360.752 224.212 359.461V356.679C224.212 355.388 225.265 354.341 226.563 354.341H516.346C517.644 354.341 518.697 355.388 518.697 356.679V359.461C518.697 360.752 517.644 361.798 516.346 361.798Z" fill="#F7AB48"/>
<path d="M498.997 310.572H416.89V353.926H498.997V310.572Z" fill="#FF8904"/>
<path d="M498.996 310.572H472.725V353.926H498.996V310.572Z" fill="#FF8904"/>
<path d="M503.176 310.572H412.711V318.15H503.176V310.572Z" fill="#FF8904"/>
<path d="M503.618 318.59H412.711V317.71H502.733V310.572H503.618V318.59Z" fill="black"/>
<path d="M503.175 310.572H472.725V318.15H503.175V310.572Z" fill="#FF8904"/>
<g opacity="0.5">
<path d="M461.795 321.518H426.202V329.78H461.795V321.518Z" fill="#F3FFFE"/>
</g>
<g opacity="0.5">
<path d="M461.795 342.89H426.202V343.724H461.795V342.89Z" fill="#F3FFFE"/>
</g>
<g opacity="0.5">
<path d="M461.795 338.342H426.202V339.176H461.795V338.342Z" fill="#F3FFFE"/>
</g>
<path d="M499.439 354.366H416.89V353.486H498.554V318.15H499.439V354.366Z" fill="black"/>
<path d="M494.507 294.813C494.507 294.813 491.253 302.933 493.97 309.079L431.547 309.541L425.786 309.014L420.712 305.882L420.717 301.095L422.132 297.139L426.743 294.749L494.507 294.813Z" fill="white"/>
<path d="M428.622 310.329L496.063 310.393C496.503 310.393 496.859 310.039 496.859 309.603C496.86 309.166 496.504 308.812 496.065 308.811L428.623 308.747C424.552 308.743 421.243 305.684 421.247 301.929C421.251 298.173 424.566 295.121 428.637 295.125L496.078 295.189C496.518 295.189 496.874 294.836 496.874 294.399C496.875 293.962 496.519 293.608 496.08 293.607L428.638 293.543C423.69 293.538 419.661 297.299 419.656 301.927C419.652 306.555 423.674 310.324 428.622 310.329Z" fill="#FE9A00"/>
<path d="M460.487 302.142L493.584 302.174C493.682 302.174 493.761 302.095 493.761 301.998C493.761 301.901 493.682 301.822 493.584 301.822L460.488 301.791C460.39 301.791 460.311 301.869 460.311 301.966C460.311 302.063 460.389 302.142 460.487 302.142Z" fill="#AAC9F8"/>
<path d="M423.672 302.107L455.827 302.138C455.924 302.138 456.003 302.059 456.003 301.962C456.003 301.865 455.925 301.786 455.827 301.786L423.673 301.756C423.575 301.756 423.496 301.834 423.496 301.931C423.496 302.028 423.575 302.107 423.672 302.107Z" fill="#AAC9F8"/>
<path d="M424.534 305.256L441.031 305.272C441.128 305.272 441.208 305.194 441.208 305.096C441.208 304.999 441.129 304.921 441.031 304.921L424.534 304.905C424.436 304.905 424.357 304.983 424.357 305.08C424.357 305.177 424.436 305.256 424.534 305.256Z" fill="#AAC9F8"/>
<path d="M443.452 305.274L493.581 305.322C493.679 305.322 493.758 305.244 493.758 305.146C493.758 305.049 493.679 304.971 493.581 304.971L443.452 304.923C443.355 304.923 443.275 305.001 443.275 305.098C443.275 305.195 443.353 305.274 443.452 305.274Z" fill="#AAC9F8"/>
<path d="M428.622 310.504L496.063 310.569C496.599 310.569 497.036 310.136 497.036 309.603C497.037 309.07 496.601 308.636 496.065 308.636C495.968 308.636 495.888 308.714 495.888 308.811C495.888 308.909 495.967 308.987 496.065 308.987C496.406 308.988 496.683 309.264 496.683 309.603C496.683 309.942 496.405 310.218 496.064 310.218L428.622 310.153C423.772 310.148 419.829 306.459 419.833 301.928C419.838 297.397 423.787 293.714 428.638 293.719L496.08 293.783C496.421 293.784 496.698 294.06 496.698 294.399C496.697 294.738 496.42 295.014 496.079 295.014C495.981 295.014 495.902 295.092 495.902 295.189C495.902 295.286 495.981 295.365 496.078 295.365C496.614 295.365 497.051 294.932 497.051 294.399C497.051 293.866 496.616 293.432 496.08 293.432L428.639 293.368C423.593 293.363 419.485 297.203 419.48 301.928C419.475 306.652 423.576 310.5 428.622 310.504Z" fill="#21111D"/>
<path d="M475.759 298.831C475.759 298.831 477.878 304.094 476.65 307.966L474.927 305.313C474.927 305.313 473.747 306.717 473.023 307.963C473.023 307.963 471.714 299.311 469.159 298.824L475.759 298.831Z" fill="#FF8904"/>
<path d="M424.54 298.958L493.587 299.023C493.685 299.023 493.764 298.945 493.764 298.848C493.764 298.751 493.685 298.672 493.588 298.672L424.54 298.606C424.443 298.606 424.363 298.685 424.363 298.782C424.363 298.878 424.442 298.957 424.54 298.958Z" fill="#AAC9F8"/>
<path d="M421.392 278.111C421.392 278.111 424.631 286.237 421.903 292.378L484.325 292.958L490.086 292.443L495.166 289.32L495.171 284.533L493.763 280.575L489.157 278.175L421.392 278.111Z" fill="white"/>
<path d="M487.248 293.752L419.807 293.688C419.368 293.688 419.012 293.333 419.012 292.896C419.013 292.459 419.369 292.106 419.808 292.106L487.25 292.171C491.321 292.174 494.636 289.122 494.639 285.366C494.643 281.611 491.334 278.552 487.263 278.548L419.822 278.484C419.382 278.484 419.027 278.129 419.027 277.693C419.028 277.256 419.384 276.902 419.823 276.902L487.265 276.967C492.213 276.972 496.234 280.741 496.23 285.368C496.226 289.996 492.196 293.757 487.248 293.752Z" fill="#FE9A00"/>
<path d="M422.302 285.473L455.399 285.505C455.496 285.505 455.575 285.426 455.575 285.329C455.575 285.232 455.497 285.153 455.399 285.153L422.302 285.122C422.205 285.122 422.125 285.2 422.125 285.297C422.125 285.394 422.204 285.473 422.302 285.473Z" fill="#AAC9F8"/>
<path d="M460.06 285.509L492.214 285.539C492.311 285.539 492.39 285.461 492.39 285.364C492.39 285.267 492.312 285.188 492.214 285.188L460.06 285.157C459.962 285.157 459.883 285.236 459.883 285.333C459.883 285.43 459.962 285.509 460.06 285.509Z" fill="#AAC9F8"/>
<path d="M474.849 288.671L491.347 288.687C491.444 288.687 491.523 288.609 491.523 288.512C491.523 288.415 491.445 288.336 491.347 288.336L474.849 288.32C474.752 288.32 474.672 288.399 474.672 288.496C474.672 288.593 474.751 288.671 474.849 288.671Z" fill="#AAC9F8"/>
<path d="M422.299 288.621L472.429 288.669C472.526 288.669 472.605 288.591 472.605 288.494C472.605 288.397 472.527 288.318 472.429 288.318L422.299 288.27C422.202 288.27 422.122 288.348 422.122 288.446C422.122 288.543 422.201 288.621 422.299 288.621Z" fill="#AAC9F8"/>
<path d="M419.806 293.863L487.248 293.928C492.293 293.933 496.402 290.093 496.406 285.368C496.411 280.643 492.31 276.795 487.264 276.791L419.823 276.726C419.287 276.726 418.851 277.159 418.85 277.692C418.85 278.225 419.285 278.659 419.821 278.659C419.919 278.659 419.998 278.581 419.998 278.484C419.998 278.387 419.919 278.308 419.822 278.308C419.48 278.308 419.203 278.031 419.203 277.692C419.204 277.353 419.482 277.077 419.823 277.078L487.264 277.142C492.115 277.147 496.057 280.837 496.053 285.367C496.049 289.898 492.099 293.581 487.248 293.576L419.807 293.511C419.466 293.511 419.188 293.235 419.189 292.896C419.189 292.557 419.467 292.281 419.808 292.281C419.906 292.281 419.985 292.203 419.985 292.106C419.985 292.009 419.906 291.93 419.808 291.93C419.272 291.93 418.836 292.362 418.835 292.895C418.835 293.429 419.27 293.863 419.806 293.863Z" fill="#21111D"/>
<path d="M430.507 282.155C430.507 282.155 428.377 287.414 429.598 291.288L431.326 288.638C431.326 288.638 432.503 290.045 433.225 291.292C433.225 291.292 434.551 282.643 437.106 282.161L430.507 282.155Z" fill="#FFD6A8"/>
<path d="M422.305 282.323L491.352 282.389C491.45 282.389 491.529 282.31 491.529 282.213C491.529 282.116 491.45 282.037 491.353 282.037L422.305 281.971C422.208 281.971 422.129 282.05 422.129 282.147C422.129 282.244 422.207 282.323 422.305 282.323Z" fill="#AAC9F8"/>
<path d="M377.997 311.63V316.764C368.958 316.764 361.605 324.075 361.605 333.061C361.605 342.047 368.958 349.358 377.997 349.358V351.398C377.997 353.024 379.323 354.343 380.959 354.343H403.778C405.414 354.343 406.74 353.024 406.74 351.398V311.63H377.997ZM365.647 333.061C365.647 326.291 371.187 320.782 377.997 320.782V345.339C371.187 345.339 365.647 339.831 365.647 333.061Z" fill="#FE9A00"/>
<path d="M390.543 332.747L389.861 333.154L394.101 340.181L394.783 339.774L390.543 332.747Z" fill="#49263E"/>
<path d="M395.351 334.09L394.663 334.484L398.667 341.394L399.356 340.999L395.351 334.09Z" fill="#49263E"/>
<g opacity="0.5">
<path d="M394.661 307.282C394.661 307.282 381.202 302.98 385.136 292.358C389.069 281.735 399.989 273.652 394.661 262.961C394.661 262.961 408.276 270.523 404.18 281.474C400.084 292.426 389.5 293.195 394.661 307.282Z" fill="white"/>
</g>
<path d="M310.219 353.973H234.479C232.687 353.973 231.234 352.529 231.234 350.747C231.234 348.965 232.687 347.52 234.479 347.52H306.646L342.142 291.747C343.1 290.242 345.105 289.791 346.62 290.746C348.134 291.699 348.585 293.692 347.627 295.198L310.219 353.973Z" fill="#FF8904"/>
<g opacity="0.5">
<path d="M240.638 351.509H275.702V350.419H240.638V351.509Z" fill="#F3FFFE"/>
</g>
<g opacity="0.5">
<path d="M281.756 351.509H283.361V350.419H281.756V351.509Z" fill="#F3FFFE"/>
</g>
<g opacity="0.5">
<path d="M286.083 351.509H287.688V350.419H286.083V351.509Z" fill="#F3FFFE"/>
</g>
<g opacity="0.5">
<path d="M290.41 351.509H292.015V350.419H290.41V351.509Z" fill="#F3FFFE"/>
</g>
<g opacity="0.5">
<path d="M294.737 351.509H296.342V350.419H294.737V351.509Z" fill="#F3FFFE"/>
</g>
<path d="M310.219 354.525H235.034C234.728 354.525 234.479 354.278 234.479 353.973C234.479 353.669 234.728 353.422 235.034 353.422H309.608C309.798 353.422 309.975 353.325 310.077 353.165L343.861 300.083C344.025 299.826 344.368 299.749 344.626 299.912C344.885 300.075 344.962 300.416 344.799 300.674L310.688 354.268C310.586 354.428 310.409 354.525 310.219 354.525Z" fill="black"/>
<path d="M342.204 227.481H420.335C421.457 227.481 422.367 226.577 422.367 225.461V179.108C422.367 177.992 421.457 177.088 420.335 177.088H342.204C341.082 177.088 340.172 177.992 340.172 179.108V225.461C340.172 226.577 341.082 227.481 342.204 227.481Z" fill="white"/>
<path d="M347.89 186.263H416.428C416.903 186.263 417.287 185.881 417.287 185.409C417.287 184.937 416.903 184.555 416.428 184.555H347.89C347.416 184.555 347.031 184.937 347.031 185.409C347.031 185.881 347.416 186.263 347.89 186.263Z" fill="#FFD6A8"/>
<path d="M347.89 195.962H416.428C416.903 195.962 417.287 195.58 417.287 195.108C417.287 194.636 416.903 194.254 416.428 194.254H347.89C347.416 194.254 347.031 194.636 347.031 195.108C347.031 195.58 347.416 195.962 347.89 195.962Z" fill="#FFD6A8"/>
<path d="M371.896 205.661H416.428C416.903 205.661 417.287 205.279 417.287 204.807C417.287 204.335 416.903 203.953 416.428 203.953H371.896C371.421 203.953 371.037 204.335 371.037 204.807C371.037 205.279 371.422 205.661 371.896 205.661Z" fill="#FFD6A8"/>
<path d="M347.382 205.661H365.152C365.627 205.661 366.011 205.279 366.011 204.807C366.011 204.335 365.627 203.953 365.152 203.953H347.382C346.907 203.953 346.523 204.335 346.523 204.807C346.523 205.279 346.907 205.661 347.382 205.661Z" fill="#FFD6A8"/>
<path d="M388.436 215.36H416.428C416.903 215.36 417.287 214.978 417.287 214.506C417.287 214.034 416.903 213.652 416.428 213.652H388.436C387.962 213.652 387.577 214.034 387.577 214.506C387.578 214.978 387.962 215.36 388.436 215.36Z" fill="#FFD6A8"/>
<path d="M347.382 215.36H382.16C382.634 215.36 383.019 214.978 383.019 214.506C383.019 214.034 382.634 213.652 382.16 213.652H347.382C346.907 213.652 346.523 214.034 346.523 214.506C346.523 214.978 346.907 215.36 347.382 215.36Z" fill="#FFD6A8"/>
<path d="M365.306 225.254C365.222 225.591 346.523 242.206 346.523 242.206L351.559 224.905L365.306 225.254Z" fill="white"/>
<path d="M303.696 144.565H392.564C393.686 144.565 394.596 143.66 394.596 142.544V104.333C394.596 103.217 393.687 102.313 392.564 102.313H303.696C302.574 102.313 301.664 103.218 301.664 104.333V142.544C301.664 143.66 302.574 144.565 303.696 144.565Z" fill="white"/>
<path d="M309.383 113.045H388.658C389.133 113.045 389.517 112.663 389.517 112.191C389.517 111.719 389.133 111.337 388.658 111.337H309.383C308.909 111.337 308.524 111.719 308.524 112.191C308.524 112.663 308.909 113.045 309.383 113.045Z" fill="#F7AB48"/>
<path d="M333.388 122.744H388.658C389.133 122.744 389.517 122.362 389.517 121.89C389.517 121.418 389.133 121.036 388.658 121.036H333.388C332.914 121.036 332.529 121.418 332.529 121.89C332.529 122.362 332.914 122.744 333.388 122.744Z" fill="#F7AB48"/>
<path d="M308.874 122.744H326.645C327.119 122.744 327.504 122.362 327.504 121.89C327.504 121.418 327.119 121.036 326.645 121.036H308.874C308.4 121.036 308.015 121.418 308.015 121.89C308.015 122.362 308.4 122.744 308.874 122.744Z" fill="#F7AB48"/>
<path d="M349.929 132.443H388.658C389.133 132.443 389.517 132.061 389.517 131.589C389.517 131.117 389.133 130.735 388.658 130.735H349.929C349.454 130.735 349.07 131.117 349.07 131.589C349.07 132.061 349.454 132.443 349.929 132.443Z" fill="#F7AB48"/>
<path d="M308.874 132.443H343.652C344.126 132.443 344.511 132.061 344.511 131.589C344.511 131.117 344.127 130.735 343.652 130.735H308.874C308.4 130.735 308.015 131.117 308.015 131.589C308.015 132.061 308.4 132.443 308.874 132.443Z" fill="#F7AB48"/>
<path d="M326.799 142.337C326.714 142.674 308.015 159.289 308.015 159.289L313.051 141.988L326.799 142.337Z" fill="white"/>
<path d="M240.23 290.971H146.439C145.092 290.971 144 289.885 144 288.545V245.999C144 244.66 145.092 243.573 146.439 243.573H240.23C241.577 243.573 242.67 244.659 242.67 245.999V288.546C242.67 289.885 241.577 290.971 240.23 290.971Z" fill="white"/>
<path d="M233.404 254.588H151.129C150.559 254.588 150.098 254.129 150.098 253.563C150.098 252.997 150.559 252.538 151.129 252.538H233.404C233.973 252.538 234.435 252.997 234.435 253.563C234.435 254.129 233.973 254.588 233.404 254.588Z" fill="#FF8904"/>
<path d="M233.404 266.231H151.129C150.559 266.231 150.098 265.773 150.098 265.206C150.098 264.64 150.559 264.181 151.129 264.181H233.404C233.973 264.181 234.435 264.64 234.435 265.206C234.435 265.773 233.973 266.231 233.404 266.231Z" fill="#FF8904"/>
<path d="M204.586 277.874H151.128C150.559 277.874 150.097 277.416 150.097 276.849C150.097 276.283 150.559 275.824 151.128 275.824H204.586C205.156 275.824 205.617 276.283 205.617 276.849C205.618 277.416 205.156 277.874 204.586 277.874Z" fill="#FF8904"/>
<path d="M234.014 277.874H212.682C212.112 277.874 211.651 277.416 211.651 276.849C211.651 276.283 212.113 275.824 212.682 275.824H234.014C234.584 275.824 235.045 276.283 235.045 276.849C235.045 277.416 234.584 277.874 234.014 277.874Z" fill="#FF8904"/>
<path d="M212.497 288.297C212.599 288.702 235.045 308.647 235.045 308.647L229 287.878L212.497 288.297Z" fill="white"/>
<path d="M283.659 212.393H168.856C167.659 212.393 166.689 211.429 166.689 210.239V160.828C166.689 159.638 167.659 158.674 168.856 158.674H283.659C284.855 158.674 285.825 159.638 285.825 160.828V210.239C285.825 211.429 284.856 212.393 283.659 212.393Z" fill="white"/>
<path d="M277.597 168.455H173.02C172.514 168.455 172.104 168.047 172.104 167.545C172.104 167.042 172.514 166.634 173.02 166.634H277.597C278.103 166.634 278.513 167.042 278.513 167.545C278.513 168.047 278.103 168.455 277.597 168.455Z" fill="#FFD6A8"/>
<path d="M277.597 178.794H173.02C172.514 178.794 172.104 178.387 172.104 177.884C172.104 177.381 172.514 176.973 173.02 176.973H277.597C278.103 176.973 278.513 177.381 278.513 177.884C278.513 178.387 278.103 178.794 277.597 178.794Z" fill="#FFD6A8"/>
<path d="M252.008 189.133H173.019C172.514 189.133 172.104 188.725 172.104 188.223C172.104 187.72 172.514 187.312 173.019 187.312H252.008C252.513 187.312 252.923 187.72 252.923 188.223C252.923 188.725 252.514 189.133 252.008 189.133Z" fill="#FFD6A8"/>
<path d="M278.139 189.133H259.196C258.691 189.133 258.281 188.725 258.281 188.223C258.281 187.72 258.691 187.312 259.196 187.312H278.139C278.645 187.312 279.055 187.72 279.055 188.223C279.055 188.725 278.645 189.133 278.139 189.133Z" fill="#FFD6A8"/>
<path d="M234.376 199.472H173.02C172.514 199.472 172.104 199.064 172.104 198.562C172.104 198.059 172.514 197.651 173.02 197.651H234.376C234.881 197.651 235.291 198.059 235.291 198.562C235.291 199.064 234.881 199.472 234.376 199.472Z" fill="#FFD6A8"/>
<path d="M278.139 199.472H241.067C240.561 199.472 240.151 199.064 240.151 198.562C240.151 198.059 240.561 197.651 241.067 197.651H278.139C278.645 197.651 279.055 198.059 279.055 198.562C279.055 199.064 278.645 199.472 278.139 199.472Z" fill="#FFD6A8"/>
<path d="M259.032 210.018C259.123 210.378 275.963 229.749 275.963 229.749L273.687 209.647L259.032 210.018Z" fill="white"/>
<path d="M241.171 342.561C240.854 342.61 240.529 342.451 240.383 342.148C240.358 342.097 239.769 340.877 238.885 338.694C238.731 338.313 238.917 337.88 239.299 337.727C239.679 337.574 240.117 337.758 240.272 338.139C241.135 340.272 241.724 341.492 241.729 341.504C241.908 341.874 241.752 342.318 241.38 342.496C241.312 342.528 241.242 342.55 241.171 342.561Z" fill="#FF8904"/>
<path d="M237.105 332.029C236.748 332.085 236.394 331.876 236.28 331.524C235.494 329.109 234.782 326.644 234.162 324.199C234.061 323.801 234.303 323.397 234.703 323.297C235.105 323.197 235.51 323.438 235.61 323.835C236.222 326.249 236.926 328.682 237.701 331.066C237.829 331.457 237.613 331.876 237.22 332.002C237.182 332.014 237.144 332.024 237.105 332.029ZM233.394 317.35C232.994 317.412 232.616 317.145 232.544 316.747C232.407 315.984 232.278 315.216 232.16 314.465C231.883 312.698 231.654 310.923 231.48 309.19C231.439 308.782 231.729 308.42 232.149 308.377C232.56 308.336 232.926 308.634 232.967 309.042C233.138 310.748 233.363 312.496 233.636 314.236C233.752 314.976 233.879 315.733 234.015 316.485C234.088 316.889 233.817 317.275 233.411 317.347C233.406 317.348 233.4 317.349 233.394 317.35ZM231.908 302.29C231.873 302.295 231.837 302.298 231.801 302.299C231.388 302.303 231.05 301.975 231.045 301.565C231.015 298.967 231.112 296.397 231.335 293.927C231.372 293.519 231.736 293.218 232.146 293.254C232.557 293.291 232.861 293.652 232.824 294.061C232.605 296.48 232.51 298.999 232.539 301.548C232.544 301.921 232.27 302.234 231.908 302.29ZM297.765 283.998C297.418 284.052 297.071 283.855 296.948 283.515C296.808 283.128 297.01 282.703 297.399 282.564C299.759 281.722 301.696 280.341 303.155 278.458C303.407 278.133 303.876 278.073 304.203 278.323C304.53 278.574 304.591 279.04 304.339 279.365C302.703 281.476 300.538 283.023 297.904 283.963C297.858 283.979 297.811 283.991 297.765 283.998ZM290.275 284.87C290.193 284.883 290.106 284.882 290.019 284.865C287.545 284.395 285.277 282.833 283.46 280.348C283.217 280.017 283.291 279.552 283.625 279.311C283.959 279.069 284.426 279.143 284.669 279.475C286.258 281.648 288.205 283.008 290.301 283.406C290.706 283.483 290.972 283.872 290.894 284.275C290.833 284.592 290.578 284.823 290.275 284.87ZM233.303 287.242C233.216 287.255 233.126 287.254 233.035 287.235C232.631 287.152 232.372 286.758 232.456 286.357C232.987 283.819 233.676 281.333 234.505 278.969C234.64 278.581 235.066 278.376 235.456 278.512C235.846 278.647 236.052 279.07 235.916 279.458C235.109 281.762 234.436 284.185 233.919 286.659C233.854 286.971 233.601 287.196 233.303 287.242ZM306.775 272.733C306.698 272.745 306.617 272.745 306.535 272.731C306.128 272.662 305.854 272.279 305.923 271.874C306.303 269.654 306.298 267.265 305.908 264.775L305.876 264.578C305.81 264.174 306.087 263.792 306.495 263.727C306.496 263.726 306.498 263.726 306.499 263.726C306.904 263.663 307.286 263.938 307.351 264.342L307.384 264.546C307.799 267.195 307.803 269.745 307.396 272.123C307.342 272.447 307.084 272.685 306.775 272.733ZM281.027 273.796C280.657 273.853 280.294 273.626 280.193 273.258C279.884 272.136 279.63 270.948 279.438 269.725C279.231 268.405 279.094 267.024 279.029 265.622C279.011 265.212 279.333 264.868 279.742 264.846C280.154 264.827 280.503 265.145 280.522 265.554C280.584 266.903 280.716 268.229 280.915 269.497C281.098 270.664 281.339 271.798 281.634 272.865C281.743 273.261 281.509 273.67 281.111 273.778C281.083 273.785 281.055 273.791 281.027 273.796ZM238.327 272.995C238.176 273.018 238.015 272.996 237.869 272.921C237.503 272.732 237.359 272.284 237.549 271.919C238.729 269.649 240.086 267.448 241.584 265.379C241.825 265.046 242.292 264.97 242.627 265.21C242.962 265.449 243.038 265.914 242.797 266.247C241.342 268.258 240.022 270.396 238.876 272.601C238.762 272.821 238.554 272.96 238.327 272.995ZM304.509 257.971C304.186 258.021 303.856 257.855 303.714 257.544C302.676 255.271 301.364 253.167 299.813 251.29C299.552 250.973 299.598 250.505 299.917 250.245C300.236 249.984 300.706 250.03 300.968 250.347C302.602 252.324 303.983 254.538 305.075 256.93C305.245 257.304 305.079 257.744 304.703 257.913C304.639 257.942 304.574 257.961 304.509 257.971ZM280.211 258.764C280.143 258.774 280.073 258.776 280.002 258.767C279.593 258.716 279.303 258.345 279.354 257.938C279.667 255.449 280.183 252.918 280.885 250.414C280.996 250.019 281.409 249.788 281.806 249.898C282.203 250.009 282.436 250.418 282.324 250.814C281.641 253.247 281.141 255.706 280.836 258.122C280.794 258.459 280.532 258.715 280.211 258.764ZM247.152 260.712C246.933 260.746 246.702 260.683 246.527 260.52C246.225 260.24 246.21 259.77 246.491 259.47C248.246 257.604 250.128 255.831 252.083 254.202C252.399 253.938 252.871 253.98 253.136 254.294C253.401 254.609 253.359 255.077 253.043 255.341C251.134 256.932 249.297 258.662 247.583 260.485C247.464 260.611 247.312 260.687 247.152 260.712ZM294.772 246.629C294.607 246.655 294.431 246.626 294.276 246.534C292.214 245.317 289.909 244.445 287.426 243.94C287.021 243.858 286.76 243.466 286.843 243.063C286.925 242.661 287.322 242.402 287.725 242.484C290.372 243.022 292.833 243.955 295.039 245.256C295.394 245.465 295.511 245.921 295.3 246.274C295.182 246.473 294.985 246.596 294.772 246.629ZM258.808 251.017C258.525 251.061 258.229 250.939 258.064 250.684C257.841 250.339 257.942 249.879 258.289 249.657C260.491 248.251 262.767 247.008 265.05 245.963C265.426 245.792 265.869 245.955 266.042 246.327C266.214 246.7 266.05 247.141 265.675 247.313C263.454 248.329 261.24 249.539 259.096 250.908C259.006 250.965 258.908 251.001 258.808 251.017ZM284.261 244.215C284.126 244.236 283.985 244.22 283.85 244.163C283.472 244.001 283.297 243.564 283.46 243.187C284.464 240.872 285.64 238.574 286.954 236.359C287.164 236.005 287.622 235.888 287.978 236.096C288.333 236.305 288.451 236.761 288.242 237.114C286.959 239.276 285.812 241.517 284.832 243.775C284.727 244.018 284.506 244.177 284.261 244.215ZM272.617 244.76C272.247 244.818 271.885 244.591 271.783 244.223C271.674 243.827 271.907 243.418 272.306 243.309C274.895 242.601 277.481 242.158 279.948 242C280.36 241.973 280.715 242.284 280.742 242.693C280.769 243.102 280.466 243.457 280.044 243.482C277.678 243.635 275.194 244.061 272.701 244.742C272.674 244.75 272.645 244.756 272.617 244.76ZM291.982 231.206C291.784 231.237 291.575 231.189 291.405 231.056C291.081 230.802 291.025 230.335 291.28 230.012C292.835 228.05 294.597 226.152 296.519 224.369C296.822 224.09 297.294 224.106 297.575 224.406C297.857 224.706 297.841 225.176 297.539 225.456C295.672 227.187 293.961 229.029 292.455 230.932C292.333 231.085 292.162 231.178 291.982 231.206ZM303.048 220.868C302.778 220.91 302.494 220.802 302.324 220.565C302.085 220.231 302.162 219.767 302.498 219.529C304.519 218.096 306.709 216.72 309.009 215.442C309.368 215.241 309.824 215.369 310.025 215.727C310.227 216.086 310.098 216.538 309.738 216.738C307.486 217.991 305.343 219.337 303.367 220.739C303.269 220.808 303.159 220.851 303.048 220.868ZM316.305 213.444C315.98 213.494 315.648 213.325 315.508 213.011C315.34 212.636 315.51 212.197 315.887 212.031C318.161 211.027 320.561 210.08 323.024 209.216C323.414 209.078 323.84 209.282 323.977 209.669C324.115 210.056 323.911 210.48 323.522 210.617C321.096 211.468 318.732 212.401 316.494 213.389C316.432 213.416 316.368 213.434 316.305 213.444ZM330.657 208.38C330.287 208.438 329.925 208.212 329.823 207.845C329.713 207.45 329.946 207.04 330.343 206.931C332.778 206.259 335.286 205.653 337.795 205.129C338.195 205.044 338.595 205.302 338.68 205.704C338.764 206.105 338.506 206.499 338.102 206.583C335.623 207.101 333.147 207.699 330.742 208.362C330.714 208.37 330.685 208.376 330.657 208.38Z" fill="#FF8904"/>
<path d="M349.323 204.83C349.304 204.833 349.285 204.836 349.266 204.837C349.253 204.838 347.89 204.947 345.602 205.268C345.194 205.325 344.816 205.043 344.758 204.637C344.701 204.234 344.98 203.861 345.382 203.799C345.386 203.798 345.39 203.798 345.393 203.797C347.731 203.469 349.091 203.36 349.148 203.356C349.559 203.324 349.919 203.629 349.951 204.037C349.983 204.428 349.705 204.771 349.323 204.83Z" fill="#FF8904"/>
<path d="M360.55 209.987L363.976 204.593C363.976 204.593 384.31 199.157 384.577 198.967C384.843 198.777 394.644 191.824 394.644 191.824L381.161 193.123L359.808 199.633L360.55 209.987Z" fill="#FFD6A8"/>
<path d="M353.192 189.771L394.644 191.824L359.808 199.633L353.192 189.771Z" fill="#FF8904"/>
<path d="M363.976 204.593L370.941 215.107L394.644 191.824L363.976 204.593Z" fill="#FF8904"/>
<path d="M526.587 164.383C543.322 147.744 543.322 120.767 526.587 104.128C509.852 87.4887 482.72 87.4887 465.985 104.128C449.25 120.767 449.25 147.744 465.985 164.383C482.72 181.023 509.852 181.023 526.587 164.383Z" fill="#FF8904"/>
<path d="M521.457 159.282C535.358 145.46 535.358 123.051 521.457 109.229C507.555 95.4065 485.017 95.4065 471.115 109.229C457.214 123.051 457.214 145.46 471.115 159.282C485.017 173.104 507.555 173.104 521.457 159.282Z" fill="#F3FFFE"/>
<path d="M495.99 98.8593C495.957 98.8597 495.925 98.8612 495.892 98.8615L496.258 133.924L530.025 122.925C525.238 108.825 511.771 98.7262 495.99 98.8593Z" fill="#FFEDD4"/>
<path d="M502.157 169.425C502.03 169.425 501.919 169.33 501.899 169.205C501.878 169.066 501.973 168.936 502.112 168.914C513.85 166.979 524.067 159.004 528.777 148.099C528.818 148.004 528.911 147.943 529.014 147.943C529.055 147.943 529.095 147.953 529.133 147.973C529.252 148.036 529.304 148.181 529.251 148.303C524.399 159.533 514.286 167.428 502.199 169.421C502.185 169.424 502.171 169.425 502.157 169.425Z" fill="black"/>
<path d="M495.145 134.354C495.407 135.17 496.104 135.668 496.665 135.439L515.734 127.668L515.707 127.589L495.719 132.606C495.145 132.75 494.881 133.53 495.136 134.327C495.139 134.336 495.142 134.345 495.145 134.354Z" fill="#FF8904"/>
<path d="M468.449 135.65L462.417 135.638L462.423 132.733L468.455 132.745L468.449 135.65ZM462.806 135.253L468.062 135.264L468.066 133.13L462.81 133.119L462.806 135.253Z" fill="black"/>
<path d="M530.161 135.771L524.129 135.759L524.135 132.854L530.168 132.866L530.161 135.771ZM524.518 135.374L529.774 135.385L529.778 133.251L524.522 133.24L524.518 135.374Z" fill="black"/>
<path d="M497.686 167.933L494.764 167.928L494.776 161.93L497.698 161.936L497.686 167.933ZM495.153 167.542L497.299 167.547L497.309 162.321L495.163 162.316L495.153 167.542Z" fill="black"/>
<path d="M497.808 106.574L494.886 106.568L494.898 100.57L497.82 100.576L497.808 106.574ZM495.275 106.183L497.421 106.187L497.431 100.961L495.285 100.957L495.275 106.183Z" fill="black"/>
<path d="M496.256 135.503C497.117 135.515 497.807 134.746 497.759 133.829L496.131 102.627L496.047 102.627L494.756 133.843C494.719 134.74 495.386 135.491 496.227 135.503C496.237 135.503 496.247 135.503 496.256 135.503Z" fill="#FF8904"/>
<path d="M535.844 117.245C533.631 112.163 530.486 107.608 526.496 103.708C522.506 99.8076 517.873 96.7577 512.724 94.6436C507.394 92.4548 501.742 91.3698 495.927 91.4187C493.624 91.4382 491.314 91.6397 489.061 92.0182C479.077 93.6958 469.957 98.8774 463.382 106.609C462.912 107.162 462.458 107.728 462.018 108.302C461.959 108.379 461.968 108.487 462.036 108.555L462.039 108.558C462.121 108.639 462.257 108.629 462.327 108.537C468.668 100.242 478.073 94.3251 489.137 92.4662C491.366 92.0918 493.651 91.8921 495.931 91.8729C519.433 91.6751 538.715 110.525 538.914 133.892C539.017 145.971 534.095 156.98 525.932 164.803C525.843 164.887 525.855 165.031 525.957 165.099C526.033 165.15 526.134 165.141 526.2 165.078C527.25 164.071 528.253 163.01 529.201 161.894C535.847 154.08 539.459 144.134 539.371 133.888C539.322 128.107 538.135 122.507 535.844 117.245Z" fill="black"/>
</svg>
