<svg width="700" height="440" viewBox="0 0 700 440" fill="none" xmlns="http://www.w3.org/2000/svg">
<rect width="700" height="440" fill="#F7F7F9"/>
<path d="M497.439 300.149C497.439 301.249 496.546 302.142 495.446 302.142C494.345 302.142 493.453 301.25 493.453 300.149C493.453 299.048 494.345 298.156 495.446 298.156C496.546 298.156 497.439 299.048 497.439 300.149Z" fill="#FFD6A8"/>
<path d="M497.593 290.412C497.593 291.513 496.7 292.405 495.599 292.405C494.499 292.405 493.606 291.513 493.606 290.412C493.606 289.311 494.499 288.418 495.599 288.418C496.7 288.418 497.593 289.311 497.593 290.412Z" fill="#FFD6A8"/>
<path d="M497.593 280.675C497.593 281.777 496.7 282.669 495.599 282.669C494.499 282.669 493.606 281.777 493.606 280.675C493.606 279.575 494.499 278.682 495.599 278.682C496.7 278.682 497.593 279.574 497.593 280.675Z" fill="#FFD6A8"/>
<path d="M477.002 352.849H404.877C403.598 352.849 402.561 351.812 402.561 350.533V332.006C402.561 330.727 403.598 329.69 404.877 329.69H477.002C478.281 329.69 479.317 330.727 479.317 332.006V350.533C479.318 351.812 478.281 352.849 477.002 352.849Z" fill="#FE9A00"/>
<path opacity="0.49" d="M475.348 343.585H413.148C412.784 343.585 412.486 343.288 412.486 342.923V341.6C412.486 341.236 412.783 340.938 413.148 340.938H475.348C475.711 340.938 476.009 341.236 476.009 341.6V342.923C476.009 343.288 475.712 343.585 475.348 343.585Z" fill="white"/>
<path opacity="0.49" d="M452.98 348.218H413.019C412.726 348.218 412.487 347.978 412.487 347.686V346.102C412.487 345.81 412.726 345.571 413.019 345.571H452.98C453.272 345.571 453.511 345.81 453.511 346.102V347.686C453.511 347.978 453.272 348.218 452.98 348.218Z" fill="white"/>
<path d="M451.665 336.969H413.01C412.722 336.969 412.487 336.733 412.487 336.446V334.845C412.487 334.558 412.722 334.322 413.01 334.322H451.665C451.953 334.322 452.188 334.558 452.188 334.845V336.446C452.189 336.733 451.953 336.969 451.665 336.969Z" fill="white"/>
<path d="M496.377 321.564H248.62C243.878 321.564 240.035 317.72 240.035 312.979V117.217C240.035 112.475 243.878 108.632 248.62 108.632H496.377C501.118 108.632 504.962 112.475 504.962 117.217V312.978C504.962 317.72 501.118 321.564 496.377 321.564Z" fill="#FE9A00"/>
<path d="M492.442 317.621H243.539C239.005 317.621 235.33 313.946 235.33 309.412V112.897C235.33 108.364 239.006 104.689 243.539 104.689H492.442C496.975 104.689 500.65 108.364 500.65 112.897V309.412C500.651 313.945 496.975 317.621 492.442 317.621Z" fill="white"/>
<mask id="mask0_75_2171" style="mask-type:luminance" maskUnits="userSpaceOnUse" x="235" y="104" width="266" height="214">
<path d="M492.442 317.621H243.539C239.005 317.621 235.33 313.946 235.33 309.412V112.897C235.33 108.364 239.006 104.689 243.539 104.689H492.442C496.975 104.689 500.65 108.364 500.65 112.897V309.412C500.651 313.945 496.975 317.621 492.442 317.621Z" fill="white"/>
</mask>
<g mask="url(#mask0_75_2171)">
<path d="M528.844 90.0421H202.606V137.36H528.844V90.0421Z" fill="#FF8904"/>
</g>
<path d="M487.132 145.247H248.287V307.481H487.132V145.247Z" stroke="#FFB86A" stroke-width="0.6972" stroke-miterlimit="10"/>
<path d="M281.24 144.965V307.199" stroke="#FFB86A" stroke-width="0.6972" stroke-miterlimit="10"/>
<path d="M316.166 145.247V307.481" stroke="#FFB86A" stroke-width="0.6972" stroke-miterlimit="10"/>
<path d="M350.528 144.965V307.199" stroke="#FFB86A" stroke-width="0.6972" stroke-miterlimit="10"/>
<path d="M385.454 145.247V307.481" stroke="#FFB86A" stroke-width="0.6972" stroke-miterlimit="10"/>
<path d="M418.125 144.965V307.199" stroke="#FFB86A" stroke-width="0.6972" stroke-miterlimit="10"/>
<path d="M453.051 145.247V307.481" stroke="#FFB86A" stroke-width="0.6972" stroke-miterlimit="10"/>
<path d="M248.568 178.764H487.413" stroke="#FFB86A" stroke-width="0.6972" stroke-miterlimit="10"/>
<path d="M248.85 210.873H487.695" stroke="#FFB86A" stroke-width="0.6972" stroke-miterlimit="10"/>
<path d="M248.568 242.982H487.413" stroke="#FFB86A" stroke-width="0.6972" stroke-miterlimit="10"/>
<path d="M248.85 275.09H487.695" stroke="#FFB86A" stroke-width="0.6972" stroke-miterlimit="10"/>
<path d="M253.638 119.898C253.638 121.298 252.503 122.432 251.103 122.432C249.703 122.432 248.569 121.297 248.569 119.898C248.569 118.497 249.704 117.363 251.103 117.363C252.503 117.363 253.638 118.497 253.638 119.898Z" fill="white"/>
<path d="M262.933 120.18C262.933 121.58 261.797 122.714 260.398 122.714C258.998 122.714 257.863 121.579 257.863 120.18C257.863 118.779 258.998 117.645 260.398 117.645C261.798 117.644 262.933 118.779 262.933 120.18Z" fill="#FE9A00"/>
<path d="M272.509 120.18C272.509 121.58 271.374 122.714 269.974 122.714C268.575 122.714 267.44 121.579 267.44 120.18C267.44 118.779 268.575 117.645 269.974 117.645C271.374 117.645 272.509 118.779 272.509 120.18Z" fill="#FDC27B"/>
<path d="M423.758 267.485H362.357C361.269 267.485 360.385 266.603 360.385 265.514V249.742C360.385 248.652 361.269 247.77 362.357 247.77H423.758C424.848 247.77 425.73 248.653 425.73 249.742V265.515C425.73 266.603 424.848 267.485 423.758 267.485Z" fill="#FFEDD4"/>
<path d="M307.137 202.142H268.862C268.076 202.142 267.439 201.504 267.439 200.718V187.229C267.439 186.443 268.076 185.805 268.862 185.805H307.137C307.923 185.805 308.56 186.443 308.56 187.229V200.718C308.561 201.504 307.924 202.142 307.137 202.142Z" fill="#FDC27B"/>
<path d="M321.235 173.412H259.834C258.745 173.412 257.862 172.53 257.862 171.441V155.668C257.862 154.579 258.745 153.696 259.834 153.696H321.235C322.325 153.696 323.207 154.579 323.207 155.668V171.441C323.207 172.53 322.325 173.412 321.235 173.412Z" fill="#FE9A00"/>
<path d="M316.447 159.33H263.496C263.186 159.33 262.933 159.076 262.933 158.766V157.64C262.933 157.33 263.186 157.077 263.496 157.077H316.447C316.757 157.077 317.01 157.331 317.01 157.64V158.766C317.01 159.076 316.757 159.33 316.447 159.33Z" fill="white"/>
<path opacity="0.49" d="M316.447 163.273H263.496C263.186 163.273 262.933 163.019 262.933 162.71V161.583C262.933 161.274 263.186 161.02 263.496 161.02H316.447C316.757 161.02 317.01 161.274 317.01 161.583V162.71C317.01 163.019 316.757 163.273 316.447 163.273Z" fill="white"/>
<path opacity="0.49" d="M297.405 167.216H263.385C263.136 167.216 262.933 167.012 262.933 166.763V165.415C262.933 165.167 263.136 164.963 263.385 164.963H297.405C297.654 164.963 297.858 165.167 297.858 165.415V166.763C297.858 167.012 297.655 167.216 297.405 167.216Z" fill="white"/>
<path d="M440.658 299.031H379.257C378.168 299.031 377.286 298.149 377.286 297.06V281.287C377.286 280.198 378.168 279.315 379.257 279.315H440.658C441.747 279.315 442.629 280.198 442.629 281.287V297.06C442.629 298.149 441.747 299.031 440.658 299.031Z" fill="#FE9A00"/>
<path opacity="0.49" d="M436.433 291.708H383.481C383.171 291.708 382.918 291.455 382.918 291.145V290.019C382.918 289.709 383.172 289.456 383.481 289.456H436.433C436.742 289.456 436.996 289.709 436.996 290.019V291.145C436.997 291.455 436.743 291.708 436.433 291.708Z" fill="white"/>
<path opacity="0.49" d="M417.391 295.651H383.371C383.122 295.651 382.918 295.448 382.918 295.199V293.851C382.918 293.602 383.122 293.399 383.371 293.399H417.391C417.639 293.399 417.843 293.602 417.843 293.851V295.199C417.844 295.448 417.64 295.651 417.391 295.651Z" fill="white"/>
<path d="M416.272 286.075H383.363C383.119 286.075 382.918 285.875 382.918 285.63V284.268C382.918 284.023 383.119 283.822 383.363 283.822H416.272C416.516 283.822 416.717 284.023 416.717 284.268V285.63C416.717 285.875 416.516 286.075 416.272 286.075Z" fill="white"/>
<path d="M405.17 230.871H343.768C342.679 230.871 341.797 229.988 341.797 228.899V213.126C341.797 212.037 342.679 211.155 343.768 211.155H405.17C406.259 211.155 407.141 212.037 407.141 213.126V228.899C407.141 229.988 406.258 230.871 405.17 230.871Z" fill="#FFEDD4"/>
<path opacity="0.49" d="M403.761 222.984H350.81C350.5 222.984 350.247 222.73 350.247 222.421V221.294C350.247 220.985 350.5 220.731 350.81 220.731H403.761C404.071 220.731 404.324 220.985 404.324 221.294V222.421C404.324 222.73 404.071 222.984 403.761 222.984Z" fill="white"/>
<path opacity="0.49" d="M384.719 226.927H350.699C350.45 226.927 350.247 226.723 350.247 226.474V225.127C350.247 224.878 350.45 224.674 350.699 224.674H384.719C384.968 224.674 385.172 224.878 385.172 225.127V226.474C385.172 226.723 384.968 226.927 384.719 226.927Z" fill="white"/>
<path d="M383.599 217.35H350.691C350.446 217.35 350.246 217.15 350.246 216.905V215.543C350.246 215.298 350.446 215.098 350.691 215.098H383.599C383.844 215.098 384.044 215.298 384.044 215.543V216.905C384.045 217.15 383.845 217.35 383.599 217.35Z" fill="white"/>
<path d="M483.879 199.888H421.66C420.797 199.888 420.097 199.188 420.097 198.325V189.058C420.097 188.196 420.796 187.495 421.66 187.495H483.879C484.742 187.495 485.442 188.195 485.442 189.058V198.325C485.441 199.188 484.741 199.888 483.879 199.888Z" fill="#FDC27B"/>
<path opacity="0.49" d="M477.555 197.635H424.604C424.294 197.635 424.04 197.382 424.04 197.072V195.946C424.04 195.636 424.294 195.383 424.604 195.383H477.555C477.865 195.383 478.118 195.636 478.118 195.946V197.072C478.118 197.382 477.865 197.635 477.555 197.635Z" fill="white"/>
<path d="M457.394 192.565H424.486C424.241 192.565 424.04 192.365 424.04 192.12V190.758C424.04 190.513 424.241 190.312 424.486 190.312H457.394C457.639 190.312 457.839 190.513 457.839 190.758V192.12C457.839 192.365 457.639 192.565 457.394 192.565Z" fill="white"/>
<path d="M272.77 240.446H253.096C251.995 240.446 251.103 239.554 251.103 238.454V218.78C251.103 217.679 251.995 216.787 253.096 216.787H272.77C273.87 216.787 274.762 217.679 274.762 218.78V238.454C274.762 239.554 273.87 240.446 272.77 240.446Z" fill="#FE9A00"/>
<path d="M265.186 229.18C265.186 231.669 263.168 233.687 260.68 233.687C258.191 233.687 256.174 231.669 256.174 229.18C256.174 226.692 258.191 224.674 260.68 224.674C263.168 224.674 265.186 226.692 265.186 229.18Z" fill="white"/>
<path d="M443.453 175.103H423.779C422.679 175.103 421.787 174.211 421.787 173.11V153.436C421.787 152.336 422.679 151.444 423.779 151.444H443.453C444.554 151.444 445.446 152.336 445.446 153.436V173.11C445.446 174.211 444.554 175.103 443.453 175.103Z" fill="#FFEDD4"/>
<path d="M431.363 159.048C431.363 160.137 430.481 161.019 429.392 161.019C428.303 161.019 427.42 160.137 427.42 159.048C427.42 157.959 428.303 157.076 429.392 157.076C430.48 157.076 431.363 157.959 431.363 159.048Z" fill="white"/>
<path d="M433.617 166.371C433.617 164.349 435.256 162.71 437.279 162.71C439.301 162.71 440.94 164.349 440.94 166.371C440.94 168.394 439.3 170.033 437.279 170.033C435.256 170.032 433.617 168.393 433.617 166.371Z" fill="white"/>
<path d="M341.494 313.114H321.82C320.719 313.114 319.827 312.222 319.827 311.121V291.447C319.827 290.347 320.719 289.455 321.82 289.455H341.494C342.594 289.455 343.486 290.347 343.486 291.447V311.121C343.486 312.222 342.594 313.114 341.494 313.114Z" fill="#FDC27B"/>
<path d="M336.726 307.763C336.726 308.852 335.844 309.734 334.755 309.734C333.666 309.734 332.783 308.851 332.783 307.763C332.783 306.673 333.666 305.791 334.755 305.791C335.844 305.791 336.726 306.674 336.726 307.763Z" fill="white"/>
<path d="M335.037 299.594C335.037 301.772 333.271 303.537 331.094 303.537C328.916 303.537 327.151 301.772 327.151 299.594C327.151 297.417 328.916 295.651 331.094 295.651C333.271 295.651 335.037 297.417 335.037 299.594Z" fill="white"/>
<path d="M485.16 122.714H410.803C409.403 122.714 408.268 121.579 408.268 120.18C408.268 118.779 409.404 117.645 410.803 117.645H485.16C486.56 117.645 487.695 118.78 487.695 120.18C487.695 121.579 486.559 122.714 485.16 122.714Z" fill="#FDC27B"/>
<path d="M269.441 110.159H197.316C196.037 110.159 195 109.122 195 107.843V89.3157C195 88.0367 196.037 87 197.316 87H269.44C270.719 87 271.756 88.0367 271.756 89.3157V107.843C271.757 109.121 270.72 110.159 269.441 110.159Z" fill="#FDC27B"/>
<path opacity="0.49" d="M267.786 100.895H205.587C205.224 100.895 204.925 100.598 204.925 100.233V98.9099C204.925 98.5463 205.223 98.2482 205.587 98.2482H267.786C268.151 98.2482 268.448 98.5463 268.448 98.9099V100.233C268.448 100.597 268.151 100.895 267.786 100.895Z" fill="white"/>
<path opacity="0.49" d="M245.419 105.527H205.457C205.165 105.527 204.925 105.287 204.925 104.995V103.411C204.925 103.119 205.165 102.88 205.457 102.88H245.419C245.712 102.88 245.951 103.119 245.951 103.411V104.995C245.951 105.287 245.712 105.527 245.419 105.527Z" fill="white"/>
<path d="M244.104 94.2777H205.448C205.161 94.2777 204.925 94.0425 204.925 93.7549V92.1542C204.925 91.8666 205.161 91.6315 205.448 91.6315H244.104C244.391 91.6315 244.626 91.8666 244.626 92.1542V93.7549C244.627 94.0425 244.392 94.2777 244.104 94.2777Z" fill="white"/>
</svg>
