<svg width="700" height="440" viewBox="0 0 700 440" fill="none" xmlns="http://www.w3.org/2000/svg">
<path d="M143.393 179.859H534.893" stroke="#FFF7F4" stroke-width="1.7399" stroke-miterlimit="10"/>
<path d="M529.985 376.721H148.301C145.59 376.721 143.393 374.519 143.393 371.802V148.602C143.393 145.886 145.59 143.683 148.301 143.683H529.985C532.696 143.683 534.893 145.885 534.893 148.602V371.802C534.893 374.519 532.695 376.721 529.985 376.721Z" stroke="#FFF7F4" stroke-width="1.7399" stroke-miterlimit="10"/>
<path d="M132.386 95.6549H77.5031C76.1451 95.6549 75.0441 94.5539 75.0441 93.1959V93.1909C75.0441 91.8329 76.1451 90.7319 77.5031 90.7319H132.386C133.744 90.7319 134.845 91.8329 134.845 93.1909V93.1959C134.845 94.5539 133.744 95.6549 132.386 95.6549Z" fill="#FFEDD4"/>
<path d="M663.413 204.69H639.738C638.38 204.69 637.279 203.589 637.279 202.231V202.226C637.279 200.868 638.38 199.767 639.738 199.767H663.413C664.771 199.767 665.872 200.868 665.872 202.226V202.231C665.873 203.589 664.772 204.69 663.413 204.69Z" fill="#FFEDD4"/>
<path d="M62.8341 383.08H39.16C37.802 383.08 36.701 381.979 36.701 380.621V380.616C36.701 379.258 37.802 378.157 39.16 378.157H62.8341C64.1921 378.157 65.2931 379.258 65.2931 380.616V380.621C65.2941 381.979 64.1931 383.08 62.8341 383.08Z" fill="#FFEDD4"/>
<path d="M578.064 383.549H530.513C529.201 383.549 528.138 382.486 528.138 381.174V381.169C528.138 379.857 529.201 378.794 530.513 378.794H578.064C579.376 378.794 580.439 379.857 580.439 381.169V381.174C580.44 382.485 579.376 383.549 578.064 383.549Z" fill="#FFEDD4"/>
<path d="M250.135 92.3389H245.684C244.512 92.3389 243.562 91.3889 243.562 90.2169V86.0209C243.562 84.8489 244.512 83.8989 245.684 83.8989H250.135C251.307 83.8989 252.257 84.8489 252.257 86.0209V90.2169C252.256 91.3889 251.306 92.3389 250.135 92.3389Z" fill="#FFEDD4"/>
<path d="M179.124 92.7969C179.124 96.4729 176.185 99.4529 172.56 99.4529C168.935 99.4529 165.997 96.4729 165.997 92.7969C165.997 89.1209 168.935 86.1409 172.56 86.1409C176.186 86.1409 179.124 89.1209 179.124 92.7969Z" stroke="#FFF7F4" stroke-width="1.7707" stroke-miterlimit="10"/>
<path d="M636.323 380.623C636.323 384.299 633.384 387.279 629.759 387.279C626.134 387.279 623.196 384.299 623.196 380.623C623.196 376.947 626.134 373.967 629.759 373.967C633.384 373.967 636.323 376.947 636.323 380.623Z" stroke="#FFF7F4" stroke-width="1.7707" stroke-miterlimit="10"/>
<path d="M48.127 259.957C48.127 263.633 45.188 266.613 41.563 266.613C37.938 266.613 35 263.633 35 259.957C35 256.281 37.938 253.301 41.563 253.301C45.188 253.301 48.127 256.281 48.127 259.957Z" stroke="#FFF7F4" stroke-width="1.7707" stroke-miterlimit="10"/>
<path d="M179.523 226.236H44.894C41.359 226.236 38.494 223.371 38.494 219.836V126.301C38.494 122.766 41.359 119.901 44.894 119.901H179.522C183.056 119.901 185.922 122.766 185.922 126.301V219.836C185.922 223.371 183.057 226.236 179.523 226.236Z" fill="#FF8C3E"/>
<path d="M166.723 136.18H57.863V167.127H166.723V136.18Z" fill="#FFFEFB"/>
<path d="M166.723 176.866H57.863V207.813H166.723V176.866Z" fill="#FFFEFB"/>
<path d="M97.2991 148.638H150.286" stroke="#FFB86A" stroke-width="0.926" stroke-miterlimit="10"/>
<path d="M97.2991 155.595H131.651" stroke="#FFB86A" stroke-width="0.926" stroke-miterlimit="10"/>
<path d="M97.2991 187.858H150.286" stroke="#FFB86A" stroke-width="0.926" stroke-miterlimit="10"/>
<path d="M97.2991 194.815H131.651" stroke="#FFB86A" stroke-width="0.926" stroke-miterlimit="10"/>
<path d="M88.1966 153.304C89.107 147.741 85.3351 142.493 79.7718 141.583C74.2084 140.672 68.9604 144.444 68.05 150.008C67.1396 155.571 70.9116 160.819 76.4749 161.729C82.0382 162.64 87.2862 158.868 88.1966 153.304Z" fill="#FF8904"/>
<path d="M73.5769 152.165L77.3969 154.957L81.9429 149.183" stroke="white" stroke-width="1.7604" stroke-miterlimit="10" stroke-linecap="round" stroke-linejoin="round"/>
<path d="M78.117 202.547C83.7542 202.547 88.324 197.977 88.324 192.34C88.324 186.703 83.7542 182.133 78.117 182.133C72.4799 182.133 67.91 186.703 67.91 192.34C67.91 197.977 72.4799 202.547 78.117 202.547Z" fill="#FF8904"/>
<path d="M73.577 192.851L77.397 195.643L81.943 189.869" stroke="white" stroke-width="1.7604" stroke-miterlimit="10" stroke-linecap="round" stroke-linejoin="round"/>
<path d="M195.622 332.72H99.58C97.087 332.72 95.066 330.699 95.066 328.206V264.774C95.066 262.281 97.087 260.26 99.58 260.26H195.622C198.115 260.26 200.136 262.281 200.136 264.774V328.206C200.136 330.699 198.115 332.72 195.622 332.72Z" fill="#FFB86A"/>
<path d="M195.622 332.72H99.58C97.087 332.72 95.066 330.699 95.066 328.206V264.774C95.066 262.281 97.087 260.26 99.58 260.26H195.622C198.115 260.26 200.136 262.281 200.136 264.774V328.206C200.136 330.699 198.115 332.72 195.622 332.72Z" stroke="#FFF7F4" stroke-width="1.7399" stroke-miterlimit="10"/>
<path d="M169.718 345.721H73.676C71.183 345.721 69.162 343.7 69.162 341.207V277.775C69.162 275.282 71.183 273.261 73.676 273.261H169.718C172.211 273.261 174.232 275.282 174.232 277.775V341.207C174.232 343.701 172.211 345.721 169.718 345.721Z" fill="#FFB86A"/>
<path d="M169.718 345.721H73.676C71.183 345.721 69.162 343.7 69.162 341.207V277.775C69.162 275.282 71.183 273.261 73.676 273.261H169.718C172.211 273.261 174.232 275.282 174.232 277.775V341.207C174.232 343.701 172.211 345.721 169.718 345.721Z" fill="#FF8904"/>
<path d="M105.178 307.228H97.3579V330.342H105.178V307.228Z" fill="#FF8C3E"/>
<path d="M119.005 297.465H111.185V330.341H119.005V297.465Z" fill="#FF8C3E"/>
<path d="M132.832 290.633H125.012V330.341H132.832V290.633Z" fill="#FFFEFB"/>
<path d="M146.659 316.167H138.839V330.342H146.659V316.167Z" fill="#FFFEFB"/>
<path d="M155.709 331.066H89.486C89.141 331.066 88.861 330.786 88.861 330.441V291.059C88.861 290.714 89.141 290.434 89.486 290.434C89.831 290.434 90.111 290.714 90.111 291.059V329.816H155.709C156.054 329.816 156.334 330.096 156.334 330.441C156.333 330.786 156.054 331.066 155.709 331.066Z" fill="#FFFEFB"/>
<path d="M648.595 179.843H532.617C527.307 179.843 523.003 175.539 523.003 170.229V96.002H658.209V170.229C658.209 175.539 653.905 179.843 648.595 179.843Z" fill="white"/>
<path d="M658.209 79.3269V96.0019H523.003V79.3269C523.003 76.0139 525.688 73.3289 529.001 73.3289H652.21C655.524 73.3289 658.209 76.0139 658.209 79.3269Z" fill="#FF8904"/>
<path d="M602.873 83.6829C602.873 86.4279 605.099 88.6539 607.844 88.6539C610.589 88.6539 612.815 86.4289 612.815 83.6829C612.815 80.9369 610.59 78.7119 607.844 78.7119C605.098 78.7119 602.873 80.9379 602.873 83.6829Z" fill="#FF8C3E"/>
<path d="M607.843 85.5499C609.416 85.5499 610.692 84.2739 610.692 82.7009V69.8319C610.692 68.2589 609.416 66.9829 607.843 66.9829C606.27 66.9829 604.994 68.2579 604.994 69.8319V82.7009C604.994 84.2739 606.27 85.5499 607.843 85.5499Z" fill="#FF8C3E"/>
<path d="M559.491 83.6829C559.491 86.4279 561.716 88.6539 564.462 88.6539C567.207 88.6539 569.433 86.4289 569.433 83.6829C569.433 80.9369 567.208 78.7119 564.462 78.7119C561.716 78.7119 559.491 80.9379 559.491 83.6829Z" fill="#FF8C3E"/>
<path d="M564.461 85.5499C566.034 85.5499 567.31 84.2739 567.31 82.7009V69.8319C567.31 68.2589 566.034 66.9829 564.461 66.9829C562.888 66.9829 561.612 68.2579 561.612 69.8319V82.7009C561.612 84.2739 562.888 85.5499 564.461 85.5499Z" fill="#FF8C3E"/>
<path d="M592.967 133.13H613.059V113.038H592.967V133.13Z" stroke="#FFB86A" stroke-width="1.0519" stroke-miterlimit="10"/>
<path d="M566.235 133.13H586.327V113.038H566.235V133.13Z" stroke="#FFB86A" stroke-width="1.0519" stroke-miterlimit="10"/>
<path d="M539.504 133.13H559.596V113.038H539.504V133.13Z" stroke="#FFB86A" stroke-width="1.0519" stroke-miterlimit="10"/>
<path d="M592.967 158.634H613.059V138.542H592.967V158.634Z" stroke="#FFB86A" stroke-width="1.0519" stroke-miterlimit="10"/>
<path d="M566.235 158.634H586.327V138.542H566.235V158.634Z" fill="#FF8904"/>
<path d="M619.824 133.13H639.916V113.038H619.824V133.13Z" stroke="#FFB86A" stroke-width="1.0519" stroke-miterlimit="10"/>
<path d="M619.824 158.634H639.916V138.542H619.824V158.634Z" stroke="#FFB86A" stroke-width="1.0519" stroke-miterlimit="10"/>
<path d="M539.504 158.634H559.596V138.542H539.504V158.634Z" stroke="#FFB86A" stroke-width="1.0519" stroke-miterlimit="10"/>
<path d="M483.865 139.334C488.316 119.728 476.03 100.227 456.425 95.7755C436.819 91.3244 417.317 103.61 412.866 123.215C408.415 142.821 420.7 162.323 440.306 166.774C459.912 171.225 479.413 158.94 483.865 139.334Z" fill="#FFFEFB"/>
<path d="M466.583 119.731H430.11V142.571H466.583V119.731Z" fill="#FF8904"/>
<path d="M430.11 119.731L447.816 131.274L466.583 119.731" stroke="white" stroke-width="1.2062" stroke-miterlimit="10" stroke-linecap="round" stroke-linejoin="round"/>
<path d="M413.369 118.983C422.235 118.983 429.423 111.795 429.423 102.929C429.423 94.0626 422.235 86.875 413.369 86.875C404.503 86.875 397.315 94.0626 397.315 102.929C397.315 111.795 404.503 118.983 413.369 118.983Z" fill="#FF8C3E"/>
<path d="M406.227 103.733L412.236 108.124L419.387 99.043" stroke="white" stroke-width="2.769" stroke-miterlimit="10" stroke-linecap="round" stroke-linejoin="round"/>
<path d="M231.438 241.443H277.712V218.032C277.712 216.091 276.139 214.518 274.198 214.518H231.438C229.497 214.518 227.924 216.091 227.924 218.032V237.929C227.924 239.87 229.497 241.443 231.438 241.443Z" fill="#FFFEFB"/>
<path d="M277.71 235.872L277.747 247.769L267.589 235.904L277.71 235.872Z" fill="#FFFEFB"/>
<path d="M244.424 227.675C244.428 228.913 243.427 229.92 242.189 229.923C240.951 229.927 239.945 228.926 239.941 227.689C239.937 226.451 240.937 225.444 242.175 225.441C243.413 225.436 244.42 226.437 244.424 227.675Z" fill="#FF8904"/>
<path d="M254.038 227.645C254.042 228.883 253.042 229.89 251.804 229.893C250.566 229.897 249.559 228.897 249.556 227.659C249.552 226.421 250.553 225.414 251.79 225.411C253.028 225.406 254.034 226.407 254.038 227.645Z" fill="#FF8904"/>
<path d="M263.652 227.615C263.656 228.853 262.655 229.86 261.418 229.863C260.18 229.867 259.173 228.866 259.17 227.629C259.166 226.391 260.166 225.384 261.404 225.381C262.642 225.376 263.648 226.377 263.652 227.615Z" fill="#FF8904"/>
<path d="M352.188 115.496H223.75C221.156 115.496 219.054 113.393 219.054 110.8V56.696C219.054 54.102 221.157 52 223.75 52H352.188C354.782 52 356.884 54.103 356.884 56.696V110.8C356.884 113.393 354.781 115.496 352.188 115.496Z" fill="#FFB86A"/>
<path d="M352.188 115.496H223.75C221.156 115.496 219.054 113.393 219.054 110.8V56.696C219.054 54.102 221.157 52 223.75 52H352.188C354.782 52 356.884 54.103 356.884 56.696V110.8C356.884 113.393 354.781 115.496 352.188 115.496Z" stroke="#FFF7F4" stroke-width="1.8103" stroke-miterlimit="10"/>
<path d="M260.182 103.977C272.295 103.977 282.115 94.1573 282.115 82.0441C282.115 69.9308 272.295 60.1111 260.182 60.1111C248.069 60.1111 238.249 69.9308 238.249 82.0441C238.249 94.1573 248.069 103.977 260.182 103.977Z" fill="#FF8904"/>
<path d="M289.588 68.843H335.249" stroke="#FFF7F4" stroke-width="1.8103" stroke-miterlimit="10"/>
<path d="M289.588 78.7839H319.881" stroke="#FFF7F4" stroke-width="1.8103" stroke-miterlimit="10"/>
<path d="M327.758 85.8801H294.888C290.751 85.8801 287.398 89.2341 287.398 93.3701C287.398 97.5071 290.751 100.86 294.888 100.86H327.758C331.895 100.86 335.248 97.5061 335.248 93.3701C335.249 89.2341 331.895 85.8801 327.758 85.8801Z" fill="#FF8C3E"/>
<path d="M269.963 80.6542H250.362C250.048 80.6542 249.794 80.4002 249.794 80.0862C249.794 79.1722 249.887 78.2552 250.147 77.3792C250.641 75.7122 251.556 74.2382 252.85 73.0382C253.803 72.1522 254.912 71.4542 256.145 70.9692C257.418 70.4672 258.771 70.2122 260.164 70.2122C261.557 70.2122 262.909 70.4652 264.183 70.9692C265.416 71.4542 266.524 72.1522 267.478 73.0382C268.927 74.3902 269.909 76.0762 270.341 78.0062C270.489 78.6662 270.533 79.3452 270.533 80.0212V80.0862C270.531 80.4002 270.277 80.6542 269.963 80.6542Z" fill="#FFFEFB"/>
<path d="M266.661 90.4381H253.748C251.588 90.4381 249.837 88.6871 249.837 86.5271C249.837 86.1311 250.158 85.8101 250.554 85.8101H269.856C270.252 85.8101 270.573 86.1311 270.573 86.5271C270.572 88.6871 268.821 90.4381 266.661 90.4381Z" fill="#FFFEFB"/>
<path d="M264.052 84.6481C263.219 84.6481 262.427 84.3891 261.753 83.8991C260.856 83.2461 259.629 83.1391 258.754 83.8221C257.926 84.4681 256.898 84.7511 255.829 84.6141C255.155 84.5281 254.52 84.2421 253.973 83.8381C253.256 83.3081 252.314 83.2151 251.52 83.5591C251.205 83.6951 250.84 83.6261 250.632 83.3521C250.352 82.9831 250.492 82.4491 250.915 82.2591C251.537 81.9801 252.226 81.8701 252.936 81.9441C253.666 82.0211 254.34 82.3521 254.943 82.7721C255.799 83.3671 256.95 83.3601 257.797 82.7511C258.355 82.3501 258.989 82.0461 259.671 81.9571C260.738 81.8171 261.767 82.0981 262.6 82.7441C263.483 83.4281 264.714 83.3141 265.62 82.6591C266.287 82.1771 267.074 81.9221 267.902 81.9221C268.46 81.9221 268.999 82.0381 269.497 82.2621C269.919 82.4521 270.056 82.9861 269.776 83.3551C269.57 83.6271 269.207 83.7011 268.894 83.5651C268.088 83.2151 267.133 83.3121 266.413 83.8581C265.724 84.3751 264.909 84.6481 264.052 84.6481Z" fill="#FFFEFB"/>
<path d="M633.143 306.946H525.421C522.928 306.946 520.907 304.925 520.907 302.432V231.802C520.907 229.309 522.928 227.288 525.421 227.288H633.143C635.636 227.288 637.657 229.309 637.657 231.802V302.432C637.656 304.925 635.636 306.946 633.143 306.946Z" fill="#FFB86A"/>
<path d="M633.143 306.946H525.421C522.928 306.946 520.907 304.925 520.907 302.432V231.802C520.907 229.309 522.928 227.288 525.421 227.288H633.143C635.636 227.288 637.657 229.309 637.657 231.802V302.432C637.656 304.925 635.636 306.946 633.143 306.946Z" stroke="#FFF7F4" stroke-width="1.7399" stroke-miterlimit="10"/>
<path d="M602.764 254.283C600.609 249.594 597.208 245.87 593.136 243.328L580.452 264.538L555.332 272.655C555.132 272.029 555.132 272.029 555.332 272.655C555.644 273.636 556.02 274.606 556.461 275.565C562.338 288.35 577.468 293.952 590.254 288.075C603.039 282.199 608.641 267.069 602.764 254.283Z" fill="white"/>
<path d="M568.971 241.773C563.67 244.21 559.604 248.239 557.081 253.033L580.453 264.538L593.137 243.328C591.657 242.403 590.088 241.633 588.459 241.03C584.217 239.46 579.56 239.012 574.972 239.866C572.943 240.242 570.929 240.873 568.971 241.773Z" fill="#FF8C3E"/>
<path d="M557.229 252.756C557.178 252.849 557.129 252.941 557.081 253.033C553.969 258.928 553.198 265.985 555.332 272.656L580.452 264.539L557.229 252.756Z" fill="#FF8904"/>
<path d="M662.924 349.776H611.404C608.761 349.776 606.618 347.633 606.618 344.99V297.565C606.618 295.937 607.938 294.616 609.566 294.616H662.923C664.551 294.616 665.871 295.936 665.871 297.565V346.827C665.873 348.456 664.552 349.776 662.924 349.776Z" fill="#FF8C3E"/>
<path d="M647.15 319.937L645.243 319.603C645.02 318.772 644.689 317.973 644.259 317.228L645.371 315.643C645.78 315.061 645.711 314.269 645.207 313.766L644.065 312.624C643.555 312.13 642.763 312.074 642.188 312.49L640.603 313.602C639.858 313.172 639.059 312.841 638.228 312.618L637.9 310.668C637.781 309.976 637.187 309.466 636.485 309.453H634.839C634.125 309.452 633.515 309.965 633.393 310.668L633.059 312.569C632.228 312.792 631.429 313.123 630.684 313.553L629.105 312.49C628.523 312.081 627.731 312.15 627.228 312.654L626.086 313.796C625.582 314.299 625.513 315.091 625.922 315.673L627.034 317.259C626.604 318.004 626.273 318.803 626.05 319.634L624.149 319.968C623.446 320.089 622.933 320.7 622.934 321.414V323.03C622.932 323.744 623.446 324.354 624.149 324.476L626.05 324.81C626.273 325.641 626.604 326.44 627.034 327.185L625.922 328.77C625.513 329.352 625.582 330.144 626.086 330.647L627.228 331.789C627.731 332.293 628.523 332.362 629.105 331.953L630.691 330.841C631.436 331.271 632.235 331.602 633.066 331.825L633.4 333.726C633.521 334.429 634.132 334.942 634.846 334.941H636.486C637.2 334.942 637.81 334.429 637.932 333.726L638.266 331.825C639.097 331.602 639.896 331.271 640.641 330.841L642.19 331.928C642.772 332.337 643.564 332.268 644.067 331.764L645.209 330.622C645.712 330.119 645.782 329.327 645.373 328.745L644.261 327.147C644.691 326.401 645.022 325.603 645.245 324.772L647.152 324.438C647.855 324.317 648.368 323.706 648.367 322.992V321.376C648.363 320.665 647.851 320.058 647.15 319.937ZM635.644 326.976C632.998 326.976 630.853 324.831 630.853 322.184C630.853 319.538 632.998 317.393 635.644 317.393C638.29 317.393 640.435 319.538 640.435 322.184C640.435 322.193 640.435 322.202 640.435 322.211C640.421 324.847 638.28 326.976 635.644 326.976Z" fill="#FFFEFB"/>
</svg>
