<svg width="598" height="311" viewBox="0 0 598 311" fill="none" xmlns="http://www.w3.org/2000/svg">
    <path
        d="M274.907 1C275.962 1.1998 277.016 1.39961 278.103 1.60547C283.658 2.81687 287.074 3.60524 290.907 8C290.22 9.9375 290.22 9.9375 288.907 12C286.254 12.9323 284.488 13.1253 281.735 12.5312C268.661 10.0753 254.05 11.6598 242.845 19.0625C241.868 19.7915 241.868 19.7915 240.872 20.5352C238.639 22.2 236.302 23.5792 233.907 25C227.772 28.9536 222.467 33.1328 217.501 38.4961C215.907 40 215.907 40 213.907 40C213.662 40.5582 213.417 41.1163 213.165 41.6914C211.668 44.4399 209.828 46.5679 207.782 48.9375C193.826 65.819 178.777 92.9255 176.345 115C175.907 118 175.907 118 174.478 119.773C172.447 122.652 172.014 125.176 171.345 128.625C171.1 129.872 170.855 131.118 170.603 132.402C170.373 133.59 170.144 134.777 169.907 136C169.698 136.909 169.49 137.818 169.274 138.754C168.725 141.164 168.287 143.558 167.907 146C167.751 146.917 167.595 147.833 167.435 148.777C167.141 151.796 167.136 154.062 167.907 157C169.95 159.369 172.14 160.929 174.716 162.703C178.639 165.526 182.04 168.732 185.532 172.062C186.817 173.276 188.102 174.488 189.388 175.699C189.991 176.268 190.595 176.837 191.217 177.423C194.373 180.367 197.619 183.206 200.907 186C202.221 185.189 203.533 184.376 204.845 183.562C205.576 183.11 206.307 182.658 207.06 182.191C208.846 181.131 208.846 181.131 209.907 180C210.138 178.653 210.319 177.296 210.47 175.938C210.614 174.638 210.758 173.339 210.907 172C210 172.248 209.092 172.495 208.157 172.75C204.907 173 204.907 173 202.595 171.438C198.66 165.754 199.397 157.673 199.907 151C200.882 147.168 202.468 143.166 205.907 141C208.845 140.5 208.845 140.5 211.907 141C219.407 147.59 221.902 159.661 223.907 169C224.567 169 225.227 169 225.907 169C225.907 168.34 225.907 167.68 225.907 167C227.2 165.844 227.2 165.844 229.095 164.5C232.963 161.689 236.794 158.839 240.595 155.938C241.141 155.526 241.687 155.115 242.25 154.691C248.645 150.245 248.645 150.245 252.466 143.852C252.426 143.117 252.386 142.382 252.345 141.625C252.302 140.774 252.26 139.923 252.216 139.047C251.604 133.007 250.804 127.004 249.907 121C249.483 121.58 249.059 122.16 248.622 122.758C238.556 136.165 238.556 136.165 229.989 137.754C219.5 138.994 209.809 136.414 199.907 133C200.134 133.908 200.361 134.815 200.595 135.75C200.907 139 200.907 139 199.47 141.375C198.696 142.179 198.696 142.179 197.907 143C194.17 142.786 193.009 142.104 190.345 139.375C188.641 137.161 187.243 134.888 185.907 132.438C184.085 128.923 184.085 128.923 181.22 126.5C178.238 123.276 177.907 121.357 177.907 117C179.264 113.473 180.741 110.192 183.907 108C186.157 107.438 186.157 107.438 188.907 108C192.409 110.41 195.322 113.35 198.157 116.5C206.397 123.991 216.51 127.598 227.575 127.309C231.264 126.82 233.234 125.543 235.907 123C237.145 120.624 238.012 118.499 238.907 116C239.759 114.04 240.613 112.082 241.47 110.125C245.001 101.568 246.138 93.8572 246.661 84.625C246.907 82 246.907 82 247.907 81C248.043 78.3798 248.118 75.7823 248.153 73.1602C248.186 71.5228 248.22 69.8854 248.253 68.248C248.3 65.6679 248.344 63.0878 248.384 60.5076C248.778 36.1296 248.778 36.1296 251.907 33C252.062 31.3603 252.062 31.3603 252.22 29.6875C252.907 26 252.907 26 254.595 23.5625C257.665 21.4877 259.274 21.3187 262.907 22C265.539 24.6136 266.791 26.2699 267.377 29.9634C267.363 31.0402 267.348 32.1171 267.333 33.2266C267.325 34.4241 267.316 35.6216 267.308 36.8555C267.264 38.7214 267.264 38.7214 267.22 40.625C267.21 41.8457 267.2 43.0665 267.19 44.3242C267.111 50.796 266.809 57.1926 266.127 63.6292C265.683 68.4199 265.544 73.1445 266.47 77.875C266.874 80.7618 266.774 82.7963 266.442 85.6602C265.771 92.5663 265.757 99.4494 265.777 106.38C265.782 108.562 265.777 110.745 265.771 112.928C265.767 120.333 265.928 127.647 266.907 135C268.227 134.34 269.547 133.68 270.907 133C270.907 132.34 270.907 131.68 270.907 131C272.595 129.555 272.595 129.555 274.907 127.875C278.923 124.846 282.417 121.593 285.923 117.996C294.35 109.519 294.35 109.519 298.907 108C298.907 107.34 298.907 106.68 298.907 106C299.567 106 300.227 106 300.907 106C301.162 105.267 301.418 104.533 301.681 103.777C304.852 96.5957 311.983 89.6869 318.907 86C322.216 85.0187 325.483 84.407 328.907 84C330.387 79.2122 331.804 74.4112 333.114 69.5742C333.327 68.791 333.54 68.0077 333.76 67.2007C334.183 65.6384 334.603 64.0749 335.017 62.5103C336.296 57.802 337.975 53.4896 339.907 49C340.8 46.2091 341.569 43.3878 342.345 40.5625C344.024 34.6446 345.908 29.3985 348.907 24C349.463 22.7142 350.005 21.4225 350.532 20.125C351.907 17 351.907 17 353.907 15C355.782 14.6992 355.782 14.6992 357.907 14.6875C358.608 14.6707 359.31 14.654 360.032 14.6367C360.651 14.7566 361.27 14.8765 361.907 15C364.858 19.4256 365.091 23.7387 364.907 29C363.956 32.2435 362.487 35.0258 360.907 38C353.724 53.8191 350.875 69.7175 355.97 86.5C357.961 90.8396 361.47 94.0697 364.696 97.5156C367.109 100.226 368.954 102.984 370.778 106.105C372.628 109.21 374.779 112.081 376.907 115C381.837 114.851 384.101 112.214 387.356 108.887C390.033 105.63 390.99 103.894 390.595 99.625C390.194 97.5103 389.783 95.3972 389.349 93.2891C387.62 80.4097 389.638 66.7043 397.231 56.0391C399.805 52.9074 402.653 50.4005 405.907 48C406.732 47.3813 407.557 46.7625 408.407 46.125C413.004 44.0564 417.268 44.6178 421.97 46.0625C426.521 47.9377 429.195 50.9758 431.907 55C432.624 56.0029 433.341 57.0058 434.079 58.0391C436.792 62.8602 436.193 67.7549 435.907 73.125C435.332 80.4253 435.332 80.4253 437.72 87.1172C439.85 89.1917 439.85 89.1917 442.907 90C443.173 89.4689 443.438 88.9378 443.712 88.3906C446.907 82 446.907 82 448.032 80.0469C449.098 77.5548 449.106 75.7 449.032 73C449.014 72.1544 448.996 71.3087 448.978 70.4375C448.954 69.6331 448.931 68.8288 448.907 68C448.907 65.1391 449.036 62.6732 449.407 59.875C449.819 56.4934 449.896 53.2779 449.782 49.875C449.723 45.1428 450.658 42.1532 452.907 38C455.487 35.4201 457.41 35.684 460.935 35.5391C462.907 36 462.907 36 464.614 37.6914C467.95 43.6477 467.208 51.4971 465.907 58C470.722 56.6292 472.952 53.9127 475.782 50C476.216 49.4235 476.651 48.8469 477.098 48.2529C479.765 44.6824 482.191 41.004 484.595 37.25C486.968 33.7998 487.538 33.1292 491.657 31.6875C494.907 32 494.907 32 496.782 33.3125C499.431 37.2852 499.019 41.0009 498.97 45.625C498.965 46.4268 498.961 47.2286 498.956 48.0547C498.944 50.0365 498.926 52.0183 498.907 54C501.697 50.2318 501.697 50.2318 503.345 45.9375C503.907 44 503.907 44 506.22 41.75C511.25 36.6027 513.408 29.9594 515.88 23.2969C517.255 20.2218 518.673 17.6385 521.72 16.0625C525.192 15.9633 526.973 17.1418 529.907 19C532.023 21.6462 533.703 24.5136 535.407 27.4375C539.034 33.6303 542.034 38.4457 549.259 40.75C555.639 41.4516 560.46 40.1828 566.438 37.9102C568.907 37 568.907 37 570.907 37C571.148 36.4986 571.389 35.9971 571.638 35.4805C573.401 32.0355 575.314 28.6803 577.22 25.3125C578.031 23.8738 578.842 22.435 579.653 20.9961C580.042 20.3063 580.432 19.6165 580.833 18.9058C582.153 16.5643 583.471 14.2214 584.782 11.875C585.349 10.8637 585.349 10.8637 585.927 9.83203C586.847 8.11246 587.663 6.33803 588.47 4.5625C590.018 1.80341 590.961 1.01606 593.907 0C596.032 1.5 596.032 1.5 597.907 4C596.843 10.401 594.332 15.6914 591.282 21.375C590.837 22.2106 590.392 23.0463 589.933 23.9072C586.52 30.1709 582.766 35.7531 577.907 41C577.335 41.6626 576.763 42.3252 576.173 43.0078C570.253 49.4975 563.044 52.425 554.364 53.2383C546.104 53.4701 539.101 51.7652 532.532 46.5625C530.086 44.1746 528.038 41.6638 525.907 39C525.247 39 524.587 39 523.907 39C522.618 40.775 522.618 40.775 521.345 43.125C518.766 47.5616 516.106 51.9258 513.345 56.25C512.799 57.1165 512.799 57.1165 512.243 58.0005C508.388 64.0249 504.85 69.4498 497.907 72C494.655 72.6228 492.852 72.6122 490.044 70.793C486.758 68.1056 484.741 65.8366 482.907 62C481.62 63.7104 480.332 65.4211 479.046 67.1326C477.949 68.5913 476.852 70.0491 475.753 71.5061C473.277 74.7979 470.818 78.0922 468.47 81.4766C467.789 82.4537 467.108 83.4308 466.407 84.4375C465.819 85.3025 465.232 86.1674 464.626 87.0586C462.694 89.2407 461.691 89.4777 458.907 90C458.639 90.6806 458.371 91.3612 458.095 92.0625C456.248 96.6306 453.995 100.154 449.907 103C443.987 104.23 438.827 103.96 433.407 101.25C432.582 100.507 431.757 99.765 430.907 99C429.958 98.2575 429.01 97.515 428.032 96.75C427.331 96.1725 426.63 95.595 425.907 95C425.66 95.8688 425.412 96.7377 425.157 97.6328C423.017 103.399 419.536 107.967 414.907 112C409.746 113.519 404.63 112.519 399.907 110C399.567 110.773 399.567 110.773 399.22 111.562C397.907 114 397.907 114 395.595 117.125C391.772 122.384 388.797 128.174 386.845 134.375C385.733 137.489 384.569 139.043 381.907 141C379.211 141 377.963 140.036 375.72 138.562C372.979 134.687 373.085 130.648 372.907 126C371.917 126 370.927 126 369.907 126C369.772 126.923 369.637 127.846 369.497 128.797C367.77 139.574 364.573 149.534 360.752 159.741C360.197 161.225 359.652 162.713 359.117 164.204C357.759 167.96 356.289 171.373 354.157 174.75C351.838 178.468 349.663 182.233 347.532 186.062C341.58 196.182 334.365 202.549 324.587 208.9C322.939 209.979 321.311 211.091 319.685 212.203C316.786 214.182 313.861 216.105 310.907 218C310.27 218.423 309.634 218.846 308.978 219.281C300.457 224.28 288.615 225.255 278.907 225C279.387 226.038 279.387 226.038 279.876 227.098C281.021 230.321 281.247 233.027 281.407 236.438C281.622 240.993 282.307 244.721 283.907 249C286.01 246.145 286.01 246.145 286.845 243.062C287.889 240.053 288.576 238.165 290.907 236C294.031 235.544 295.959 235.39 298.657 237.125C299.907 239 299.907 239 299.72 241.934C298.085 248.984 296.124 255.548 293.169 262.16C291.571 265.757 290.234 269.435 288.899 273.137C287.907 275 287.907 275 284.907 276C284.881 276.568 284.856 277.137 284.829 277.723C284.396 283.615 283.26 288.647 278.907 293C276.084 293.297 274.507 293.428 272.157 291.75C269.545 288.093 269.852 284.359 269.97 280C270.033 272.032 269.534 264.134 268.97 256.188C268.883 254.929 268.796 253.67 268.706 252.373C268.576 250.601 268.576 250.601 268.442 248.793C268.364 247.726 268.285 246.659 268.204 245.559C268.056 243.014 268.056 243.014 266.907 241C266.592 237.92 266.396 234.839 266.188 231.75C266.075 229.041 266.075 229.041 264.907 227C262.101 226.594 259.353 226.297 256.532 226.062C249.403 225.385 242.734 224.255 235.907 222C235.536 223.33 235.536 223.33 235.157 224.688C233.868 228.104 232.307 230.28 229.907 233C227.095 232.938 227.095 232.938 223.907 232C220.414 226.527 220.562 221.347 220.907 215C220.196 214.743 219.484 214.487 218.751 214.223C214.71 212.485 211.262 210.015 207.626 207.559C204.872 205.98 203.081 205.087 199.907 205C197.725 206.383 197.725 206.383 195.782 208.5C192.515 211.62 189.326 214.144 185.47 216.5C175.92 221.968 175.92 221.968 168.907 230C169.123 231.443 169.378 232.88 169.657 234.312C170.122 238.1 170.079 238.732 167.907 242.125C164.907 244 164.907 244 161.22 244.062C157.907 243 157.907 243 156.47 240.938C156.284 240.298 156.098 239.659 155.907 239C151.966 240.783 148.846 242.79 145.586 245.625C143.711 247.161 141.763 248.484 139.739 249.816C138.943 250.342 138.147 250.868 137.326 251.41C136.528 251.935 135.73 252.459 134.907 253C125.843 258.988 116.82 265.011 107.97 271.312C95.3808 280.254 82.1866 288.134 68.9072 296C68.2157 296.41 67.5241 296.82 66.8115 297.242C41.7603 312.023 41.7603 312.023 26.9072 310C23.5505 308.181 21.3067 305.94 18.9072 303C17.9366 301.869 17.9366 301.869 16.9463 300.715C8.96283 290.086 5.24579 277.893 2.90724 265C2.69454 263.89 2.48185 262.78 2.26271 261.637C1.70739 258.429 1.27755 255.235 0.907239 252C0.760286 250.732 0.613333 249.463 0.461927 248.156C-1.1447 231.541 1.46407 215.367 7.90724 200C8.28751 199.001 8.66779 198.002 9.05958 196.973C13.8158 184.786 20.3027 173.855 28.9072 164C29.6523 163.145 30.3974 162.291 31.1651 161.41C33.3825 158.911 35.6353 156.45 37.9072 154C38.7677 153.041 38.7677 153.041 39.6455 152.062C52.2205 138.617 73.7458 128.624 92.1338 127.867C99.7755 127.885 107.305 128.22 114.907 129C114.581 128.25 114.255 127.5 113.919 126.727C111.463 120.975 109.292 115.295 107.579 109.281C106.781 106.572 105.801 103.945 104.782 101.312C103.646 98.3098 102.595 95.2794 101.532 92.25C99.5747 86.7465 97.4358 81.3598 95.1533 75.9844C93.8677 72.9052 92.6597 69.8048 91.4697 66.6875C91.0572 65.6111 90.6447 64.5348 90.2197 63.4258C89.5452 61.6651 88.8708 59.9043 88.2002 58.1421C84.5653 48.6295 80.5796 39.5085 74.9072 31C73.7546 35.5501 73.7962 40.0093 73.8447 44.668C73.8485 45.5028 73.8523 46.3377 73.8562 47.1978C73.8725 50.7512 73.9005 54.3044 73.9277 57.8577C74.1135 84.3362 74.1135 84.3362 69.9072 89C67.4697 89.5625 67.4697 89.5625 64.9072 89C61.784 86.1361 60.6534 83.849 60.333 79.7188C60.2757 77.9797 60.2395 76.2399 60.2197 74.5C60.1665 72.5182 60.1131 70.5365 60.0596 68.5547C60.0375 67.496 60.0154 66.4374 59.9927 65.3467C59.9041 61.8766 59.7582 58.4128 59.5986 54.9453C59.0701 43.1295 58.7352 31.3267 59.0322 19.5C59.0465 18.0143 59.0465 18.0143 59.061 16.4985C59.2339 11.8792 59.4206 9.65131 62.251 5.86328C64.9072 4 64.9072 4 68.2822 3.6875C73.4663 5.56448 75.6476 8.67623 78.9072 13C79.6549 13.9513 80.4026 14.9027 81.1729 15.8828C85.6577 21.6894 89.5129 27.5076 92.9072 34C93.4435 34.8456 93.9797 35.6913 94.5322 36.5625C96.0302 39.218 97.0163 41.9433 98.0401 44.8086C98.9326 47.064 100.006 49.1161 101.157 51.25C104.538 57.8483 106.744 64.8651 109.138 71.8633C110.738 76.5414 112.418 81.1843 114.157 85.8125C114.616 87.0358 115.075 88.2591 115.548 89.5195C116.926 93.0487 118.4 96.524 119.907 100C121.946 104.835 123.855 109.634 125.282 114.688C125.822 116.459 126.364 118.23 126.907 120C127.246 121.216 127.585 122.431 127.935 123.684C130.288 131.246 132.692 135.878 139.845 139.688C142.187 140.816 144.542 141.92 146.907 143C149.269 144.29 151.585 145.639 153.907 147C153.866 146.051 153.825 145.103 153.782 144.125C153.772 139.318 154.689 134.64 155.907 130C156.237 129.67 156.567 129.34 156.907 129C157.093 127.453 157.093 127.453 157.282 125.875C157.818 122.556 158.629 120.152 160.024 117.137C161.167 114.372 161.991 111.554 162.845 108.688C164.321 103.767 166.013 99.0435 167.989 94.3047C168.836 92.1781 169.508 90.0681 170.157 87.875C176.168 69.5869 187.897 52.8261 199.907 38C200.843 36.8321 200.843 36.8321 201.798 35.6406C203.112 34.046 204.5 32.5128 205.907 31C206.567 31 207.227 31 207.907 31C207.907 30.34 207.907 29.68 207.907 29C208.567 29 209.227 29 209.907 29C209.907 28.34 209.907 27.68 209.907 27C211.885 25.1967 214.027 23.6601 216.169 22.0547C218.008 20.6747 219.823 19.2623 221.614 17.8203C236.893 5.73942 254.978 -2.87355 274.907 1ZM407.845 67C402.679 74.9989 402.523 81.6628 402.907 91C403.567 91.33 404.227 91.66 404.907 92C410.71 88.2703 410.71 88.2703 414.407 82.625C414.572 81.7588 414.737 80.8925 414.907 80C415.897 80.33 416.887 80.66 417.907 81C416.891 75.5314 415.836 70.2361 413.907 65C409.907 64.5359 409.907 64.5359 407.845 67ZM342.907 92C341.316 97.5707 340.7 102.211 340.907 108C344.259 104.648 346.783 100.84 346.907 96C345.074 93.6655 345.074 93.6655 342.907 92ZM323.907 107C323.907 110 323.907 110 323.907 110V107ZM317.657 110.688C316.889 110.815 316.121 110.943 315.329 111.074C312.022 112.338 310.344 114.45 307.907 117C305.258 119.186 302.48 121.203 299.724 123.25C296.157 125.936 293.047 128.811 289.907 132C287.861 133.837 285.762 135.606 283.657 137.375C283.092 137.859 282.528 138.343 281.946 138.842C278.626 141.662 275.241 144.108 271.595 146.5C269.271 148.329 268.11 149.327 267.255 152.168C267.137 155.211 267.468 157.983 267.907 161C268.095 162.438 268.282 163.875 268.47 165.312C269.058 169.594 269.735 173.857 270.437 178.122C270.935 181.171 271.414 184.224 271.892 187.277C272.229 189.393 272.568 191.509 272.907 193.625C273.061 194.608 273.215 195.59 273.373 196.602C274.409 202.916 275.915 208.921 277.907 215C289.546 213.907 289.546 213.907 299.907 209C302.423 204.69 304.161 200.041 305.907 195.375C306.301 194.327 306.301 194.327 306.703 193.258C308.602 188.096 310.03 182.92 311.251 177.555C311.846 175.237 312.591 173.228 313.595 171.062C314.882 168.06 315.2 166.217 314.907 163C311.955 166.54 309.512 170.165 307.157 174.125C296.988 190.96 296.988 190.96 292.907 193C292.907 193.66 292.907 194.32 292.907 195C288.598 197.22 285.591 197.149 280.907 196C278.907 193 278.907 193 279.005 189.668C280.037 185.472 281.489 183.516 284.345 180.312C287.529 176.809 287.529 176.809 289.942 172.793C291.203 170.451 292.529 170.11 294.907 169C306.042 158.988 311.842 144.735 316.907 131C317.299 129.939 317.691 128.878 318.095 127.785C318.753 125.982 319.405 124.176 320.048 122.367C320.658 120.686 321.317 119.021 322.009 117.371C322.998 114.759 323.065 112.769 322.907 110C321.122 110 319.41 110.371 317.657 110.688ZM339.907 113C339.322 115.312 338.739 117.625 338.157 119.938C337.977 120.654 337.796 121.37 337.61 122.108C336.668 125.873 335.751 129.641 334.892 133.426C329.721 156.186 329.721 156.186 326.907 159C326.443 161.576 326.072 164.16 325.7 166.75C324.842 170.268 323.509 173.243 321.997 176.52C320.076 180.892 318.6 185.41 317.095 189.938C316.771 190.882 316.446 191.826 316.112 192.799C315.811 193.699 315.51 194.6 315.2 195.527C314.927 196.339 314.654 197.151 314.373 197.988C313.669 200.055 313.669 200.055 314.907 202C317.606 200.041 320.263 198.033 322.907 196C323.578 195.493 324.248 194.987 324.938 194.465C336.003 185.53 343.269 171.251 347.907 158C348.681 156.206 348.681 156.206 349.47 154.375C351.682 149.181 353.027 144.615 353.63 138.984C353.907 137 353.907 137 354.845 133.812C357.88 123.455 357.88 123.455 356.907 113C352.492 114.27 352.492 114.27 348.907 117C345.97 117.375 345.97 117.375 342.907 117C341.216 114.977 341.216 114.977 339.907 113ZM68.9072 147C68.153 147.408 67.3987 147.815 66.6216 148.235C57.7289 153.157 49.588 158.229 42.9072 166C41.9095 166.953 41.9095 166.953 40.8916 167.926C38.8302 170.081 37.4935 172.158 36.0322 174.75C34.156 177.997 32.2307 180.924 29.8447 183.812C26.5125 188.102 24.8832 192.819 23.0674 197.898C22.1048 200.472 21.0524 202.735 19.7197 205.125C17.3208 209.707 16.1331 214.839 15.9072 220C16.5672 220.66 17.2272 221.32 17.9072 222C17.4948 224.829 16.4817 226.985 15.333 229.645C13.5184 234.421 13.7014 238.654 14.0947 243.688C14.1821 245.007 14.1821 245.007 14.2713 246.354C14.7687 253.308 15.4832 260.168 16.9072 267C17.2379 268.636 17.2379 268.636 17.5752 270.305C20.0816 280.683 25.2334 289.056 30.9072 298C49.9192 298 67.4628 283.35 82.2666 272.801C85.6867 270.468 89.1985 268.301 92.7197 266.125C99.3408 262.026 105.792 257.741 112.15 253.242C114.085 251.875 116.025 250.515 117.966 249.156C125.053 244.185 132.104 239.168 139.095 234.062C139.694 233.626 140.293 233.19 140.911 232.741C144.698 229.96 148.324 227.04 151.907 224C150.893 217.16 148.903 211.267 146.13 204.945C145.019 202.269 144.173 199.666 143.407 196.875C142.174 192.511 140.33 188.77 138.228 184.766C136.163 180.442 134.723 175.916 133.165 171.391C131.735 167.536 129.947 164.007 128.028 160.379C126.836 157.849 126.079 155.383 125.345 152.688C124.172 148.628 123.276 145.764 119.907 143C103.639 137.994 83.8848 138.89 68.9072 147ZM139.907 153C141.243 158.465 143.353 163.305 145.731 168.398C147.002 171.211 148.028 174.042 148.907 177C149.237 177 149.567 177 149.907 177C150.183 174.25 150.429 171.504 150.657 168.75C150.779 167.584 150.779 167.584 150.903 166.395C151.322 161.645 151.322 161.645 149.087 157.562C144.884 154.251 144.884 154.251 139.907 153ZM314.907 161C315.907 163 315.907 163 315.907 163L314.907 161ZM248.97 166C244.568 169.506 240.057 172.824 235.485 176.105C232.901 178.004 230.397 179.98 227.907 182C229.032 188.366 230.222 194.719 231.47 201.062C231.719 202.332 231.967 203.602 232.224 204.91C232.752 207.892 232.752 207.892 233.907 210C235.94 210.771 238.011 211.443 240.095 212.062C241.223 212.404 242.351 212.746 243.513 213.098C248.494 214.422 253.129 215.132 258.282 215.062C259.593 215.049 259.593 215.049 260.931 215.035C261.909 215.018 261.909 215.018 262.907 215C262.67 212.864 262.432 210.729 262.192 208.594C262.005 206.886 261.825 205.178 261.653 203.469C261.572 202.675 261.491 201.881 261.407 201.062C261.335 200.332 261.263 199.601 261.188 198.848C260.99 196.91 260.99 196.91 259.907 195C259.643 193.454 259.421 191.9 259.224 190.344C259.101 189.403 258.977 188.462 258.851 187.492C258.725 186.505 258.599 185.517 258.47 184.5C257.548 177.264 256.438 170.134 254.907 163C252.095 163 251.144 164.239 248.97 166ZM165.907 171C164.868 178.171 164.514 185.326 164.22 192.562C164.16 193.756 164.1 194.949 164.038 196.178C163.792 202.234 163.725 207.307 165.907 213C169.808 211.625 172.723 209.829 175.989 207.305C176.921 206.589 177.852 205.874 178.812 205.137C180.251 204.017 180.251 204.017 181.72 202.875C182.699 202.121 183.678 201.367 184.687 200.59C187.097 198.732 189.504 196.868 191.907 195C190.336 191.653 188.725 189.674 185.907 187.25C185.206 186.636 184.505 186.023 183.782 185.391C182.029 183.801 182.029 183.801 179.907 184C179.648 183.403 179.389 182.806 179.122 182.191C177.817 179.837 176.552 178.617 174.47 176.938C172.645 175.452 170.93 174.024 169.31 172.316C167.985 170.772 167.985 170.772 165.907 171ZM211.907 195C212.698 197 212.698 197 213.907 199C214.897 199.33 215.887 199.66 216.907 200C216.577 197.69 216.247 195.38 215.907 193C214.445 192.908 214.445 192.908 211.907 195Z"
        fill="black" />
</svg>