<svg width="700" height="440" viewBox="0 0 700 440" fill="none" xmlns="http://www.w3.org/2000/svg">
<rect width="700" height="440" fill="#F7F7F9"/>
<path d="M394.155 185.671L386.439 185.494C388.918 188.705 389.475 191.663 387.931 194.166C386.388 196.72 382.695 198.819 377.179 200.411C381.354 189.312 383.453 177.605 383.453 165.595C383.453 152.144 380.823 139.097 375.611 126.834C370.602 114.976 363.417 104.306 354.259 95.1782C345.101 86.0252 334.45 78.8446 322.585 73.8129C310.29 68.6294 297.236 66 283.803 66C270.344 66 257.29 68.6296 244.995 73.8129C243.527 74.4451 242.06 75.1023 240.643 75.7852C240.639 75.7873 240.635 75.7894 240.63 75.7916C236.345 74.4845 232.17 73.4131 228.142 72.5973C207.81 68.4736 193.381 71.3235 187.52 80.6226C181.942 89.4665 184.978 102.779 196.046 118.306C196.045 118.309 196.043 118.311 196.042 118.313C194.549 121.07 193.209 123.901 191.969 126.834C191.033 129.034 190.198 131.234 189.439 133.484C168.644 134.723 157.512 138.381 153.465 145.005C148.759 152.717 155.185 163.067 175.753 173.13C178.586 174.52 181.622 175.886 184.809 177.251C185.872 186.581 188.275 195.658 191.969 204.356C196.978 216.214 204.163 226.884 213.321 236.037C222.479 245.165 233.13 252.346 244.995 257.377C257.29 262.56 270.344 265.19 283.803 265.19C297.236 265.19 310.29 262.56 322.585 257.377C334.45 252.346 345.101 245.165 354.259 236.037C363.164 227.137 370.222 216.77 375.206 205.291C385.351 203.193 392.03 199.906 394.686 195.557C396.533 192.548 396.305 189.211 394.155 185.671ZM370.349 201.979C363.595 203.193 355.17 203.901 345.329 204.002C330.058 204.188 312.521 202.983 294.038 200.549C295.593 197.165 297.118 193.688 298.605 190.132C304.34 192.05 309.906 193.569 315.215 194.645C321.296 195.879 326.845 196.488 331.799 196.488C343.41 196.488 351.729 193.138 355.837 186.62C356.513 185.546 357.065 184.408 357.49 183.205H351.571C351.473 183.385 351.368 183.563 351.259 183.737C348.208 188.579 341.388 191.08 331.812 191.077C327.233 191.077 322.019 190.506 316.289 189.343C311.295 188.331 306.057 186.909 300.657 185.117C302.082 181.554 303.468 177.922 304.806 174.234C308.414 164.292 311.502 154.436 314.001 144.972C325.388 146.649 337.609 147.492 350.596 147.492C358.682 147.492 367.065 147.166 375.725 146.513C377.011 152.743 377.661 159.12 377.661 165.596C377.66 178.212 375.207 190.45 370.349 201.979ZM247.036 251.354C244.157 250.311 242.696 246.181 241.977 242.901C240.84 237.717 240.635 230.435 241.383 221.843C241.761 217.498 242.368 212.878 243.186 208.046C254.986 211.189 266.67 215.231 278.048 220.102C275.485 224.519 272.894 228.614 270.303 232.326C265.366 239.4 260.538 244.857 256.34 248.107C253.685 250.164 249.915 252.397 247.036 251.354ZM280.655 215.478C268.745 210.349 256.501 206.111 244.134 202.838C244.57 200.595 245.048 198.313 245.567 195.996C249.006 196.778 252.494 197.534 256.025 198.262C266.359 200.375 276.668 202.168 286.759 203.619C284.76 207.752 282.72 211.714 280.655 215.478ZM258.302 194.52C254.309 193.699 250.374 192.841 246.507 191.951C248.328 184.38 250.564 176.487 253.175 168.445C266.747 176.783 280.548 183.565 293.617 188.379C291.977 192.291 290.293 196.105 288.573 199.797C278.647 198.373 268.492 196.608 258.302 194.52ZM225.155 92.3255C226.02 94.0959 227.214 96.2905 228.824 98.7773C235.685 109.374 244.746 117.056 251.14 121.634C254.811 124.263 258.729 126.7 262.882 128.941C259.092 137.195 255.482 146.005 252.162 155.152C251.543 156.858 250.942 158.56 250.353 160.259C230.527 147.361 213.741 132.56 202.729 118.237C202.728 118.235 202.726 118.233 202.725 118.231C205.482 113.531 208.643 109.083 212.183 104.913C213.65 103.194 215.168 101.525 216.762 99.9067C216.989 99.6791 217.192 99.4769 217.42 99.2493C219.882 96.7881 222.465 94.4813 225.155 92.3255ZM309.932 78.0321C312.811 79.0756 314.272 83.2051 314.991 86.4854C316.127 91.6695 316.333 98.9511 315.585 107.543C314.767 116.947 312.883 127.629 310.078 139.002C306.691 138.42 303.383 137.761 300.162 137.021C289.032 134.463 278.886 130.964 269.825 126.568C275.231 115.299 280.949 105.25 286.665 97.06C291.602 89.9869 296.43 84.5299 300.627 81.2792C302.817 79.583 305.764 77.7674 308.345 77.7674C308.894 77.767 309.427 77.8492 309.932 78.0321ZM298.618 142.079C301.916 142.845 305.302 143.524 308.766 144.127C306.333 153.279 303.335 162.811 299.842 172.435C298.496 176.145 297.102 179.797 295.668 183.376C282.549 178.561 268.624 171.676 254.934 163.171C255.641 161.103 256.371 159.03 257.125 156.951C260.37 148.009 263.892 139.403 267.585 131.344C276.89 135.851 287.267 139.446 298.618 142.079ZM350.161 99.2492C358.788 107.871 365.568 117.909 370.299 129.084C371.986 133.077 373.386 137.157 374.496 141.31C352.859 142.892 333.032 142.395 315.309 139.832C318.121 128.347 320.015 117.543 320.845 108C321.762 97.462 321.65 84.9798 317.375 77.9556C318.366 78.3363 319.353 78.7327 320.334 79.1483C331.516 83.8763 341.559 90.6271 350.161 99.2492ZM283.803 71.765C290.305 71.765 296.701 72.4189 302.952 73.7164C295.578 76.9245 288.05 85.8534 282.335 94.0409C276.486 102.42 270.646 112.676 265.13 124.155C261.409 122.135 257.888 119.951 254.582 117.607C243.612 109.828 237.04 101.683 233.458 96.2205C231.557 93.3201 230.275 90.8492 229.458 89.0761C233.309 86.3387 237.358 83.894 241.591 81.7596C241.592 81.76 241.593 81.7604 241.595 81.7608C243.318 80.8915 245.076 80.078 246.859 79.3147C246.989 79.2596 247.116 79.2027 247.246 79.1479C247.276 79.1347 247.307 79.1232 247.336 79.1099C247.717 78.9492 248.099 78.7929 248.482 78.6383C248.584 78.5977 248.689 78.5562 248.79 78.5159C259.896 74.0406 271.685 71.765 283.803 71.765ZM192.098 83.5061C195.149 78.6644 201.969 76.1657 211.545 76.1657C216.125 76.1657 221.338 76.7371 227.068 77.8996C229.243 78.3398 231.466 78.8578 233.725 79.4536C233.727 79.4542 233.729 79.4548 233.731 79.4552C226.296 83.7529 219.467 89.0106 213.321 95.1786C212.031 96.4428 210.791 97.7575 209.577 99.1229C208.059 100.792 206.617 102.537 205.226 104.306C202.999 107.138 200.95 110.096 199.053 113.131C199.051 113.133 199.05 113.136 199.048 113.138C190.587 100.581 188.043 89.9343 192.098 83.5061ZM197.282 129.085C198.117 127.163 198.977 125.267 199.913 123.421C199.914 123.42 199.915 123.418 199.915 123.416C211.51 137.901 228.6 152.708 248.568 165.55C245.737 174.162 243.321 182.627 241.372 190.738C226.844 187.226 213.381 183.251 201.583 178.996C199.103 178.111 196.7 177.201 194.398 176.291C193.032 175.76 191.691 175.204 190.376 174.647C190.173 172.625 190.021 170.576 189.971 168.528C189.945 167.542 189.92 166.582 189.92 165.595C189.92 164.458 189.945 163.295 189.971 162.157C190.3 153.636 191.742 145.318 194.271 137.277C194.701 135.912 195.157 134.571 195.663 133.232C196.169 131.841 196.7 130.45 197.282 129.085ZM180.357 170.147C162.421 161.398 154.224 152.953 157.892 146.961C160.852 142.106 171.629 138.819 188.124 137.606C186.1 144.432 184.86 151.487 184.38 158.642C184.228 160.766 184.152 162.89 184.127 165.039V165.595C184.127 167.745 184.203 169.894 184.329 172.018C182.963 171.411 181.647 170.779 180.357 170.147ZM193.968 180.892C196.396 181.802 198.876 182.713 201.431 183.598C213.177 187.665 226.343 191.446 240.427 194.801C239.916 197.081 239.444 199.329 239.011 201.541C237.86 201.262 236.709 200.989 235.556 200.727C216.085 196.298 201.473 195.397 194.7 195.244C193.022 190.193 191.789 185.027 191.008 179.754C191.995 180.134 192.981 180.513 193.968 180.892ZM197.282 202.106C197.07 201.604 196.864 201.1 196.662 200.596C203.886 200.886 217.278 201.98 234.384 205.872C235.608 206.15 236.832 206.442 238.054 206.74C237.174 211.872 236.524 216.777 236.123 221.386C235.363 230.12 235.309 240.19 237.746 247.381C230.328 243.207 223.525 238.043 217.419 231.941C208.793 223.319 202.013 213.281 197.282 202.106ZM320.334 252.042C308.747 256.947 296.478 259.425 283.803 259.425C274.039 259.425 264.501 257.953 255.338 255.036C262.282 251.398 269.259 243.043 274.633 235.345C277.404 231.375 280.174 226.981 282.908 222.238C298.672 229.373 313.83 238.139 328.069 248.35C325.557 249.692 322.978 250.925 320.334 252.042ZM350.161 231.941C344.973 237.142 339.258 241.661 333.087 245.467C318.13 234.541 302.149 225.189 285.5 217.619C287.789 213.427 290.044 209 292.247 204.378C307.487 206.397 322.138 207.608 335.513 207.921C339.005 208.022 342.395 208.022 345.683 207.997C354.209 207.896 361.798 207.39 368.3 206.48C363.746 215.911 357.649 224.457 350.161 231.941Z" fill="#FFEDD4"/>
<path d="M348.032 201.214L334.251 364.98C334.251 364.98 332.807 374.907 340.195 374.924C352.343 374.953 400.659 374.924 400.659 374.924C400.659 374.924 391.516 372.858 391.627 368.208C391.757 362.728 407.734 199.665 407.734 199.665L348.032 201.214Z" fill="#D86713"/>
<path d="M404.579 371.953C402.19 371.96 356.042 372.105 344.212 371.953C339.057 371.889 338.153 367.372 338.11 364.448C338.089 363.047 338.266 362.01 338.266 362.01L338.625 357.754L339.538 346.905L340.345 337.32L341.382 325.004L342.255 314.608L352.047 198.242L411.749 196.693C411.749 196.693 405.02 264.934 400.261 314.608C399.729 320.143 399.224 325.45 398.756 330.403C398.605 331.985 398.46 333.531 398.318 335.037C397.876 339.737 397.473 344.052 397.122 347.863C396.937 349.872 396.766 351.738 396.612 353.447C396.004 360.146 395.648 364.424 395.644 365.237C395.641 365.712 395.681 366.153 395.76 366.563C396.74 371.782 403.682 371.953 404.579 371.953Z" fill="#EE9849"/>
<path d="M203.042 112.099L236.609 246.858L241.206 265.313L256.84 328.08H547.298L489.672 112.099H203.042Z" fill="#F1A34F"/>
<path d="M203.041 112.099L198.389 113.649L250.655 332.769L256.84 328.081L203.041 112.099Z" fill="#EE9849"/>
<path d="M250.655 332.769H539.325L547.297 328.081H256.84L250.655 332.769Z" fill="#D86713"/>
<path d="M414.529 372.019H352.027V374.987H414.529V372.019Z" fill="#F1A34F"/>
<path d="M533.226 288.282L486.096 114.955H202.577V112.099H489.672L536.645 287.897L533.226 288.282Z" fill="#F1A34F"/>
<path d="M398.64 332.767L398.318 335.037L339.538 346.905L340.345 337.32L340.729 332.767H398.64Z" fill="#D86713"/>
<path opacity="0.4" d="M404.579 371.953C402.19 371.96 356.042 372.105 344.212 371.953C339.057 371.889 338.153 367.372 338.11 364.448L396.612 353.448C396.004 360.147 395.649 364.424 395.644 365.238C395.641 365.712 395.681 366.153 395.76 366.563C396.74 371.782 403.682 371.953 404.579 371.953Z" fill="#D86713"/>
<path opacity="0.4" d="M384.433 284.358L256.84 328.081L241.205 265.313L384.433 284.358Z" fill="#D86713"/>
<path d="M203.041 112.099H489.672L536.179 285.68H244.802L203.041 112.099Z" fill="#FF8503"/>
<path d="M408.334 313.319C410.931 310.458 410.22 305.583 406.744 302.431C403.269 299.279 398.345 299.043 395.748 301.904C393.15 304.764 393.862 309.639 397.337 312.791C400.813 315.943 405.736 316.18 408.334 313.319Z" fill="#D86713"/>
<path d="M522.66 278.158H254.287L223.894 157.151L221.564 147.872L219.576 139.957L214.915 121.397H479.42L484.539 139.957L486.722 147.872L489.281 157.151L522.66 278.158Z" fill="white"/>
<path d="M484.539 139.957H219.576L214.915 121.397H479.42L484.539 139.957Z" fill="#FFB600"/>
<path d="M227.599 127.465C226.317 127.465 225.537 128.503 225.857 129.785C226.176 131.066 227.475 132.105 228.757 132.105C230.039 132.105 230.819 131.066 230.499 129.785C230.18 128.503 228.882 127.465 227.599 127.465Z" fill="#FFEDD4"/>
<path d="M235.313 127.465C234.031 127.465 233.25 128.503 233.57 129.785C233.89 131.066 235.188 132.105 236.47 132.105C237.752 132.105 238.532 131.066 238.213 129.785C237.893 128.503 236.595 127.465 235.313 127.465Z" fill="#FFEDD4"/>
<path d="M246.518 129.785C246.199 128.503 244.9 127.465 243.618 127.465C242.336 127.465 241.556 128.503 241.876 129.785C242.195 131.066 243.494 132.105 244.776 132.105C246.058 132.105 246.838 131.066 246.518 129.785Z" fill="#FFEDD4"/>
<path d="M438.569 194.169C436.632 186.402 428.727 180.084 420.949 180.084C417.198 180.084 414.002 181.53 411.949 184.156C409.811 186.892 409.168 190.546 410.141 194.444C412.079 202.211 419.983 208.53 427.762 208.53C431.512 208.53 434.708 207.084 436.761 204.457C438.9 201.722 439.542 198.068 438.569 194.169ZM435.864 203.757C434.032 206.101 431.154 207.392 427.762 207.392C420.474 207.392 413.065 201.46 411.246 194.169C410.36 190.618 410.928 187.311 412.846 184.857C414.679 182.513 417.556 181.222 420.949 181.222C428.237 181.222 435.646 187.153 437.465 194.444C438.351 197.996 437.782 201.303 435.864 203.757Z" fill="#F1A34F"/>
<path d="M426.143 197.487L424.727 187.586L424.615 187.138H420.626L420.737 187.586L424.261 197.487H426.143Z" fill="#F1A34F"/>
<path d="M423.823 199.234L424.717 202.818H428.347L427.453 199.234H423.823Z" fill="#F1A34F"/>
<path d="M447.233 227.805C445.295 220.039 437.391 213.72 429.612 213.72C425.862 213.72 422.666 215.166 420.613 217.793C418.474 220.528 417.832 224.182 418.805 228.081C420.742 235.847 428.647 242.166 436.425 242.166C440.176 242.166 443.372 240.72 445.425 238.094C447.564 235.358 448.205 231.704 447.233 227.805ZM444.528 237.393C442.695 239.737 439.818 241.028 436.425 241.028C429.137 241.028 421.728 235.096 419.909 227.805C419.023 224.254 419.592 220.947 421.51 218.493C423.342 216.149 426.22 214.858 429.612 214.858C436.9 214.858 444.309 220.79 446.128 228.081C447.014 231.632 446.446 234.939 444.528 237.393Z" fill="#F1A34F"/>
<path d="M434.807 231.123L433.39 221.222L433.279 220.774H429.289L429.401 221.222L432.924 231.123H434.807Z" fill="#F1A34F"/>
<path d="M432.486 232.87L433.38 236.454H437.011L436.117 232.87H432.486Z" fill="#F1A34F"/>
<path d="M476.932 189.844C477.814 189.844 478.356 189.123 478.136 188.242C477.916 187.36 477.014 186.639 476.132 186.639H447.572C446.69 186.639 446.148 187.36 446.368 188.242C446.588 189.123 447.489 189.844 448.371 189.844H476.932Z" fill="#FFB600"/>
<path d="M473.396 167.075C473.176 166.194 472.275 165.472 471.393 165.472H442.832C441.95 165.472 441.408 166.193 441.628 167.075C441.848 167.957 442.75 168.678 443.632 168.678H472.193C473.075 168.678 473.616 167.957 473.396 167.075Z" fill="#FFB600"/>
<path d="M478.455 195.95C479.337 195.95 479.879 195.229 479.659 194.348C479.439 193.466 478.537 192.745 477.655 192.745H449.095C448.213 192.745 447.671 193.466 447.891 194.348C448.111 195.229 449.013 195.95 449.894 195.95H478.455Z" fill="#FFB600"/>
<path d="M481.182 200.453C480.962 199.572 480.061 198.851 479.179 198.851H450.618C449.736 198.851 449.194 199.572 449.414 200.453C449.634 201.335 450.536 202.056 451.418 202.056H479.978C480.86 202.056 481.402 201.335 481.182 200.453Z" fill="#FFB600"/>
<path d="M485.595 223.481C486.477 223.481 487.019 222.759 486.799 221.878C486.579 220.996 485.678 220.275 484.796 220.275H456.235C455.353 220.275 454.811 220.996 455.031 221.878C455.251 222.759 456.153 223.481 457.035 223.481H485.595Z" fill="#FFB600"/>
<path d="M487.119 229.586C488 229.586 488.542 228.865 488.322 227.983C488.103 227.102 487.201 226.38 486.319 226.38H457.758C456.876 226.38 456.335 227.102 456.554 227.983C456.774 228.865 457.676 229.586 458.558 229.586H487.119Z" fill="#FFB600"/>
<path d="M489.846 234.089C489.626 233.208 488.724 232.486 487.842 232.486H459.281C458.399 232.486 457.858 233.208 458.078 234.089C458.298 234.971 459.199 235.692 460.081 235.692H488.642C489.524 235.692 490.065 234.971 489.846 234.089Z" fill="#FFB600"/>
<path d="M472.194 160.337L470.2 152.346C469.835 150.881 468.336 149.682 466.87 149.682H237.952C236.485 149.682 235.585 150.881 235.95 152.346L237.944 160.337C238.309 161.802 239.808 163.001 241.274 163.001H470.193C471.659 163.001 472.559 161.802 472.194 160.337Z" fill="#FFB600"/>
<path d="M400.229 149.682L403.551 163.001H241.275C239.808 163.001 238.31 161.802 237.944 160.337L235.951 152.346C235.585 150.881 236.486 149.682 237.952 149.682H400.229Z" fill="#F1A34F"/>
<path d="M429.379 153.892L429.635 154.916H432.167L430.846 159.278H432.185L433.482 154.785L433.259 153.892H429.379Z" fill="#FF8503"/>
<path d="M436.291 153.8C434.859 153.8 434.195 155.023 434.584 156.585C434.978 158.163 436.226 159.37 437.666 159.37C439.105 159.37 439.762 158.147 439.373 156.585C438.979 155.008 437.716 153.8 436.291 153.8ZM437.414 158.301C436.698 158.301 436.046 157.57 435.801 156.585C435.551 155.585 435.835 154.87 436.543 154.87C437.251 154.87 437.913 155.608 438.156 156.585C438.404 157.578 438.13 158.301 437.414 158.301Z" fill="#FF8503"/>
<path d="M446.436 157.962C446.244 157.193 445.569 156.585 444.791 156.585C444.006 156.585 443.628 157.201 443.818 157.962C444.01 158.732 444.685 159.34 445.463 159.34C446.248 159.34 446.624 158.716 446.436 157.962ZM445.304 158.64C444.996 158.64 444.717 158.324 444.627 157.963C444.534 157.593 444.627 157.285 444.95 157.285C445.258 157.285 445.537 157.601 445.627 157.963C445.718 158.324 445.627 158.64 445.304 158.64Z" fill="#FF8503"/>
<path d="M443.965 153.892L441.375 159.278H442.291L444.881 153.892H443.965Z" fill="#FF8503"/>
<path d="M442.438 155.208C442.246 154.438 441.571 153.831 440.794 153.831C440.008 153.831 439.631 154.446 439.821 155.208C440.013 155.977 440.688 156.585 441.465 156.585C442.251 156.585 442.626 155.962 442.438 155.208ZM440.629 155.208C440.537 154.838 440.629 154.531 440.953 154.531C441.261 154.531 441.54 154.846 441.63 155.208C441.72 155.569 441.63 155.885 441.306 155.885C440.998 155.885 440.719 155.569 440.629 155.208Z" fill="#FF8503"/>
<path d="M389.504 220.731C391.167 220.731 392.179 219.384 391.764 217.722C391.35 216.06 389.665 214.712 388.002 214.712H254.52C252.857 214.712 251.845 216.06 252.259 217.722C252.674 219.384 254.358 220.731 256.021 220.731H389.504Z" fill="#FFB600"/>
<path d="M391.996 230.722C393.659 230.722 394.671 229.375 394.257 227.713C393.842 226.051 392.158 224.703 390.495 224.703H257.013C255.35 224.703 254.337 226.051 254.752 227.713C255.167 229.375 256.851 230.722 258.514 230.722H391.996Z" fill="#FFB600"/>
<path d="M396.86 238.148C396.445 236.486 394.761 235.139 393.098 235.139H259.616C257.953 235.139 256.941 236.486 257.355 238.148C257.77 239.81 259.454 241.158 261.117 241.158H394.6C396.263 241.158 397.275 239.81 396.86 238.148Z" fill="#FFB600"/>
<path d="M316.459 204.491C316.98 206.58 319.097 208.273 321.187 208.273H336.076C338.166 208.273 339.438 206.58 338.917 204.491L331.72 175.643C331.199 173.554 329.082 171.861 326.992 171.861H312.104C310.013 171.861 308.741 173.554 309.263 175.643L316.459 204.491Z" fill="#FFB600"/>
<path d="M342.227 204.491C342.748 206.58 344.866 208.273 346.956 208.273H361.844C363.934 208.273 365.206 206.58 364.685 204.491L357.488 175.643C356.967 173.554 354.85 171.861 352.76 171.861H337.872C335.782 171.861 334.509 173.554 335.031 175.643L342.227 204.491Z" fill="#FFB600"/>
<path d="M367.515 204.491C368.036 206.58 370.153 208.273 372.243 208.273H387.131C389.222 208.273 390.494 206.58 389.972 204.491L382.776 175.643C382.255 173.554 380.138 171.861 378.047 171.861H363.159C361.069 171.861 359.797 173.554 360.318 175.643L367.515 204.491Z" fill="#FFB600"/>
<path d="M311.413 201.933L305.492 178.201C304.618 174.699 301.07 171.86 297.567 171.86H247.162C243.659 171.86 241.527 174.699 242.4 178.201L248.321 201.933C249.194 205.434 252.743 208.273 256.246 208.273H306.65C310.154 208.273 312.286 205.434 311.413 201.933Z" fill="#FFB600"/>
<path d="M296.931 180.963C297.725 180.963 298.213 180.314 298.015 179.52V179.52C297.817 178.726 297.005 178.077 296.211 178.077H249.114C248.32 178.077 247.832 178.726 248.03 179.52V179.52C248.228 180.314 249.04 180.963 249.834 180.963H296.931Z" fill="#FF8503"/>
<path d="M298.315 186.514C299.11 186.514 299.597 185.865 299.399 185.071C299.201 184.277 298.39 183.628 297.595 183.628H250.499C249.705 183.628 249.217 184.277 249.415 185.071C249.613 185.865 250.425 186.514 251.219 186.514H298.315Z" fill="#FF8503"/>
<path d="M300.784 190.622C300.586 189.828 299.774 189.178 298.98 189.178H251.884C251.089 189.178 250.602 189.828 250.8 190.622C250.998 191.415 251.809 192.065 252.603 192.065H299.7C300.495 192.065 300.982 191.416 300.784 190.622Z" fill="#FF8503"/>
<path d="M264.546 195.396H253.434C252.64 195.396 252.153 196.045 252.35 196.839C252.548 197.632 253.36 198.282 254.154 198.282H265.266C266.06 198.282 266.548 197.633 266.349 196.839C266.152 196.045 265.34 195.396 264.546 195.396Z" fill="#FF8503"/>
<path d="M507.793 265.298L504.687 252.849C504.229 251.013 502.368 249.524 500.53 249.524H474.092C472.254 249.524 471.135 251.013 471.594 252.849L474.699 265.298C475.158 267.135 477.019 268.624 478.856 268.624H505.295C507.133 268.624 508.251 267.135 507.793 265.298Z" fill="#FFB600"/>
<path d="M500.197 254.299C500.613 254.299 500.869 253.958 500.765 253.542C500.661 253.125 500.236 252.785 499.819 252.785H475.115C474.699 252.785 474.443 253.125 474.547 253.542C474.65 253.958 475.076 254.299 475.493 254.299H500.197Z" fill="#FF8503"/>
<path d="M500.923 257.211C501.34 257.211 501.595 256.87 501.492 256.453C501.388 256.037 500.962 255.696 500.545 255.696H475.842C475.425 255.696 475.169 256.037 475.273 256.453C475.377 256.87 475.803 257.211 476.219 257.211H500.923Z" fill="#FF8503"/>
<path d="M502.218 259.365C502.114 258.948 501.688 258.608 501.272 258.608H476.568C476.151 258.608 475.896 258.948 476 259.365C476.103 259.781 476.529 260.122 476.946 260.122H501.65C502.066 260.122 502.322 259.781 502.218 259.365Z" fill="#FF8503"/>
<path d="M483.21 261.869H477.382C476.965 261.869 476.709 262.21 476.813 262.626C476.917 263.043 477.343 263.383 477.759 263.383H483.587C484.004 263.383 484.26 263.043 484.156 262.626C484.052 262.21 483.626 261.869 483.21 261.869Z" fill="#FF8503"/>
<path d="M324.461 256.189C325.088 256.189 325.47 255.681 325.313 255.054C325.157 254.427 324.522 253.918 323.894 253.918H273.546C272.919 253.918 272.537 254.427 272.693 255.054C272.85 255.681 273.485 256.189 274.112 256.189H324.461Z" fill="#F1A34F"/>
<path d="M325.401 259.957C326.028 259.957 326.41 259.449 326.254 258.822C326.098 258.195 325.462 257.687 324.835 257.687H274.486C273.859 257.687 273.477 258.195 273.633 258.822C273.79 259.449 274.425 259.957 275.052 259.957H325.401Z" fill="#F1A34F"/>
<path d="M325.817 261.623H275.468C274.841 261.623 274.459 262.131 274.615 262.758C274.772 263.385 275.407 263.893 276.034 263.893H326.383C327.01 263.893 327.392 263.385 327.236 262.758C327.079 262.131 326.444 261.623 325.817 261.623Z" fill="#F1A34F"/>
<path d="M389.438 256.189C390.065 256.189 390.447 255.681 390.29 255.054C390.134 254.427 389.498 253.918 388.871 253.918H338.523C337.895 253.918 337.514 254.427 337.67 255.054C337.826 255.681 338.462 256.189 339.089 256.189H389.438Z" fill="#F1A34F"/>
<path d="M390.378 259.957C391.005 259.957 391.387 259.449 391.23 258.822C391.074 258.195 390.439 257.687 389.811 257.687H339.463C338.835 257.687 338.454 258.195 338.61 258.822C338.767 259.449 339.402 259.957 340.029 259.957H390.378Z" fill="#F1A34F"/>
<path d="M390.793 261.623H340.445C339.817 261.623 339.436 262.131 339.592 262.758C339.748 263.385 340.384 263.893 341.011 263.893H391.36C391.987 263.893 392.369 263.385 392.212 262.758C392.056 262.131 391.421 261.623 390.793 261.623Z" fill="#F1A34F"/>
<path d="M452.415 256.189C453.042 256.189 453.424 255.681 453.268 255.054C453.111 254.427 452.476 253.918 451.849 253.918H401.5C400.873 253.918 400.491 254.427 400.647 255.054C400.804 255.681 401.439 256.189 402.066 256.189H452.415Z" fill="#F1A34F"/>
<path d="M453.355 259.957C453.983 259.957 454.364 259.449 454.208 258.822C454.052 258.195 453.416 257.687 452.789 257.687H402.44C401.813 257.687 401.431 258.195 401.588 258.822C401.744 259.449 402.379 259.957 403.007 259.957H453.355Z" fill="#F1A34F"/>
<path d="M455.19 262.758C455.033 262.131 454.398 261.623 453.771 261.623H403.422C402.795 261.623 402.413 262.131 402.569 262.758C402.726 263.385 403.361 263.893 403.988 263.893H454.337C454.964 263.893 455.346 263.385 455.19 262.758Z" fill="#F1A34F"/>
<path d="M464.93 270.344H270.768C269.053 270.344 267.311 268.955 266.885 267.248L263.008 251.706C262.787 250.822 262.947 249.948 263.447 249.308C263.937 248.681 264.688 248.335 265.561 248.335H459.724C461.439 248.335 463.181 249.724 463.606 251.431L467.484 266.973C467.705 267.858 467.544 268.732 467.044 269.371C466.554 269.998 465.803 270.344 464.93 270.344ZM265.561 249.473C265.046 249.473 264.614 249.664 264.344 250.009C264.058 250.376 263.975 250.881 264.113 251.431L267.99 266.973C268.292 268.183 269.564 269.206 270.768 269.206H464.931C465.446 269.206 465.878 269.016 466.148 268.671C466.434 268.304 466.517 267.799 466.379 267.248L462.502 251.706C462.2 250.496 460.928 249.473 459.724 249.473H265.561Z" fill="#F1A34F"/>
<path d="M272.285 88.8699C272.254 88.6515 272.053 88.4998 271.834 88.5298L267.48 89.1382C267.325 87.7563 266.544 86.4601 265.255 85.7119L264.991 85.559C263.645 84.7773 262.053 84.7738 260.74 85.4033L259.02 81.0913C258.938 80.8864 258.705 80.7868 258.501 80.8683C258.296 80.9501 258.196 81.1821 258.278 81.3871L260.045 85.8169C259.766 86.0184 259.506 86.2499 259.276 86.5164C259.093 86.7254 258.928 86.9555 258.784 87.2035L258.306 88.0269C256.047 86.7157 254.363 85.738 254.304 85.7035C254.112 85.5927 253.868 85.6578 253.757 85.8483C253.647 86.039 253.711 86.2834 253.902 86.3942C253.961 86.4287 255.645 87.4062 257.904 88.7174L257.633 89.1846C257.373 89.6315 257.2 90.1057 257.106 90.5879L251.634 91.3527C251.416 91.3832 251.263 91.5851 251.294 91.8033C251.322 92.003 251.493 92.1474 251.689 92.1474C251.708 92.1474 251.726 92.146 251.745 92.1435L257.023 91.4056C257.008 92.9886 257.818 94.5399 259.278 95.3876L259.542 95.5407C260.944 96.3549 262.613 96.3276 263.955 95.6177L265.832 100.321C265.894 100.478 266.044 100.573 266.203 100.573C266.252 100.573 266.302 100.563 266.351 100.544C266.556 100.463 266.656 100.23 266.574 100.025L264.638 95.1731C265.074 94.8302 265.454 94.4027 265.749 93.896L266.02 93.4288C268.319 94.7632 270.023 95.7521 270.023 95.7521C270.086 95.7889 270.155 95.8063 270.223 95.8063C270.361 95.8063 270.495 95.735 270.569 95.6074C270.68 95.4166 270.615 95.1723 270.424 95.0616C270.424 95.0616 268.72 94.0727 266.422 92.7381L266.9 91.9149C267.044 91.6667 267.163 91.4101 267.255 91.1483C267.394 90.7537 267.473 90.3479 267.5 89.9415L271.944 89.3204C272.163 89.2902 272.315 89.0883 272.285 88.8699Z" fill="#FFB600"/>
<path d="M266.9 91.9151L265.749 93.8961C264.495 96.0547 261.702 96.7946 259.542 95.5409L259.279 95.388C257.12 94.1346 256.378 91.3433 257.633 89.1848L258.784 87.2035C258.928 86.9555 259.093 86.7254 259.276 86.5164L267.255 91.1485C267.163 91.4103 267.045 91.6669 266.9 91.9151Z" fill="#E57970"/>
<path d="M181.014 141.002L175.986 139.576C175.98 139.022 175.873 138.46 175.65 137.918L175.445 137.418L179.729 135.664C179.933 135.581 180.031 135.347 179.947 135.143C179.863 134.939 179.63 134.842 179.426 134.925L175.143 136.679L174.782 135.798C174.673 135.532 174.542 135.282 174.39 135.049C174.162 134.698 173.889 134.388 173.583 134.119L175.8 130.22C175.909 130.028 175.842 129.785 175.65 129.676C175.458 129.567 175.215 129.634 175.106 129.826L172.933 133.645C171.742 132.926 170.238 132.754 168.859 133.318L168.577 133.434C167.136 134.024 166.163 135.283 165.861 136.706L161.393 135.439C161.181 135.379 160.96 135.502 160.9 135.714C160.839 135.927 160.963 136.147 161.175 136.208L165.766 137.509C165.755 137.853 165.78 138.2 165.851 138.545C165.906 138.818 165.988 139.088 166.096 139.354L166.458 140.234L162.175 141.988C161.971 142.071 161.873 142.305 161.956 142.509C162.02 142.663 162.169 142.757 162.326 142.757C162.377 142.757 162.428 142.747 162.478 142.727L166.761 140.974L166.965 141.474C167.161 141.952 167.432 142.378 167.757 142.747L165.027 147.547C164.918 147.739 164.985 147.983 165.177 148.091C165.239 148.127 165.307 148.144 165.374 148.144C165.513 148.144 165.648 148.071 165.722 147.942L168.355 143.311C169.601 144.288 171.326 144.593 172.888 143.953L173.17 143.837C174.671 143.223 175.667 141.884 175.922 140.388L180.796 141.77C180.833 141.781 180.869 141.785 180.906 141.785C181.08 141.785 181.24 141.671 181.29 141.495C181.35 141.283 181.227 141.062 181.014 141.002Z" fill="#FFB600"/>
<path d="M174.782 135.797L175.651 137.918C176.597 140.228 175.481 142.891 173.17 143.837L172.888 143.952C170.578 144.898 167.912 143.783 166.965 141.473L166.096 139.353C165.988 139.088 165.905 138.817 165.851 138.545L174.39 135.049C174.542 135.282 174.673 135.532 174.782 135.797Z" fill="#E57970"/>
<path d="M231.454 284.443C231.422 284.465 231.387 284.494 231.343 284.527C229.668 285.809 218.282 293.57 192.704 290.133C192.53 291.115 192.367 292.09 192.214 293.05C192.137 293.532 192.061 294.012 191.991 294.487C191.919 294.956 191.85 295.424 191.784 295.89L191.779 295.915C191.713 296.383 191.647 296.846 191.586 297.311C191.523 297.775 191.463 298.236 191.405 298.698C191.345 299.155 191.292 299.608 191.238 300.061L191.234 300.083C191.183 300.534 191.13 300.982 191.083 301.428C191.033 301.876 190.988 302.323 190.943 302.77C190.898 303.214 190.854 303.656 190.816 304.096C190.775 304.534 190.737 304.971 190.702 305.407C190.675 305.725 190.649 306.041 190.625 306.357C190.603 306.617 190.584 306.878 190.568 307.137C190.551 307.357 190.537 307.578 190.522 307.799C190.514 307.915 190.506 308.03 190.5 308.146C190.477 308.515 190.454 308.882 190.434 309.249C190.411 309.642 190.392 310.034 190.372 310.425C190.369 310.5 190.366 310.574 190.362 310.649C190.35 310.942 190.336 311.231 190.325 311.519C190.316 311.749 190.306 311.976 190.301 312.203C190.276 312.936 190.257 313.657 190.245 314.374C190.239 314.703 190.234 315.03 190.231 315.355C190.228 315.74 190.225 316.121 190.226 316.5C190.225 316.53 190.225 316.558 190.225 316.588C190.227 316.96 190.226 317.328 190.231 317.695C190.232 318 190.236 318.303 190.243 318.604C190.245 318.864 190.252 319.121 190.259 319.377C190.261 319.466 190.262 319.558 190.264 319.647C190.271 319.915 190.279 320.181 190.288 320.447C190.297 320.733 190.307 321.014 190.318 321.296C190.331 321.601 190.346 321.903 190.36 322.203C190.375 322.556 190.394 322.905 190.415 323.254C190.417 323.285 190.418 323.319 190.42 323.35C190.44 323.694 190.462 324.033 190.485 324.373C190.51 324.73 190.535 325.085 190.563 325.436C190.591 325.789 190.619 326.14 190.651 326.486C190.68 326.834 190.711 327.18 190.747 327.522C190.779 327.851 190.812 328.174 190.848 328.498C190.851 328.537 190.857 328.576 190.86 328.615C190.895 328.931 190.93 329.243 190.968 329.554C191.008 329.884 191.048 330.211 191.09 330.539C191.092 330.547 191.093 330.555 191.093 330.565C191.137 330.888 191.178 331.211 191.224 331.532C191.268 331.852 191.315 332.173 191.364 332.492C191.365 332.5 191.366 332.508 191.367 332.518C191.415 332.829 191.464 333.138 191.512 333.446C191.514 333.451 191.516 333.457 191.515 333.462C191.565 333.776 191.618 334.085 191.672 334.395C191.725 334.707 191.781 335.017 191.838 335.324C191.907 335.702 191.977 336.076 192.05 336.447C192.097 336.679 192.141 336.911 192.189 337.141C192.249 337.431 192.309 337.716 192.37 337.999C192.379 338.036 192.387 338.073 192.396 338.11C192.452 338.377 192.513 338.645 192.573 338.907C192.637 339.198 192.705 339.485 192.775 339.772C192.916 340.361 193.06 340.941 193.212 341.512C193.279 341.774 193.35 342.03 193.42 342.287C193.494 342.557 193.568 342.822 193.645 343.087C193.699 343.282 193.756 343.475 193.812 343.669C193.867 343.861 193.924 344.049 193.984 344.241C194.028 344.391 194.075 344.539 194.121 344.69C194.201 344.951 194.282 345.209 194.363 345.465C194.53 345.978 194.701 346.484 194.873 346.982C194.958 347.231 195.045 347.478 195.133 347.723C195.222 347.968 195.31 348.212 195.399 348.452C195.644 349.111 195.894 349.755 196.151 350.386C196.226 350.575 196.304 350.762 196.383 350.949C196.494 351.218 196.606 351.485 196.721 351.749C196.811 351.956 196.901 352.163 196.994 352.368C197.488 353.478 197.997 354.543 198.519 355.559C198.622 355.761 198.724 355.957 198.829 356.154C199.075 356.62 199.323 357.076 199.575 357.525C199.661 357.683 199.753 357.84 199.841 357.995C199.925 358.14 200.008 358.284 200.092 358.427C200.189 358.594 200.286 358.759 200.381 358.921C200.607 359.294 200.831 359.66 201.058 360.019C201.135 360.144 201.214 360.267 201.292 360.388C201.538 360.773 201.785 361.148 202.034 361.515C202.122 361.648 202.211 361.778 202.299 361.906C202.884 362.756 203.467 363.554 204.051 364.308C204.158 364.446 204.268 364.586 204.375 364.722C204.939 365.433 205.497 366.103 206.047 366.73C206.222 366.929 206.398 367.126 206.572 367.318C206.587 367.333 206.602 367.348 206.616 367.366C206.721 367.479 206.824 367.594 206.929 367.705C207.553 368.378 208.163 368.997 208.753 369.563C208.85 369.656 208.948 369.75 209.046 369.842C209.239 370.026 209.431 370.203 209.621 370.375C209.802 370.539 209.98 370.698 210.153 370.851C210.162 370.858 210.17 370.867 210.179 370.874C210.353 371.024 210.522 371.172 210.687 371.313C210.974 371.556 211.253 371.786 211.522 372.002C211.598 372.062 211.671 372.121 211.747 372.18C212.236 372.568 212.693 372.909 213.112 373.208C213.238 373.297 213.362 373.386 213.48 373.468C213.83 373.709 214.149 373.918 214.427 374.093C214.511 374.149 214.591 374.199 214.669 374.246C214.841 374.35 214.992 374.444 215.125 374.521C215.155 374.539 215.186 374.555 215.213 374.57C215.243 374.588 215.27 374.606 215.298 374.621C215.607 374.798 215.775 374.88 215.775 374.88C217.409 374.348 218.992 373.761 220.524 373.119C230.197 369.072 237.849 362.928 243.904 355.808C243.92 355.788 243.936 355.77 243.95 355.75C256.983 340.395 262.588 320.524 264.981 307.368C265.244 305.911 265.471 304.537 265.663 303.26C239.953 297.412 232.259 285.774 231.454 284.443Z" fill="#FF8904"/>
<path d="M261.299 309.331C259.117 321.326 254.008 339.441 242.126 353.44C242.113 353.459 242.099 353.474 242.084 353.493C236.563 359.984 229.588 365.585 220.769 369.275C219.372 369.86 217.929 370.395 216.439 370.88C216.439 370.88 216.286 370.806 216.004 370.644C215.979 370.63 215.954 370.614 215.927 370.598C215.902 370.584 215.874 370.57 215.847 370.553C215.725 370.482 215.587 370.397 215.431 370.302C215.36 370.259 215.287 370.214 215.21 370.163C214.956 370.004 214.666 369.812 214.347 369.593C214.24 369.518 214.127 369.437 214.011 369.356C213.629 369.084 213.213 368.772 212.767 368.418C212.698 368.364 212.631 368.31 212.562 368.256C212.317 368.06 212.062 367.849 211.801 367.628C211.65 367.499 211.496 367.365 211.338 367.228C211.33 367.222 211.322 367.213 211.314 367.207C211.156 367.067 210.994 366.922 210.829 366.772C210.655 366.616 210.48 366.455 210.304 366.287C210.215 366.203 210.126 366.118 210.037 366.032C209.5 365.516 208.943 364.953 208.375 364.338C208.279 364.238 208.184 364.133 208.089 364.03C208.076 364.014 208.062 364 208.049 363.986C207.89 363.811 207.73 363.632 207.57 363.45C207.069 362.878 206.56 362.267 206.046 361.619C205.948 361.495 205.848 361.368 205.75 361.241C205.218 360.555 204.686 359.827 204.154 359.052C204.073 358.935 203.992 358.817 203.912 358.696C203.685 358.361 203.459 358.019 203.235 357.668C203.164 357.559 203.092 357.446 203.022 357.331C202.815 357.004 202.61 356.671 202.405 356.331C202.318 356.183 202.23 356.033 202.141 355.88C202.065 355.75 201.989 355.618 201.913 355.487C201.832 355.344 201.749 355.202 201.67 355.058C201.441 354.649 201.214 354.233 200.989 353.808C200.894 353.628 200.801 353.449 200.707 353.266C200.232 352.339 199.767 351.368 199.317 350.356C199.232 350.169 199.15 349.981 199.068 349.792C198.963 349.551 198.861 349.308 198.759 349.063C198.688 348.892 198.617 348.722 198.548 348.55C198.313 347.975 198.085 347.387 197.862 346.786C197.781 346.568 197.701 346.345 197.62 346.122C197.54 345.899 197.46 345.674 197.383 345.446C197.226 344.992 197.07 344.531 196.918 344.063C196.844 343.83 196.771 343.594 196.698 343.356C196.655 343.219 196.612 343.084 196.572 342.947C196.518 342.773 196.465 342.601 196.416 342.425C196.364 342.249 196.312 342.073 196.263 341.895C196.193 341.653 196.125 341.412 196.059 341.166C195.994 340.932 195.93 340.698 195.868 340.459C195.73 339.939 195.599 339.41 195.47 338.873C195.406 338.611 195.344 338.349 195.286 338.084C195.231 337.845 195.176 337.601 195.124 337.358C195.117 337.324 195.109 337.29 195.101 337.256C195.046 336.999 194.991 336.738 194.936 336.474C194.893 336.264 194.852 336.053 194.809 335.842C194.743 335.503 194.679 335.163 194.616 334.818C194.564 334.537 194.513 334.255 194.465 333.97C194.416 333.688 194.367 333.406 194.321 333.12C194.322 333.115 194.321 333.11 194.319 333.106C194.275 332.824 194.23 332.543 194.187 332.259C194.186 332.25 194.185 332.243 194.184 332.236C194.139 331.945 194.097 331.652 194.057 331.36C194.014 331.068 193.977 330.774 193.937 330.479C193.937 330.47 193.936 330.463 193.935 330.456C193.896 330.157 193.859 329.859 193.823 329.558C193.788 329.274 193.756 328.99 193.724 328.701C193.721 328.666 193.716 328.631 193.713 328.595C193.681 328.3 193.651 328.005 193.621 327.705C193.589 327.394 193.56 327.078 193.534 326.761C193.505 326.445 193.479 326.125 193.454 325.803C193.428 325.483 193.405 325.16 193.383 324.834C193.362 324.524 193.341 324.215 193.324 323.901C193.322 323.873 193.32 323.843 193.319 323.815C193.299 323.496 193.282 323.178 193.269 322.856C193.256 322.582 193.243 322.307 193.23 322.029C193.221 321.772 193.211 321.516 193.203 321.255C193.195 321.012 193.188 320.77 193.181 320.526C193.179 320.444 193.178 320.361 193.177 320.279C193.17 320.047 193.164 319.811 193.162 319.575C193.156 319.3 193.152 319.024 193.152 318.746C193.147 318.411 193.147 318.076 193.146 317.737C193.146 317.709 193.146 317.684 193.146 317.656C193.146 317.311 193.148 316.964 193.151 316.612C193.154 316.316 193.159 316.018 193.164 315.718C193.175 315.064 193.192 314.407 193.214 313.739C193.219 313.532 193.229 313.325 193.236 313.116C193.247 312.853 193.259 312.589 193.27 312.323C193.274 312.254 193.276 312.187 193.279 312.118C193.297 311.762 193.315 311.404 193.336 311.046C193.354 310.711 193.375 310.377 193.397 310.04C193.402 309.935 193.409 309.829 193.416 309.724C193.429 309.523 193.443 309.321 193.458 309.12C193.473 308.884 193.49 308.646 193.51 308.409C193.531 308.121 193.555 307.834 193.58 307.544C193.612 307.146 193.647 306.747 193.684 306.349C193.719 305.947 193.759 305.544 193.8 305.139C193.841 304.732 193.882 304.325 193.928 303.916C193.971 303.509 194.019 303.101 194.065 302.69L194.069 302.67C194.117 302.257 194.166 301.844 194.221 301.427C194.273 301.006 194.328 300.585 194.386 300.162C194.441 299.739 194.501 299.317 194.562 298.89L194.566 298.867C194.627 298.443 194.689 298.016 194.755 297.588C194.819 297.155 194.889 296.718 194.959 296.279C195.098 295.403 195.246 294.514 195.405 293.619C218.724 296.752 229.104 289.676 230.631 288.508C230.671 288.478 230.704 288.452 230.733 288.431C231.467 289.645 238.481 300.255 261.921 305.586C261.746 306.75 261.538 308.003 261.299 309.331Z" fill="#FFB600"/>
<path d="M230.834 288.348L216.004 370.644C215.851 370.556 215.658 370.443 215.431 370.302C215.36 370.259 215.287 370.214 215.21 370.163C214.956 370.004 214.666 369.812 214.347 369.593C214.24 369.518 214.127 369.437 214.011 369.356C213.629 369.084 213.213 368.772 212.767 368.419C212.698 368.364 212.631 368.311 212.562 368.257C212.317 368.06 212.062 367.849 211.801 367.628C211.65 367.499 211.496 367.365 211.338 367.228C211.33 367.222 211.322 367.213 211.314 367.207C211.156 367.068 210.994 366.923 210.829 366.773C210.655 366.616 210.48 366.455 210.304 366.287C210.215 366.203 210.126 366.118 210.037 366.032C209.5 365.517 208.943 364.953 208.375 364.339C208.279 364.238 208.184 364.133 208.089 364.03C208.076 364.014 208.062 364 208.049 363.986C207.89 363.811 207.73 363.632 207.57 363.45C207.069 362.878 206.56 362.268 206.046 361.619C205.948 361.495 205.848 361.368 205.75 361.242C205.218 360.555 204.686 359.827 204.154 359.052C204.073 358.936 203.992 358.817 203.912 358.696C203.685 358.361 203.459 358.019 203.235 357.669C203.164 357.559 203.092 357.446 203.022 357.331C202.815 357.004 202.61 356.671 202.405 356.331C202.318 356.183 202.23 356.033 202.141 355.88C202.065 355.75 201.989 355.619 201.913 355.487C201.832 355.345 201.749 355.202 201.67 355.058C201.441 354.649 201.214 354.233 200.989 353.808C200.894 353.628 200.801 353.449 200.707 353.266C200.232 352.34 199.767 351.369 199.317 350.356C199.232 350.17 199.15 349.981 199.068 349.793C198.963 349.551 198.861 349.308 198.759 349.063C198.688 348.892 198.617 348.722 198.548 348.55C198.313 347.975 198.085 347.387 197.862 346.786C197.781 346.568 197.701 346.345 197.62 346.122C197.54 345.899 197.46 345.674 197.383 345.446C197.226 344.992 197.07 344.531 196.918 344.063C196.844 343.83 196.771 343.594 196.698 343.357C196.655 343.219 196.612 343.084 196.572 342.947C196.518 342.773 196.465 342.601 196.416 342.425C196.364 342.249 196.312 342.073 196.263 341.895C196.193 341.653 196.125 341.412 196.059 341.166C195.994 340.932 195.93 340.698 195.868 340.459C195.73 339.939 195.599 339.41 195.47 338.873C195.406 338.611 195.344 338.35 195.286 338.084C195.231 337.845 195.176 337.601 195.124 337.358C195.117 337.324 195.109 337.29 195.101 337.256C195.046 336.999 194.991 336.739 194.936 336.474C194.893 336.265 194.852 336.053 194.809 335.842C194.743 335.503 194.679 335.163 194.616 334.818C194.564 334.538 194.513 334.255 194.465 333.97C194.416 333.688 194.367 333.406 194.321 333.12C194.322 333.115 194.321 333.111 194.319 333.106C194.275 332.824 194.23 332.543 194.187 332.259C194.186 332.25 194.185 332.243 194.184 332.236C194.139 331.945 194.097 331.652 194.057 331.36C194.014 331.068 193.977 330.774 193.937 330.48C193.937 330.47 193.936 330.463 193.935 330.456C193.896 330.157 193.859 329.859 193.823 329.558C193.788 329.274 193.756 328.99 193.724 328.701C193.721 328.666 193.716 328.631 193.713 328.595C193.681 328.3 193.651 328.005 193.621 327.705C193.589 327.394 193.56 327.078 193.534 326.761C193.505 326.445 193.479 326.125 193.454 325.803C193.428 325.484 193.405 325.16 193.383 324.834C193.362 324.524 193.341 324.215 193.324 323.901C193.322 323.873 193.32 323.843 193.319 323.815C193.299 323.496 193.282 323.178 193.269 322.856C193.256 322.583 193.243 322.307 193.23 322.029C193.221 321.772 193.211 321.516 193.203 321.255C193.195 321.012 193.188 320.77 193.181 320.526C193.179 320.444 193.178 320.361 193.177 320.279C193.17 320.047 193.164 319.811 193.162 319.575C193.156 319.3 193.152 319.024 193.152 318.746C193.147 318.411 193.147 318.076 193.146 317.737C193.146 317.709 193.146 317.684 193.146 317.656C193.146 317.311 193.148 316.964 193.151 316.612C193.154 316.316 193.159 316.018 193.164 315.718C193.175 315.065 193.192 314.407 193.214 313.74C193.219 313.532 193.229 313.325 193.236 313.116C193.247 312.854 193.259 312.59 193.27 312.323C193.274 312.254 193.276 312.187 193.279 312.118C193.297 311.762 193.315 311.404 193.336 311.046C193.354 310.712 193.375 310.377 193.397 310.041C193.402 309.935 193.409 309.83 193.416 309.724C193.429 309.523 193.443 309.321 193.458 309.12C193.473 308.884 193.49 308.646 193.51 308.409C193.531 308.121 193.555 307.834 193.58 307.544C193.612 307.147 193.647 306.747 193.684 306.349C193.719 305.947 193.759 305.544 193.8 305.139C193.841 304.732 193.882 304.325 193.928 303.916C193.971 303.509 194.019 303.101 194.065 302.69L194.069 302.67C194.117 302.257 194.166 301.844 194.221 301.427C194.273 301.006 194.328 300.585 194.386 300.162C194.441 299.739 194.501 299.317 194.562 298.89L194.566 298.867C194.627 298.443 194.689 298.016 194.755 297.588C194.819 297.155 194.889 296.718 194.959 296.279C195.098 295.403 195.246 294.514 195.405 293.619C220.781 297.031 230.834 288.348 230.834 288.348Z" fill="#FF8503"/>
</svg>
