<svg xmlns="http://www.w3.org/2000/svg" width="280" height="77" fill="none" viewBox="0 0 280 77"><path fill="black" d="M.88 75.21 27.79.58h16.7l26.92 74.63h-14.3l-6.18-17.66H21.39l-6.21 17.66zm24.5-29.32h21.54L36.2 14.35zM116.8.58v11.87h-11.98v50.89h12.6v11.87h-39V63.34h12.73V12.45H79.06V.58zM272.75 38.06A30.35 30.35 0 0 0 242.4 7.7h-71.6a30.35 30.35 0 1 0 0 60.71h71.6a30.36 30.36 0 0 0 30.35-30.35m7.25 0a37.6 37.6 0 0 1-37.6 37.6h-71.6a37.6 37.6 0 0 1 0-75.2h71.6a37.6 37.6 0 0 1 37.6 37.6" style="fill:black;fill-opacity:1;"/><path fill="black" d="M164.56 44.27c.72 4.18 3.7 6.94 8.6 6.94 3.74 0 6.28-1.49 6.22-4.35-.05-2.88-2.48-4.53-8.6-6.01-8.48-2.04-13.94-5.46-13.94-11.74 0-7.1 5.96-11.57 14.88-11.57 8.7 0 14.66 5.35 15.59 13.23l-8.37.44c-.44-4.13-3.31-6.73-7.43-6.73-3.65 0-6.24 1.88-6.07 4.74.11 3.31 3.96 4.4 8.15 5.46 8.76 1.93 14.33 5.67 14.33 11.9 0 7.43-6.55 11.62-14.98 11.62-9.53 0-16.26-5.29-16.81-13.55zm39.12-25.85c12.67 0 19.78 7.05 19.78 19.62 0 12.5-7 19.5-19.45 19.5h-13.83V18.42zm-5.12 32.07h5.12c7.6 0 11.23-4.02 11.23-12.5 0-8.5-3.62-12.5-11.23-12.5h-5.12zm26.55-32.07h8.38V35.5l14.22-17.08h9.74l-14.38 17.25 15.27 21.87h-9.52l-11.24-16.26-4.08 4.74v11.52h-8.38V18.42" style="fill:black;fill-opacity:1;"/></svg>