<svg xmlns="http://www.w3.org/2000/svg" fill="none" viewBox="0 0 100 100">
  <path
    fill="#001E36"
    d="M17.708 1h64.584C92.083 1 100 8.917 100 18.71v62.083c0 9.792-7.917 17.709-17.708 17.709H17.708C7.917 98.5 0 90.584 0 80.792V18.71C0 8.917 7.917 1 17.708 1"
  />
  <path
    fill="#31A8FF"
    d="M22.5 69.376V26.5c0-.292.125-.459.417-.459.708 0 1.375 0 2.333-.042 1-.041 2.042-.041 3.167-.083s2.333-.042 3.625-.083c1.291-.042 2.541-.042 3.791-.042 3.417 0 6.25.417 8.584 1.292 2.083.708 4 1.875 5.583 3.416a13.3 13.3 0 0 1 3.042 4.75A16 16 0 0 1 54 40.666q0 5.376-2.5 8.875c-1.667 2.334-4 4.084-6.708 5.084-2.834 1.041-5.959 1.416-9.375 1.416-1 0-1.667 0-2.084-.041-.416-.042-1-.042-1.791-.042v13.375c.041.291-.167.541-.459.583H23c-.333 0-.5-.166-.5-.541m9.083-35.292v14c.584.041 1.125.083 1.625.083h2.209c1.625 0 3.25-.25 4.791-.75 1.334-.375 2.5-1.166 3.417-2.208.875-1.042 1.292-2.459 1.292-4.292a6.86 6.86 0 0 0-.959-3.708c-.708-1.084-1.708-1.917-2.916-2.375-1.542-.625-3.209-.875-4.917-.834-1.083 0-2.042 0-2.833.042-.834-.041-1.417 0-1.709.042M80 45.542c-1.25-.666-2.583-1.125-4-1.416-1.542-.334-3.083-.542-4.667-.542-.833-.042-1.708.083-2.5.291-.541.126-1 .417-1.291.834-.209.333-.334.75-.334 1.125s.167.75.417 1.083c.375.459.875.834 1.417 1.125.958.5 1.958.959 2.958 1.375 2.25.75 4.417 1.792 6.417 3.042a9.7 9.7 0 0 1 3.291 3.458c.667 1.334 1 2.792.959 4.292a9.7 9.7 0 0 1-1.625 5.541 10.44 10.44 0 0 1-4.667 3.709c-2.042.875-4.542 1.333-7.542 1.333a28.7 28.7 0 0 1-5.666-.541 16.8 16.8 0 0 1-4.25-1.334c-.292-.166-.5-.458-.459-.791v-7.25c0-.125.042-.292.167-.375s.25-.042.375.041a17.8 17.8 0 0 0 5.167 2.042 19.4 19.4 0 0 0 4.916.625c1.584 0 2.709-.209 3.459-.584.666-.291 1.125-1 1.125-1.75 0-.583-.334-1.124-1-1.666-.667-.542-2.042-1.167-4.084-1.959a25.5 25.5 0 0 1-5.916-3 10.8 10.8 0 0 1-3.167-3.54 8.94 8.94 0 0 1-.958-4.25c0-1.792.5-3.5 1.416-5.042 1.042-1.666 2.584-3 4.375-3.833 1.959-1 4.417-1.459 7.375-1.459 1.709 0 3.459.126 5.167.376 1.25.166 2.458.5 3.583.958.167.041.334.208.417.375.042.166.083.333.083.5v6.791a.51.51 0 0 1-.208.417c-.375.084-.583.084-.75 0"
  />
</svg>
